<svg width="18" height="15" viewBox="0 0 18 15" fill="none" xmlns="http://www.w3.org/2000/svg">
<path fill-rule="evenodd" clip-rule="evenodd" d="M13.9308 13.0544C13.9308 9.11518 13.9308 5.884 13.9308 3.36085C13.4256 3.60669 12.9204 3.92017 12.4152 4.2963C11.8201 3.56804 11.2249 2.96842 10.6298 2.4123C12.2491 1.0641 13.8685 0.359837 15.4879 0C16.3253 0.129604 17.1626 0.358542 18 0.71313C18 4.54706 18 9.11361 18 14.4129C16.6436 13.4905 15.2872 13.0975 13.9308 13.0544ZM6.87198 12.9627C5.6263 13.659 4.38063 14.394 3.13495 15C3.13495 14.0529 3.13495 13.0599 3.13495 12.0209C2.08997 12.5919 1.04498 13.0609 0 13.3169C0 12.2051 0 10.9992 0 9.69932C1.04498 9.45858 2.08997 9.01762 3.13495 8.48072C3.13495 7.33481 3.13495 6.14239 3.13495 4.90348C4.38063 4.41445 5.6263 3.82138 6.87198 3.25947C6.87198 4.26814 6.87198 5.29134 6.87198 6.32913C7.91696 5.71227 8.96194 5.12404 10.0069 4.66909C10.0069 5.69693 10.0069 6.79628 10.0069 7.96722C8.96194 8.45107 7.91696 9.07659 6.87198 9.73266C6.87198 10.795 6.87198 11.8717 6.87198 12.9627Z" fill="white"/>
</svg>
