<svg width="24" height="21" viewBox="0 0 24 21" fill="none" xmlns="http://www.w3.org/2000/svg">
<path fill-rule="evenodd" clip-rule="evenodd" d="M18.5744 18.2761C18.5744 12.7612 18.5744 8.23761 18.5744 4.70518C17.9008 5.04937 17.2272 5.48824 16.5536 6.01482C15.7601 4.99525 14.9666 4.15579 14.173 3.37722C16.3322 1.48975 18.4914 0.503772 20.6505 0C21.767 0.181446 22.8835 0.501959 24 0.998382C24 6.36588 24 12.7591 24 20.178C22.1915 18.8867 20.3829 18.3365 18.5744 18.2761ZM9.16264 18.1478C7.50174 19.1226 5.84084 20.1516 4.17994 21C4.17994 19.674 4.17994 18.2838 4.17994 16.8293C2.78663 17.6287 1.39331 18.2853 0 18.6437C0 17.0871 0 15.3989 0 13.579C1.39331 13.242 2.78663 12.6247 4.17994 11.873C4.17994 10.2687 4.17994 8.59935 4.17994 6.86488C5.84084 6.18023 7.50174 5.34993 9.16264 4.56325C9.16264 5.9754 9.16264 7.40788 9.16264 8.86078C10.5559 7.99717 11.9492 7.17365 13.3426 6.53673C13.3426 7.9757 13.3426 9.51479 13.3426 11.1541C11.9492 11.8315 10.5559 12.7072 9.16264 13.6257C9.16264 15.113 9.16264 16.6204 9.16264 18.1478Z" fill="white"/>
</svg>
