<svg width="44" height="44" viewBox="0 0 44 44" fill="none" xmlns="http://www.w3.org/2000/svg">
<path d="M12.7233 3.66669C13.486 3.66669 14.1038 4.26069 14.1038 4.99402V7.67069C15.3285 7.64869 16.7016 7.64869 18.2471 7.64869H25.608C27.1516 7.64869 28.5248 7.64869 29.7495 7.67252V4.99585C29.7495 4.26252 30.3673 3.66669 31.13 3.66669C31.8926 3.66669 32.5105 4.26069 32.5105 4.99402V7.79169C35.1596 7.99519 36.8995 8.49569 38.1755 9.72585C39.4551 10.9542 39.9758 12.6262 40.1866 15.1745L40.3333 16.5H3.66663V15.1727C3.87929 12.6244 4.39996 10.9524 5.67779 9.72402C6.95563 8.49569 8.69363 7.99335 11.3428 7.78985V4.99402C11.3428 4.26069 11.9606 3.66669 12.7233 3.66669Z" fill="#00923A"/>
<path opacity="0.5" d="M40.3334 25.6667V22C40.3334 20.4618 40.326 17.7192 40.3022 16.5H3.68502C3.66119 17.7192 3.66669 20.4618 3.66669 22V25.6667C3.66669 32.5802 3.66669 36.0378 5.81535 38.1847C7.96402 40.3315 11.418 40.3333 18.3334 40.3333H25.6667C32.5784 40.3333 36.036 40.3333 38.1847 38.1847C40.3334 36.036 40.3334 32.582 40.3334 25.6667Z" fill="#00923A"/>
<path d="M33 31.1667C33 31.6529 32.8068 32.1192 32.463 32.463C32.1192 32.8068 31.6529 33 31.1667 33C30.6804 33 30.2141 32.8068 29.8703 32.463C29.5265 32.1192 29.3333 31.6529 29.3333 31.1667C29.3333 30.6804 29.5265 30.2141 29.8703 29.8703C30.2141 29.5265 30.6804 29.3333 31.1667 29.3333C31.6529 29.3333 32.1192 29.5265 32.463 29.8703C32.8068 30.2141 33 30.6804 33 31.1667ZM33 23.8333C33 24.3196 32.8068 24.7859 32.463 25.1297C32.1192 25.4735 31.6529 25.6667 31.1667 25.6667C30.6804 25.6667 30.2141 25.4735 29.8703 25.1297C29.5265 24.7859 29.3333 24.3196 29.3333 23.8333C29.3333 23.3471 29.5265 22.8808 29.8703 22.537C30.2141 22.1932 30.6804 22 31.1667 22C31.6529 22 32.1192 22.1932 32.463 22.537C32.8068 22.8808 33 23.3471 33 23.8333ZM23.8333 31.1667C23.8333 31.6529 23.6402 32.1192 23.2964 32.463C22.9525 32.8068 22.4862 33 22 33C21.5138 33 21.0475 32.8068 20.7036 32.463C20.3598 32.1192 20.1667 31.6529 20.1667 31.1667C20.1667 30.6804 20.3598 30.2141 20.7036 29.8703C21.0475 29.5265 21.5138 29.3333 22 29.3333C22.4862 29.3333 22.9525 29.5265 23.2964 29.8703C23.6402 30.2141 23.8333 30.6804 23.8333 31.1667ZM23.8333 23.8333C23.8333 24.3196 23.6402 24.7859 23.2964 25.1297C22.9525 25.4735 22.4862 25.6667 22 25.6667C21.5138 25.6667 21.0475 25.4735 20.7036 25.1297C20.3598 24.7859 20.1667 24.3196 20.1667 23.8333C20.1667 23.3471 20.3598 22.8808 20.7036 22.537C21.0475 22.1932 21.5138 22 22 22C22.4862 22 22.9525 22.1932 23.2964 22.537C23.6402 22.8808 23.8333 23.3471 23.8333 23.8333ZM14.6667 31.1667C14.6667 31.6529 14.4735 32.1192 14.1297 32.463C13.7859 32.8068 13.3196 33 12.8333 33C12.3471 33 11.8808 32.8068 11.537 32.463C11.1932 32.1192 11 31.6529 11 31.1667C11 30.6804 11.1932 30.2141 11.537 29.8703C11.8808 29.5265 12.3471 29.3333 12.8333 29.3333C13.3196 29.3333 13.7859 29.5265 14.1297 29.8703C14.4735 30.2141 14.6667 30.6804 14.6667 31.1667ZM14.6667 23.8333C14.6667 24.3196 14.4735 24.7859 14.1297 25.1297C13.7859 25.4735 13.3196 25.6667 12.8333 25.6667C12.3471 25.6667 11.8808 25.4735 11.537 25.1297C11.1932 24.7859 11 24.3196 11 23.8333C11 23.3471 11.1932 22.8808 11.537 22.537C11.8808 22.1932 12.3471 22 12.8333 22C13.3196 22 13.7859 22.1932 14.1297 22.537C14.4735 22.8808 14.6667 23.3471 14.6667 23.8333Z" fill="#00923A"/>
</svg>
