<svg width="13" height="13" viewBox="0 0 13 13" fill="none" xmlns="http://www.w3.org/2000/svg">
<g clip-path="url(#clip0_6_217)">
<path d="M10.3262 9.80472C10.3077 9.66853 10.2854 9.53818 10.26 9.4135C10.0864 8.56698 9.68846 7.7814 9.10778 7.14136C9.28092 7.9038 8.80721 8.39088 8.80134 8.3893C8.8852 7.47343 8.5797 6.56387 7.95959 5.88483C7.70934 5.61124 7.45416 5.33088 7.19352 5.04376C6.28555 4.04537 5.54804 3.03338 4.88939 2.17985C4.90528 2.60164 4.76249 3.14196 4.19809 3.80267C4.20445 3.80197 4.4397 3.34393 4.52673 2.57851C4.58386 2.07651 4.42247 1.57427 4.08433 1.19894C3.26524 0.291416 2.46064 -0.234655 1.42846 0.102864C0.354181 0.449132 0.0350446 1.60185 0.426665 3.19386C0.535459 3.63674 0.81198 4.01999 1.19775 4.26318C2.07304 4.81439 2.71944 4.75659 2.71357 4.76343C1.86729 4.99049 1.26167 4.78584 0.857333 4.46265C1.394 5.72757 2.2979 7.11332 3.48146 8.41337C3.91119 8.88684 4.36493 9.31289 4.82958 9.69096C5.57978 10.3015 6.59924 10.4763 7.50944 10.1484C7.50676 10.1426 7.2216 10.79 6.31276 10.7213C6.39163 10.7673 6.47007 10.8119 6.54801 10.8553C7.0521 11.134 7.61737 11.2918 8.19258 11.3113C8.61689 11.3258 9.09828 11.2712 9.5951 11.0819C9.61458 11.086 8.43513 11.8879 9.32944 12.9565C9.33084 12.491 10.2619 11.4996 10.6123 11.1207C10.6227 11.1102 10.1232 12.1766 11.4885 13C10.9106 12.2913 11.2188 11.8201 11.4241 11.469C10.5697 11.1055 9.69211 10.6429 8.86668 10.1043C7.27151 9.07174 5.91027 7.74429 5.0422 6.64049C4.60115 6.0929 4.28475 5.59906 4.06219 5.25705C3.84506 4.91049 3.73672 4.70289 3.73624 4.70334C3.7367 4.70289 3.88674 4.88261 4.15102 5.19198C4.41031 5.50457 4.80373 5.93086 5.28426 6.42677C6.2457 7.41928 7.62599 8.63364 9.1749 9.63133C9.97542 10.1553 10.8136 10.6268 11.6277 11.0213C11.7537 10.6272 11.9409 10.125 12.7342 10.0005C11.4491 9.67526 10.8752 10.6014 10.8725 10.6127C10.9618 10.1019 11.3276 8.8081 11.6771 8.5271C10.5529 8.48679 10.3131 9.79136 10.3262 9.80472Z" fill="#00923A"/>
</g>
<defs>
<clipPath id="clip0_6_217">
<rect width="13" height="13" fill="white"/>
</clipPath>
</defs>
</svg>
