<svg width="56" height="56" viewBox="0 0 56 56" fill="none" xmlns="http://www.w3.org/2000/svg">
<path opacity="0.4" d="M40.9034 18.1301C40.74 18.1068 40.5767 18.1068 40.4134 18.1301C36.7967 18.0134 33.9267 15.0501 33.9267 11.4101C33.9267 7.70008 36.9367 4.66675 40.67 4.66675C44.38 4.66675 47.4134 7.67675 47.4134 11.4101C47.39 15.0501 44.52 18.0134 40.9034 18.1301Z" fill="#E52322"/>
<path opacity="0.4" d="M48.51 34.2999C45.8967 36.0499 42.2333 36.7033 38.85 36.2599C39.7367 34.3466 40.2033 32.2233 40.2267 29.9833C40.2267 27.65 39.7133 25.4333 38.7333 23.4966C42.1867 23.03 45.85 23.6833 48.4867 25.4333C52.1733 27.8599 52.1733 31.8499 48.51 34.2999Z" fill="#E52322"/>
<path opacity="0.4" d="M15.0267 18.1301C15.19 18.1068 15.3533 18.1068 15.5167 18.1301C19.1333 18.0134 22.0033 15.0501 22.0033 11.4101C22.0033 7.70008 18.9933 4.66675 15.26 4.66675C11.55 4.66675 8.51666 7.67675 8.51666 11.4101C8.54 15.0501 11.41 18.0134 15.0267 18.1301Z" fill="#E52322"/>
<path opacity="0.4" d="M15.2833 29.9833C15.2833 32.2466 15.7733 34.3933 16.66 36.3299C13.37 36.6799 9.93997 35.9799 7.41997 34.3233C3.7333 31.8733 3.7333 27.8832 7.41997 25.4332C9.91664 23.7532 13.44 23.0766 16.7533 23.4499C15.7966 25.4099 15.2833 27.6266 15.2833 29.9833Z" fill="#E52322"/>
<path d="M28.28 37.03C28.0933 37.0067 27.8833 37.0067 27.6733 37.03C23.38 36.89 19.95 33.3667 19.95 29.0267C19.95 24.5933 23.52 21 27.9767 21C32.41 21 36.0033 24.5933 36.0033 29.0267C36.0033 33.3667 32.5967 36.89 28.28 37.03Z" fill="#E52322"/>
<path d="M20.6966 41.8599C17.1733 44.2166 17.1733 48.0899 20.6966 50.4232C24.71 53.1066 31.29 53.1066 35.3033 50.4232C38.8266 48.0666 38.8266 44.1932 35.3033 41.8599C31.3133 39.1766 24.7333 39.1766 20.6966 41.8599Z" fill="#E52322"/>
</svg>
