<svg width="100" height="91" viewBox="0 0 100 91" fill="none" xmlns="http://www.w3.org/2000/svg">
<path d="M6.57094 0.907024H10.7768L17.3477 27.7662H12.917L12.2785 25.0881H4.99457L4.35612 27.7662H0L6.57094 0.907024ZM11.2649 20.7866L8.63656 8.71537L6.04548 20.7866H11.2649Z" fill="white"/>
<path d="M19.3354 0.907024H26.7697C30.5247 0.907024 32.5903 4.79191 32.5903 8.64043C32.5903 10.9405 31.9135 12.8648 30.7507 14.0727C32.2897 15.4679 32.9655 17.768 32.9655 19.9953C32.9655 23.8053 30.8626 27.7662 27.0703 27.7662H19.3354V0.907024ZM26.5075 12.2608C27.6714 12.2608 28.3099 10.4875 28.3099 8.6779C28.3099 6.86826 27.7471 5.24487 26.5075 5.24487H23.6543V12.2619H26.5075V12.2608ZM26.9211 23.4647C28.1223 23.4647 28.7234 21.6914 28.7234 19.8818C28.7234 18.0722 28.0477 16.3364 26.9211 16.3364H23.6543V23.4658H26.9211V23.4647Z" fill="white"/>
<path d="M39.7624 5.28234H34.6932V0.907024H49.1877V5.28344H44.1185V27.7662H39.7624V5.28234Z" fill="white"/>
<path d="M64.4687 0C72.3911 0 78.7744 6.45167 78.7744 14.2986C78.7744 22.1455 72.3911 28.671 64.4687 28.671C56.5463 28.671 50.2375 22.2579 50.2375 14.2986C50.2375 6.33925 56.6208 0 64.4687 0ZM64.4687 4.37642C59.0616 4.37642 54.5925 8.86636 54.5925 14.2986C54.5925 19.7308 59.0605 24.3321 64.4687 24.3321C69.8768 24.3321 74.4194 19.8432 74.4194 14.2986C74.4194 8.75394 69.9887 4.37642 64.4687 4.37642Z" fill="white"/>
<path d="M35.2845 32.5184H39.6406V43.7598H41.2927L45.3855 32.5184H50.1168L45.0477 45.91L50.1168 59.3765H45.3855L41.2927 48.0976H39.6406V59.3765H35.2845V32.5173V32.5184Z" fill="white"/>
<path d="M56.4607 53.6434L50.9034 32.5184H55.4471C56.5364 37.0822 57.6246 41.5721 58.6755 46.0995C59.7648 41.5721 60.853 37.0822 61.905 32.5184H66.486L59.3512 59.3776H54.9205L56.4596 53.6434H56.4607Z" fill="white"/>
<path d="M81.2043 32.5184V59.3776H76.9227V36.8948H73.0559C73.0559 42.477 72.9429 47.0793 72.3417 50.6633C71.7044 54.7752 70.4275 58.1697 66.8228 60.1314L64.6453 56.4361C66.5595 55.2282 67.6115 53.6445 68.1743 49.872C68.7754 45.8725 68.8127 40.1383 68.8127 32.5195H81.2043V32.5184Z" fill="white"/>
<path d="M85.1819 32.5184H89.5381V40.9682H92.0161C96.4842 40.9682 98.5498 45.5331 98.5498 50.0605C98.5498 54.5879 96.3339 59.3776 92.0907 59.3776H85.1819V32.5184ZM91.9405 55.0761C93.5552 55.0761 94.3439 52.549 94.3439 50.1354C94.3439 47.7218 93.5552 45.2697 92.0161 45.2697H89.5008V55.0772H91.9416L91.9405 55.0761Z" fill="white"/>
<path d="M0.693294 68.5162V64.1397H15.1877V68.5162H10.1186V90.9989H5.76356V68.5162H0.693294Z" fill="white"/>
<path d="M21.7565 85.2658L16.1992 64.1408H20.7429C21.8322 68.7046 22.9204 73.1945 23.9713 77.7209C25.0606 73.1945 26.1488 68.7046 27.2008 64.1408H31.7818L24.647 91H20.2163L21.7554 85.2658H21.7565Z" fill="white"/>
<path d="M33.808 64.1397H40.6795C45.3735 64.1397 47.7759 69.3075 47.7759 74.4763C47.7759 79.6451 45.4097 84.7754 40.6422 84.7754H38.1641V90.9989H33.808V64.1397ZM40.6038 80.4739C42.5564 80.4739 43.4954 77.4927 43.4954 74.4763C43.4954 71.4599 42.4818 68.5162 40.4535 68.5162H38.163V80.4739H40.6038Z" fill="white"/>
<path d="M53.784 64.1397H57.9899L64.5608 90.9989H60.1301L59.4917 88.3208H52.2077L51.5692 90.9989H47.2131L53.784 64.1397ZM58.4769 84.0204L55.8486 71.9492L53.2575 84.0204H58.4769Z" fill="white"/>
<path d="M100 11.6712H85.3816V16.0851H100V11.6712Z" fill="white"/>
<path d="M25.7199 43.2076H11.1015V47.6204H25.7199V43.2076Z" fill="white"/>
<path d="M83.7361 74.1743H69.1166V78.5882H83.7361V74.1743Z" fill="white"/>
</svg>
