<svg width="40" height="44" viewBox="0 0 40 44" fill="none" xmlns="http://www.w3.org/2000/svg">
<rect x="0.5" y="4.5" width="39" height="39" rx="9.5" fill="black" stroke="black"/>
<rect x="0.5" y="0.5" width="39" height="39" rx="9.5" fill="white" stroke="black"/>
<path d="M20.3121 11.668C20.1481 11.56 19.9561 11.504 19.7601 11.508C18.0001 11.508 14.8721 15.484 14.3721 15.984C14.0041 16.344 13.6801 16.748 13.4041 17.184C12.6321 17.096 11.3241 17.212 10.6761 17.772C10.2081 18.26 9.93612 18.9 9.90812 19.572C9.79612 20.796 9.90812 23.236 10.5641 23.908C11.3241 24.676 12.7801 24.544 12.9081 24.536C13.0361 24.528 13.2241 24.516 13.4201 24.512C13.5601 24.78 14.2481 25.712 14.4721 26C15.1881 26.924 17.6121 29.792 18.7081 30.352C18.8961 30.456 19.1081 30.508 19.3241 30.512C20.9001 30.512 21.0841 27.752 21.1681 23.856V23.164C21.4121 14.276 21.0001 12.144 20.3121 11.668Z" fill="black"/>
<path d="M24.46 17.972C24.096 17.692 23.608 17.628 23.184 17.804C22.772 17.972 22.48 18.348 22.42 18.788V18.904C22.408 19.324 22.6 19.724 22.936 19.976C23.24 20.224 23.412 20.604 23.392 21C23.38 21.296 23.264 21.58 23.068 21.8C22.68 22.22 22.608 22.84 22.884 23.336C23.096 23.74 23.516 23.992 23.972 23.996C24.048 23.996 24.128 23.988 24.204 23.972C24.288 23.956 24.368 23.932 24.448 23.904C24.52 23.872 24.588 23.832 24.648 23.784C26.208 22.404 26.356 20.016 24.976 18.452C24.816 18.276 24.644 18.116 24.46 17.972Z" fill="black"/>
<path d="M26.5599 14.676C25.9279 14.36 25.1559 14.616 24.8359 15.248C24.5319 15.852 24.7519 16.588 25.3359 16.932C27.0559 17.976 27.5799 20.004 27.4999 21.548C27.3959 22.976 26.6759 24.288 25.5319 25.148C25.2039 25.4 25.0199 25.8 25.0439 26.212C25.0559 26.384 25.1039 26.552 25.1799 26.704C25.3439 27.032 25.6439 27.272 25.9999 27.356C26.1039 27.384 26.2119 27.396 26.3199 27.396C26.5959 27.396 26.8639 27.312 27.0879 27.148C28.8519 25.832 29.9559 23.812 30.1079 21.616C30.3399 18.452 29.0479 15.928 26.5599 14.676Z" fill="black"/>
</svg>
