<svg width="40" height="44" viewBox="0 0 40 44" fill="none" xmlns="http://www.w3.org/2000/svg">
<rect x="0.5" y="4.5" width="39" height="39" rx="9.5" fill="black" stroke="black"/>
<rect x="0.5" y="0.5" width="39" height="39" rx="9.5" fill="white" stroke="black"/>
<path d="M29.752 21.516L28.388 20.132L29.764 18.756C29.968 18.548 30.1 18.28 30.14 17.992C30.16 17.632 30.028 17.284 29.776 17.028C29.28 16.604 28.544 16.604 28.048 17.028L26.664 18.4L25.276 17.036C24.804 16.56 24.032 16.56 23.556 17.032C23.08 17.504 23.08 18.276 23.556 18.752L24.928 20.128L23.568 21.512C23.116 22.02 23.128 22.788 23.596 23.28C23.988 23.736 24.676 23.788 25.132 23.396C25.188 23.348 25.24 23.292 25.284 23.232L26.66 21.86L28.032 23.232C28.228 23.436 28.48 23.576 28.756 23.632C29.132 23.652 29.5 23.508 29.76 23.232C30.232 22.768 30.236 22.008 29.772 21.536C29.768 21.528 29.76 21.524 29.752 21.516Z" fill="black"/>
<path d="M20.2921 10.668C20.1281 10.56 19.9321 10.504 19.7361 10.508C17.9801 10.508 14.8521 14.484 14.3521 14.984C13.9841 15.344 13.6601 15.748 13.3841 16.184C12.6081 16.096 11.3041 16.212 10.6561 16.772C10.1921 17.26 9.91606 17.9 9.88406 18.572C9.77606 19.796 9.88406 22.236 10.5401 22.908C11.3041 23.676 12.7561 23.544 12.8881 23.536C13.0201 23.528 13.2041 23.516 13.4001 23.512C13.5401 23.78 14.2281 24.712 14.4521 25C15.1681 25.924 17.5921 28.792 18.6841 29.352C18.8761 29.452 19.0881 29.508 19.3041 29.512C20.8801 29.512 21.0601 26.752 21.1441 22.856L21.1641 22.164C21.3921 13.276 20.9801 11.144 20.2921 10.668Z" fill="black"/>
</svg>
