<svg width="68" height="68" viewBox="0 0 68 68" fill="none" xmlns="http://www.w3.org/2000/svg">
<path opacity="0.5" d="M5.66667 34.0001C5.66667 20.6437 5.66667 13.9656 9.81467 9.81475C13.9683 5.66675 20.6437 5.66675 34 5.66675C47.3563 5.66675 54.0345 5.66675 58.1825 9.81475C62.3333 13.9684 62.3333 20.6437 62.3333 34.0001C62.3333 47.3564 62.3333 54.0346 58.1825 58.1826C54.0373 62.3334 47.3563 62.3334 34 62.3334C20.6437 62.3334 13.9655 62.3334 9.81467 58.1826C5.66667 54.0374 5.66667 47.3564 5.66667 34.0001Z" fill="white"/>
<path fill-rule="evenodd" clip-rule="evenodd" d="M19.5897 31.8751H5.66667V36.1251H28.7952C28.3168 38.1422 27.1717 39.9389 25.5453 41.2243C23.919 42.5098 21.9064 43.2089 19.8333 43.2084C19.2698 43.2084 18.7293 43.4323 18.3307 43.8308C17.9322 44.2293 17.7083 44.7698 17.7083 45.3334C17.7083 45.897 17.9322 46.4375 18.3307 46.836C18.7293 47.2345 19.2698 47.4584 19.8333 47.4584C22.3335 47.4591 24.7844 46.7634 26.9113 45.4492C29.0382 44.135 30.757 42.2544 31.875 40.0181V62.3334H36.125V40.0181C37.243 42.2544 38.9618 44.135 41.0887 45.4492C43.2156 46.7634 45.6665 47.4591 48.1667 47.4584C48.7303 47.4584 49.2708 47.2345 49.6693 46.836C50.0678 46.4375 50.2917 45.897 50.2917 45.3334C50.2917 44.7698 50.0678 44.2293 49.6693 43.8308C49.2708 43.4323 48.7303 43.2084 48.1667 43.2084C46.0936 43.2089 44.081 42.5098 42.4547 41.2243C40.8283 39.9389 39.6832 38.1422 39.2048 36.1251H62.3333V31.8751H48.4132C49.4048 30.6341 50.15 29.1692 50.5552 27.5486C52.0795 21.4484 46.5517 15.9234 40.4543 17.4477C38.8741 17.8424 37.3974 18.5729 36.125 19.5897V5.66675H31.875V19.5897C30.6034 18.5733 29.1278 17.8427 27.5485 17.4477C21.4483 15.9234 15.9233 21.4484 17.4477 27.5486C17.8528 29.1692 18.5952 30.6341 19.5897 31.8751ZM31.875 31.8751H28.3248C26.7663 31.8497 25.2597 31.3109 24.0385 30.3422C22.8173 29.3735 21.9497 28.0291 21.5702 26.5173C21.3993 25.8336 21.4084 25.1173 21.5966 24.4382C21.7849 23.759 22.1458 23.1403 22.6442 22.6421C23.1427 22.1439 23.7617 21.7834 24.4409 21.5955C25.1201 21.4077 25.8364 21.399 26.52 21.5702C28.0318 21.9498 29.3763 22.8173 30.3449 24.0385C31.3136 25.2598 31.8524 26.7664 31.8778 28.3249L31.875 31.8751ZM39.6752 31.8751H36.125V28.3476C36.1455 26.7851 36.682 25.2733 37.6511 24.0475C38.6201 22.8217 39.9673 21.9508 41.4828 21.5702C42.1662 21.3996 42.8822 21.4087 43.561 21.5968C44.2398 21.785 44.8583 22.1456 45.3564 22.6437C45.8545 23.1418 46.2151 23.7603 46.4032 24.4391C46.5913 25.1179 46.6005 25.8339 46.4298 26.5173C46.0503 28.0291 45.1828 29.3735 43.9615 30.3422C42.7403 31.3109 41.2337 31.8497 39.6752 31.8751Z" fill="white"/>
</svg>
