<svg width="294" height="259" viewBox="0 0 294 259" fill="none" xmlns="http://www.w3.org/2000/svg">
<mask id="mask0_3_698" style="mask-type:alpha" maskUnits="userSpaceOnUse" x="0" y="0" width="294" height="259">
<rect width="294" height="259" rx="22" fill="#F9F4F1"/>
</mask>
<g mask="url(#mask0_3_698)">
<rect width="51.5801" height="51.5801" rx="9.00604" transform="matrix(0.866025 -0.5 0.866025 0.5 0 142.718)" fill="#343333"/>
<rect width="51.5801" height="51.5801" rx="9.00604" transform="matrix(0.866025 -0.5 0.866025 0.5 47.5058 115.29)" fill="#B18000"/>
<rect width="51.5801" height="51.5801" rx="9.00604" transform="matrix(0.866025 -0.5 0.866025 0.5 95.0116 87.8625)" fill="#343333"/>
<rect width="51.5801" height="51.5801" rx="9.00604" transform="matrix(0.866025 -0.5 0.866025 0.5 142.517 60.435)" fill="#343333"/>
<rect width="51.5801" height="51.5801" rx="9.00604" transform="matrix(0.866025 -0.5 0.866025 0.5 142.517 60.435)" fill="#B18000"/>
<rect width="51.5801" height="51.5801" rx="9.00604" transform="matrix(0.866025 -0.5 0.866025 0.5 190.023 33.0076)" fill="#343333"/>
<rect width="51.5801" height="51.5801" rx="9.00604" transform="matrix(0.866025 -0.5 0.866025 0.5 47.2677 170.008)" fill="#343333"/>
<rect width="51.5801" height="51.5801" rx="9.00604" transform="matrix(0.866025 -0.5 0.866025 0.5 94.7735 142.58)" fill="#343333"/>
<rect width="51.5801" height="51.5801" rx="9.00604" transform="matrix(0.866025 -0.5 0.866025 0.5 94.7735 142.58)" fill="#B18000"/>
<rect width="51.5801" height="51.5801" rx="9.00604" transform="matrix(0.866025 -0.5 0.866025 0.5 142.279 115.153)" fill="#343333"/>
<rect width="51.5801" height="51.5801" rx="9.00604" transform="matrix(0.866025 -0.5 0.866025 0.5 142.279 115.153)" fill="#B18000"/>
<rect width="51.5801" height="51.5801" rx="9.00604" transform="matrix(0.866025 -0.5 0.866025 0.5 189.785 87.7251)" fill="#343333"/>
<rect width="51.5801" height="51.5801" rx="9.00604" transform="matrix(0.866025 -0.5 0.866025 0.5 237.291 60.2976)" fill="#343333"/>
<rect width="51.5801" height="51.5801" rx="9.00604" transform="matrix(0.866025 -0.5 0.866025 0.5 94.3968 197.218)" fill="#343333"/>
<rect width="51.5801" height="51.5801" rx="9.00604" transform="matrix(0.866025 -0.5 0.866025 0.5 94.3968 197.218)" fill="#B18000"/>
<rect width="51.5801" height="51.5801" rx="25.79" transform="matrix(0.866025 -0.5 0.866025 0.5 141.903 169.79)" fill="#94CF63"/>
<path d="M170.933 166.163L180.665 160.545L211.232 167.582L204.818 171.284L199.075 169.958L186.982 176.94L189.28 180.256L183.122 183.811L170.933 166.163ZM179.867 166.642L184.111 172.74L191.8 168.3L181.207 165.868L179.867 166.642Z" fill="#10534A"/>
<rect width="51.5801" height="51.5801" rx="9.00604" transform="matrix(0.866025 -0.5 0.866025 0.5 189.408 142.363)" fill="#343333"/>
<rect width="51.5801" height="51.5801" rx="9.00604" transform="matrix(0.866025 -0.5 0.866025 0.5 236.914 114.935)" fill="#343333"/>
<rect width="51.5801" height="51.5801" rx="25.79" transform="matrix(0.866025 -0.5 0.866025 0.5 284.797 87.29)" fill="#A0DF6D"/>
<rect width="51.5801" height="51.5801" rx="9.00604" transform="matrix(0.866025 -0.5 0.866025 0.5 141.526 224.427)" fill="#DDDDDD"/>
<rect width="51.5801" height="51.5801" rx="9.00604" transform="matrix(0.866025 -0.5 0.866025 0.5 189.032 197)" fill="#DDDDDD"/>
<rect width="51.5801" height="51.5801" rx="9.00604" transform="matrix(0.866025 -0.5 0.866025 0.5 236.537 169.573)" fill="#DDDDDD"/>
<rect width="51.5801" height="51.5801" rx="9.00604" transform="matrix(0.866025 -0.5 0.866025 0.5 284.043 142.145)" fill="#DDDDDD"/>
<rect width="51.5801" height="51.5801" rx="9.00604" transform="matrix(0.866025 -0.5 0.866025 0.5 188.655 251.637)" fill="#DDDDDD"/>
<rect width="51.5801" height="51.5801" rx="9.00604" transform="matrix(0.866025 -0.5 0.866025 0.5 236.161 224.21)" fill="#DDDDDD"/>
<rect width="51.5801" height="51.5801" rx="9.00604" transform="matrix(0.866025 -0.5 0.866025 0.5 283.666 196.782)" fill="#DDDDDD"/>
<rect width="51.5801" height="51.5801" rx="9.00604" transform="matrix(0.866025 -0.5 0.866025 0.5 235.784 278.847)" fill="#DDDDDD"/>
<rect width="51.5801" height="51.5801" rx="9.00604" transform="matrix(0.866025 -0.5 0.866025 0.5 283.29 251.42)" fill="#DDDDDD"/>
<rect width="51.5801" height="51.5801" rx="9.00604" transform="matrix(0.866025 -0.5 0.866025 0.5 0 138.718)" fill="#858180"/>
<path d="M16.8674 142.113L23.3764 138.355L39.4575 147.64L46.7323 143.439L30.6512 134.155L37.1283 130.415L53.2094 139.7L60.4522 135.518L44.3712 126.234L50.8802 122.476L72.2578 134.818L38.245 154.455L16.8674 142.113Z" fill="white"/>
<rect width="51.5801" height="51.5801" rx="9.00604" transform="matrix(0.866025 -0.5 0.866025 0.5 47.5058 111.29)" fill="#FFB800"/>
<path d="M69.1233 111.943L93.6916 97.7586L98.9881 100.817L89.9584 106.03L106.04 115.314L99.5305 119.072L83.4494 109.788L74.4198 115.001L69.1233 111.943Z" fill="white"/>
<rect width="51.5801" height="51.5801" rx="9.00604" transform="matrix(0.866025 -0.5 0.866025 0.5 95.0116 83.8625)" fill="#858180"/>
<path d="M128.515 77.285L129.791 76.5482C131.535 75.5411 133.386 74.7183 135.343 74.0797C137.3 73.4411 139.246 73.0419 141.182 72.8823C143.117 72.7226 145.011 72.8086 146.861 73.1402C148.733 73.4595 150.456 74.0735 152.03 74.9823L154.583 76.456C156.135 77.3526 157.188 78.3412 157.741 79.4219C158.316 80.4903 158.465 81.5834 158.188 82.7009C157.89 83.8062 157.188 84.9238 156.082 86.0536C154.976 87.1835 153.551 88.2519 151.807 89.259L150.531 89.9958C148.744 91.0274 146.861 91.8687 144.883 92.5196C142.905 93.1704 140.937 93.5941 138.98 93.7906C137.023 93.9626 135.109 93.8889 133.237 93.5696C131.365 93.2503 129.653 92.6424 128.1 91.7459L125.547 90.2721C123.973 89.3633 122.91 88.3686 122.357 87.2879C121.804 86.2071 121.676 85.1018 121.974 83.972C122.293 82.8299 123.016 81.6877 124.144 80.5456C125.271 79.4035 126.728 78.3166 128.515 77.285ZM134.13 80.5272C132.195 81.6448 131.057 82.7316 130.716 83.7878C130.376 84.8194 130.887 85.7282 132.248 86.5142L134.545 87.8405C135.907 88.6265 137.491 88.9274 139.299 88.7432C141.107 88.5344 142.979 87.8712 144.915 86.7536L145.936 86.1642C147.85 85.0589 148.988 83.9843 149.35 82.9404C149.69 81.8842 149.18 80.9632 147.818 80.1772L145.521 78.8508C144.16 78.0649 142.575 77.7763 140.767 77.985C138.938 78.1815 137.066 78.8324 135.151 79.9377L134.13 80.5272Z" fill="white"/>
<rect width="51.5801" height="51.5801" rx="9.00604" transform="matrix(0.866025 -0.5 0.866025 0.5 142.517 56.435)" fill="#858180"/>
<rect width="51.5801" height="51.5801" rx="9.00604" transform="matrix(0.866025 -0.5 0.866025 0.5 142.517 56.435)" fill="#FFB800"/>
<path d="M164.884 56.6554L179.976 47.9421C183.039 46.1736 185.847 45.2894 188.4 45.2894C190.931 45.2771 193.218 45.8604 195.26 47.0394L196.345 47.6657C198.45 48.8816 199.493 50.2202 199.471 51.6816C199.45 53.1431 197.908 54.758 194.845 56.5265L186.262 61.4818L192.771 65.2398L186.262 68.9978L164.884 56.6554ZM176.69 55.9554L180.965 58.4239L188.846 53.8738C189.655 53.4071 190.133 52.9711 190.282 52.5658C190.452 52.1483 190.197 51.743 189.517 51.35L188.878 50.9816C188.219 50.6009 187.538 50.4658 186.836 50.5763C186.134 50.6623 185.379 50.9386 184.571 51.4053L176.69 55.9554Z" fill="white"/>
<rect width="51.5801" height="51.5801" rx="9.00604" transform="matrix(0.866025 -0.5 0.866025 0.5 190.023 29.0076)" fill="#858180"/>
<path d="M233.528 17.0243L240.037 13.2663L261.414 25.6087L254.905 29.3667L233.528 17.0243ZM207.779 31.8904L214.288 28.1324L220.35 31.6325L228.71 26.8061C231.56 25.1604 234.336 24.2823 237.037 24.1718C239.718 24.049 242.196 24.6446 244.472 25.9587L245.525 26.5666C247.801 27.8807 248.832 29.3114 248.62 30.8588C248.407 32.4062 246.907 33.9843 244.121 35.5931L229.156 44.2328L207.779 31.8904ZM225.647 34.6905L230.369 37.4168L237.771 33.1431C238.707 32.6027 239.271 32.093 239.462 31.6141C239.632 31.1228 239.345 30.6623 238.601 30.2325L238.026 29.9009C237.282 29.471 236.506 29.3175 235.697 29.4403C234.868 29.5509 233.985 29.8763 233.049 30.4167L225.647 34.6905Z" fill="white"/>
<rect width="51.5801" height="51.5801" rx="9.00604" transform="matrix(0.866025 -0.5 0.866025 0.5 47.2677 166.008)" fill="#858180"/>
<path d="M80.5793 159.541L81.7918 158.841C83.6424 157.772 85.5142 156.925 87.4074 156.298C89.2792 155.66 91.1298 155.267 92.9592 155.119C94.7885 154.948 96.5859 155.052 98.3514 155.433C100.138 155.801 101.84 156.452 103.457 157.385L106.169 158.951C107.828 159.909 108.987 160.91 109.646 161.954C110.306 162.973 110.508 164.023 110.253 165.104C109.997 166.16 109.327 167.235 108.243 168.328C107.136 169.408 105.658 170.483 103.808 171.551L102.563 172.27C98.6705 174.517 95.0438 175.825 91.6829 176.194C88.322 176.562 85.2483 175.942 82.4618 174.333L89.0665 170.52C90.045 171.085 91.1937 171.257 92.5125 171.036C93.8313 170.815 95.3841 170.188 97.1709 169.157L98.4153 168.438C100.117 167.456 101.149 166.553 101.51 165.73C101.893 164.895 101.553 164.097 100.489 163.335L90.3747 169.175L85.3334 166.264L95.3841 160.462C94.2354 160.02 92.9698 159.927 91.5872 160.185C90.2258 160.431 88.7475 161.014 87.1521 161.935L85.9397 162.635C84.1103 163.692 82.9936 164.582 82.5894 165.307C82.1853 166.031 82.2916 166.571 82.9085 166.928L76.2719 170.759C73.7831 169.322 72.9323 167.64 73.7193 165.712C74.5064 163.784 76.793 161.727 80.5793 159.541Z" fill="white"/>
<rect width="51.5801" height="51.5801" rx="9.00604" transform="matrix(0.866025 -0.5 0.866025 0.5 94.7735 138.58)" fill="#858180"/>
<rect width="51.5801" height="51.5801" rx="9.00604" transform="matrix(0.866025 -0.5 0.866025 0.5 94.7735 138.58)" fill="#FFB800"/>
<path d="M116.391 139.233L140.959 125.049L146.256 128.107L137.226 133.32L153.307 142.604L146.798 146.362L130.717 137.078L121.687 142.291L116.391 139.233Z" fill="white"/>
<rect width="51.5801" height="51.5801" rx="9.00604" transform="matrix(0.866025 -0.5 0.866025 0.5 142.279 111.153)" fill="#858180"/>
<rect width="51.5801" height="51.5801" rx="9.00604" transform="matrix(0.866025 -0.5 0.866025 0.5 142.279 111.153)" fill="#FFB800"/>
<path d="M164.643 111.375L171.152 107.617L178.937 112.112L189.85 105.812L182.064 101.317L188.573 97.5587L209.951 109.901L203.442 113.659L195.146 108.869L184.234 115.17L192.53 119.959L186.021 123.717L164.643 111.375Z" fill="white"/>
<rect width="51.5801" height="51.5801" rx="9.00604" transform="matrix(0.866025 -0.5 0.866025 0.5 189.785 83.7251)" fill="#858180"/>
<path d="M223.288 77.1476L224.565 76.4107C226.309 75.4037 228.159 74.5808 230.116 73.9422C232.073 73.3036 234.02 72.9045 235.955 72.7448C237.891 72.5852 239.784 72.6711 241.635 73.0027C243.507 73.322 245.23 73.9361 246.804 74.8449L249.356 76.3186C250.909 77.2151 251.962 78.2037 252.515 79.2844C253.089 80.3529 253.238 81.4459 252.962 82.5635C252.664 83.6687 251.962 84.7863 250.856 85.9162C249.75 87.046 248.325 88.1145 246.58 89.1215L245.304 89.8584C243.517 90.89 241.635 91.7312 239.656 92.3821C237.678 93.033 235.711 93.4567 233.754 93.6532C231.797 93.8251 229.882 93.7514 228.01 93.4321C226.139 93.1128 224.426 92.5049 222.873 91.6084L220.321 90.1347C218.747 89.2259 217.683 88.2311 217.13 87.1504C216.577 86.0697 216.45 84.9644 216.747 83.8345C217.066 82.6924 217.79 81.5503 218.917 80.4081C220.044 79.266 221.501 78.1792 223.288 77.1476ZM228.904 80.3897C226.968 81.5073 225.83 82.5942 225.49 83.6503C225.149 84.6819 225.66 85.5907 227.021 86.3767L229.319 87.703C230.68 88.489 232.265 88.7899 234.073 88.6057C235.881 88.3969 237.753 87.7337 239.688 86.6162L240.709 86.0267C242.624 84.9214 243.762 83.8468 244.123 82.8029C244.464 81.7468 243.953 80.8257 242.592 80.0397L240.295 78.7134C238.933 77.9274 237.349 77.6388 235.541 77.8476C233.711 78.0441 231.839 78.695 229.925 79.8002L228.904 80.3897Z" fill="white"/>
<rect width="51.5801" height="51.5801" rx="9.00604" transform="matrix(0.866025 -0.5 0.866025 0.5 237.291 56.2976)" fill="#858180"/>
<path d="M270.893 49.6631L271.69 49.2026C273.52 48.1464 275.36 47.2929 277.21 46.642C279.082 45.9789 280.911 45.549 282.698 45.3525C284.464 45.1437 286.176 45.1867 287.835 45.4815C289.494 45.7517 291.015 46.2859 292.398 47.0841L292.781 47.3052L286.176 51.1184L285.793 50.8974C284.964 50.443 283.836 50.3079 282.411 50.4921C280.965 50.664 279.263 51.3149 277.306 52.4448L276.508 52.9053C274.615 53.9983 273.552 55.0299 273.318 56.0001C273.084 56.9458 273.626 57.7993 274.945 58.5607L277.465 60.016C278.848 60.8143 280.358 61.1458 281.996 61.0108C283.634 60.8511 285.4 60.2248 287.293 59.1318L288.09 58.6712C290.026 57.5537 291.164 56.5528 291.504 55.6685C291.845 54.7843 291.6 54.1027 290.771 53.6238L290.547 53.4948L297.152 49.6816L297.375 49.8105C298.758 50.6088 299.694 51.493 300.183 52.4632C300.651 53.4211 300.715 54.4282 300.375 55.4843C300.034 56.5159 299.29 57.5844 298.141 58.6897C297.014 59.7827 295.535 60.8572 293.706 61.9134L292.908 62.3739C291.164 63.381 289.345 64.2099 287.452 64.8608C285.538 65.4994 283.645 65.9047 281.773 66.0767C279.88 66.2363 277.997 66.1442 276.125 65.8003C274.275 65.4442 272.52 64.7872 270.861 63.8292L268.34 62.3739C266.681 61.416 265.554 60.409 264.958 59.3528C264.362 58.2721 264.213 57.1914 264.511 56.1106C264.788 55.0176 265.49 53.9246 266.617 52.8316C267.723 51.7263 269.148 50.6702 270.893 49.6631Z" fill="white"/>
<rect width="51.5801" height="51.5801" rx="9.00604" transform="matrix(0.866025 -0.5 0.866025 0.5 94.3968 193.218)" fill="#858180"/>
<rect width="51.5801" height="51.5801" rx="9.00604" transform="matrix(0.866025 -0.5 0.866025 0.5 94.3968 193.218)" fill="#FFB800"/>
<path d="M117.431 193.053L138.936 180.637L144.232 183.695L129.236 192.353L131.789 193.827L139.893 189.148C143.062 187.318 145.849 186.36 148.253 186.274C150.677 186.176 152.932 186.728 155.017 187.932L155.719 188.337C157.803 189.541 158.718 190.83 158.463 192.206C158.229 193.569 156.548 195.153 153.421 196.958L138.808 205.395L117.431 193.053ZM136.766 196.7L140.34 198.764L148.253 194.195C148.976 193.778 149.38 193.397 149.465 193.053C149.55 192.685 149.327 192.347 148.795 192.04L148.476 191.856C147.944 191.549 147.359 191.42 146.721 191.469C146.083 191.493 145.402 191.714 144.679 192.132L136.766 196.7Z" fill="white"/>
<rect width="51.5801" height="51.5801" rx="25.79" transform="matrix(0.866025 -0.5 0.866025 0.5 141.903 165.79)" fill="#A0DF6D"/>
<path d="M170.933 162.163L180.665 156.545L211.232 163.582L204.818 167.284L199.075 165.958L186.982 172.94L189.28 176.256L183.122 179.811L170.933 162.163ZM179.867 162.642L184.111 168.74L191.8 164.3L181.207 161.868L179.867 162.642Z" fill="#10534A"/>
<rect width="51.5801" height="51.5801" rx="9.00604" transform="matrix(0.866025 -0.5 0.866025 0.5 189.408 138.363)" fill="#858180"/>
<path d="M211.772 138.585L218.281 134.827L226.066 139.322L236.979 133.021L229.193 128.527L235.702 124.769L257.08 137.111L250.571 140.869L242.275 136.079L231.363 142.38L239.659 147.169L233.15 150.927L211.772 138.585Z" fill="white"/>
<rect width="51.5801" height="51.5801" rx="9.00604" transform="matrix(0.866025 -0.5 0.866025 0.5 236.914 110.935)" fill="#858180"/>
<path d="M259.234 111.182L265.743 107.424L273.529 111.919L274.422 111.403L275.284 101.916L283.292 97.2926L282.207 109.082L283.26 109.69L304.925 109.488L296.629 114.277L279.751 114.443L278.825 114.977L287.121 119.767L280.612 123.525L259.234 111.182Z" fill="white"/>
<rect width="51.5801" height="51.5801" rx="25.79" transform="matrix(0.866025 -0.5 0.866025 0.5 284.797 83.29)" fill="#A0DF6D"/>
<rect width="51.5801" height="51.5801" rx="9.00604" transform="matrix(0.866025 -0.5 0.866025 0.5 141.526 220.427)" fill="#E7E7E7"/>
<rect width="51.5801" height="51.5801" rx="9.00604" transform="matrix(0.866025 -0.5 0.866025 0.5 189.032 193)" fill="#E7E7E7"/>
<rect width="51.5801" height="51.5801" rx="9.00604" transform="matrix(0.866025 -0.5 0.866025 0.5 236.537 165.573)" fill="#E7E7E7"/>
<rect width="51.5801" height="51.5801" rx="9.00604" transform="matrix(0.866025 -0.5 0.866025 0.5 284.043 138.145)" fill="#E7E7E7"/>
<rect width="51.5801" height="51.5801" rx="9.00604" transform="matrix(0.866025 -0.5 0.866025 0.5 188.655 247.637)" fill="#E7E7E7"/>
<rect width="51.5801" height="51.5801" rx="9.00604" transform="matrix(0.866025 -0.5 0.866025 0.5 236.161 220.21)" fill="#E7E7E7"/>
<rect width="51.5801" height="51.5801" rx="9.00604" transform="matrix(0.866025 -0.5 0.866025 0.5 283.666 192.782)" fill="#E7E7E7"/>
<rect width="51.5801" height="51.5801" rx="9.00604" transform="matrix(0.866025 -0.5 0.866025 0.5 235.784 274.847)" fill="#E7E7E7"/>
<rect width="51.5801" height="51.5801" rx="9.00604" transform="matrix(0.866025 -0.5 0.866025 0.5 283.29 247.42)" fill="#E7E7E7"/>
</g>
</svg>
