<svg width="209" height="152" viewBox="0 0 209 152" fill="none" xmlns="http://www.w3.org/2000/svg">
<path d="M73.0595 113.607L33.7566 74.2662C27.6789 68.1826 17.8248 68.1826 11.7471 74.2662C5.66928 80.3498 5.66928 90.2133 11.7471 96.2969L61.943 146.541C68.0825 152.686 78.0365 152.686 84.176 146.541L203.545 27.0575C209.623 20.9739 209.623 11.1104 203.545 5.02682C197.467 -1.05679 187.613 -1.05679 181.535 5.02682L73.0595 113.607Z" fill="white"/>
<path d="M65.9137 113.607L26.6109 74.2662C20.5331 68.1826 10.6791 68.1826 4.60131 74.2662C-1.47648 80.3498 -1.47648 90.2133 4.60131 96.2969L54.7972 146.541C60.9367 152.686 70.8908 152.686 77.0303 146.541L196.399 27.0575C202.477 20.9739 202.477 11.1104 196.399 5.02682C190.321 -1.05679 180.467 -1.05679 174.39 5.02682L65.9137 113.607Z" fill="#FF3986"/>
</svg>
