<svg width="68" height="68" viewBox="0 0 68 68" fill="none" xmlns="http://www.w3.org/2000/svg">
<path opacity="0.4" d="M56.665 19.9461V48.052C56.665 52.3585 56.2684 55.4184 55.2484 57.6C55.2484 57.6283 55.22 57.685 55.1917 57.7133C54.5684 58.5067 53.7468 58.9033 52.7835 58.9033C51.2819 58.9033 49.4686 57.9117 47.5137 55.8151C45.1904 53.3218 41.6204 53.5201 39.5804 56.2401L36.719 60.0366C35.5857 61.5666 34.084 62.3315 32.5824 62.3315C31.0808 62.3315 29.5791 61.5666 28.4458 60.0366L25.556 56.2117C23.5444 53.5201 20.0027 53.3218 17.6795 55.7867L17.6511 55.8151C14.4495 59.2433 11.6164 59.7533 9.9731 57.7133C9.94477 57.685 9.91638 57.6283 9.91638 57.6C8.89641 55.4184 8.49976 52.3585 8.49976 48.052V19.9461C8.49976 15.6396 8.89641 12.5796 9.91638 10.398C9.91638 10.3697 9.91644 10.3414 9.9731 10.313C11.5881 8.24476 14.4495 8.75475 17.6511 12.183L17.6795 12.2113C20.0027 14.6762 23.5444 14.4779 25.556 11.7863L28.4458 7.96144C29.5791 6.43148 31.0808 5.6665 32.5824 5.6665C34.084 5.6665 35.5857 6.43148 36.719 7.96144L39.5804 11.758C41.6204 14.4779 45.1904 14.6762 47.5137 12.183C49.4686 10.0864 51.2819 9.09474 52.7835 9.09474C53.7468 9.09474 54.5684 9.51973 55.1917 10.313C55.2484 10.3414 55.2484 10.3697 55.2484 10.398C56.2684 12.5796 56.665 15.6396 56.665 19.9461Z" fill="white"/>
<path d="M45.332 31.1658H22.666C21.5044 31.1658 20.5411 30.2025 20.5411 29.0408C20.5411 27.8792 21.5044 26.9159 22.666 26.9159H45.332C46.4937 26.9159 47.457 27.8792 47.457 29.0408C47.457 30.2025 46.4937 31.1658 45.332 31.1658Z" fill="white"/>
<path d="M39.6655 41.0822H22.666C21.5044 41.0822 20.5411 40.1188 20.5411 38.9572C20.5411 37.7956 21.5044 36.8323 22.666 36.8323H39.6655C40.8272 36.8323 41.7905 37.7956 41.7905 38.9572C41.7905 40.1188 40.8272 41.0822 39.6655 41.0822Z" fill="white"/>
</svg>
