<svg width="68" height="68" viewBox="0 0 68 68" fill="none" xmlns="http://www.w3.org/2000/svg">
<path opacity="0.5" d="M5.66666 34C5.66666 20.6436 5.66666 13.9655 9.81466 9.81463C13.9683 5.66663 20.6437 5.66663 34 5.66663C47.3563 5.66663 54.0345 5.66663 58.1825 9.81463C62.3333 13.9683 62.3333 20.6436 62.3333 34C62.3333 47.3563 62.3333 54.0345 58.1825 58.1825C54.0373 62.3333 47.3563 62.3333 34 62.3333C20.6437 62.3333 13.9655 62.3333 9.81466 58.1825C5.66666 54.0373 5.66666 47.3563 5.66666 34Z" fill="white"/>
<path fill-rule="evenodd" clip-rule="evenodd" d="M19.5897 31.875H5.66666V36.125H28.7952C28.3168 38.1421 27.1717 39.9387 25.5453 41.2242C23.9189 42.5097 21.9064 43.2088 19.8333 43.2083C19.2697 43.2083 18.7292 43.4322 18.3307 43.8307C17.9322 44.2292 17.7083 44.7697 17.7083 45.3333C17.7083 45.8969 17.9322 46.4374 18.3307 46.8359C18.7292 47.2344 19.2697 47.4583 19.8333 47.4583C22.3335 47.459 24.7844 46.7633 26.9113 45.4491C29.0382 44.1349 30.757 42.2542 31.875 40.018V62.3333H36.125V40.018C37.243 42.2542 38.9618 44.1349 41.0887 45.4491C43.2156 46.7633 45.6665 47.459 48.1667 47.4583C48.7302 47.4583 49.2707 47.2344 49.6693 46.8359C50.0678 46.4374 50.2917 45.8969 50.2917 45.3333C50.2917 44.7697 50.0678 44.2292 49.6693 43.8307C49.2707 43.4322 48.7302 43.2083 48.1667 43.2083C46.0936 43.2088 44.081 42.5097 42.4546 41.2242C40.8283 39.9387 39.6832 38.1421 39.2048 36.125H62.3333V31.875H48.4132C49.4048 30.634 50.15 29.1691 50.5552 27.5485C52.0795 21.4483 46.5517 15.9233 40.4543 17.4476C38.8741 17.8422 37.3974 18.5728 36.125 19.5896V5.66663H31.875V19.5896C30.6034 18.5732 29.1278 17.8426 27.5485 17.4476C21.4483 15.9233 15.9233 21.4483 17.4477 27.5485C17.8528 29.1691 18.5952 30.634 19.5897 31.875ZM31.875 31.875H28.3248C26.7663 31.8495 25.2597 31.3107 24.0385 30.3421C22.8172 29.3734 21.9497 28.029 21.5702 26.5171C21.3993 25.8334 21.4084 25.1172 21.5966 24.438C21.7848 23.7589 22.1458 23.1401 22.6442 22.642C23.1427 22.1438 23.7617 21.7832 24.4409 21.5954C25.1201 21.4076 25.8364 21.3989 26.52 21.5701C28.0318 21.9496 29.3763 22.8172 30.3449 24.0384C31.3136 25.2596 31.8524 26.7663 31.8778 28.3248L31.875 31.875ZM39.6752 31.875H36.125V28.3475C36.1455 26.785 36.682 25.2732 37.651 24.0474C38.6201 22.8216 39.9673 21.9506 41.4828 21.5701C42.1662 21.3995 42.8822 21.4086 43.561 21.5967C44.2398 21.7848 44.8583 22.1455 45.3564 22.6436C45.8545 23.1416 46.2151 23.7602 46.4032 24.439C46.5913 25.1178 46.6005 25.8337 46.4298 26.5171C46.0503 28.029 45.1827 29.3734 43.9615 30.3421C42.7403 31.3107 41.2337 31.8495 39.6752 31.875Z" fill="white"/>
</svg>
