<svg width="36" height="21" viewBox="0 0 36 21" fill="none" xmlns="http://www.w3.org/2000/svg">
<g opacity="0.6">
<path d="M22.9824 11.1616H27.6134V12.544H22.9824V11.1616ZM28.732 6.59968L33.1557 4.09408H33.5186V16H31.877V6.47872L29.4232 7.8784L28.732 6.59968Z" fill="white"/>
<g clip-path="url(#clip0_11_21240)">
<path d="M14.8698 14.1188C14.8431 13.9227 14.8111 13.735 14.7745 13.5554C14.5246 12.3365 13.9515 11.2052 13.1153 10.2836C13.3646 11.3815 12.6825 12.0829 12.674 12.0806C12.7948 10.7617 12.3548 9.45197 11.4619 8.47416C11.1015 8.08018 10.7341 7.67647 10.3588 7.26302C9.05126 5.82534 7.98925 4.36807 7.0408 3.13899C7.06368 3.74636 6.85806 4.52442 6.04533 5.47584C6.05449 5.47483 6.39324 4.81526 6.51857 3.71305C6.60084 2.99017 6.36843 2.26694 5.88152 1.72647C4.70202 0.419638 3.54339 -0.337903 2.05706 0.148125C0.510096 0.64675 0.0505398 2.30667 0.614474 4.59916C0.771137 5.2369 1.16933 5.78878 1.72484 6.13897C2.98525 6.93272 3.91608 6.84948 3.90761 6.85934C2.68897 7.18631 1.81689 6.89161 1.23464 6.42622C2.00744 8.24771 3.30905 10.2432 5.01338 12.1153C5.63219 12.797 6.28558 13.4106 6.95467 13.955C8.03496 14.8342 9.50298 15.0859 10.8137 14.6136C10.8098 14.6054 10.3992 15.5376 9.09045 15.4386C9.20403 15.5049 9.31698 15.5692 9.42921 15.6316C10.1551 16.033 10.9691 16.2601 11.7974 16.2882C12.4084 16.3091 13.1016 16.2305 13.817 15.9579C13.8451 15.9638 12.1467 17.1185 13.4345 18.6574C13.4365 17.987 14.7772 16.5594 15.2818 16.0138C15.2968 15.9987 14.5775 17.5343 16.5436 18.72C15.7113 17.6995 16.1551 17.0209 16.4508 16.5154C15.2204 15.9919 13.9567 15.3258 12.7681 14.5503C10.4711 13.0633 8.51087 11.1518 7.26084 9.5623C6.62573 8.77377 6.17011 8.06264 5.84964 7.57016C5.53697 7.07111 5.38096 6.77216 5.38026 6.77281C5.38092 6.77216 5.59698 7.03096 5.97755 7.47645C6.35093 7.92657 6.91745 8.54044 7.60941 9.25454C8.99388 10.6838 10.9815 12.4324 13.2119 13.8691C14.3647 14.6237 15.5716 15.3025 16.744 15.8707C16.9254 15.3032 17.195 14.58 18.3373 14.4007C16.4868 13.9324 15.6604 15.2659 15.6565 15.2823C15.7851 14.5467 16.3118 12.6837 16.8151 12.279C15.1962 12.221 14.8509 14.0996 14.8698 14.1188Z" fill="white"/>
</g>
</g>
<defs>
<clipPath id="clip0_11_21240">
<rect width="18.72" height="18.72" fill="white"/>
</clipPath>
</defs>
</svg>
