<svg width="16" height="16" viewBox="0 0 16 16" fill="none" xmlns="http://www.w3.org/2000/svg">
<g clip-path="url(#clip0_6_1326)">
<path d="M12.7093 12.0673C12.6864 11.8997 12.6591 11.7393 12.6278 11.5858C12.4142 10.544 11.9243 9.57711 11.2096 8.78937C11.4228 9.72776 10.8397 10.3272 10.8325 10.3253C10.9357 9.19807 10.5597 8.07861 9.79649 7.24287C9.4885 6.90614 9.17442 6.56109 8.85364 6.20771C7.73613 4.97892 6.82843 3.73339 6.01779 2.6829C6.03734 3.20202 5.8616 3.86703 5.16696 4.6802C5.17479 4.67935 5.46432 4.1156 5.57143 3.17355C5.64175 2.5557 5.44312 1.93756 5.02695 1.47561C4.01883 0.358665 3.02855 -0.288806 1.75818 0.126602C0.43599 0.552778 0.0432069 1.97151 0.525202 3.9309C0.659102 4.47599 0.999435 4.94768 1.47423 5.24699C2.55151 5.92541 3.34708 5.85426 3.33985 5.86268C2.29827 6.14214 1.5529 5.89026 1.05525 5.49249C1.71577 7.04932 2.82826 8.75485 4.28495 10.3549C4.81384 10.9377 5.3723 11.462 5.94417 11.9273C6.8675 12.6788 8.12221 12.8939 9.24246 12.4903C9.23916 12.4833 8.88819 13.28 7.76963 13.1954C7.8667 13.252 7.96324 13.307 8.05916 13.3603C8.67958 13.7034 9.37531 13.8976 10.0833 13.9215C10.6055 13.9394 11.198 13.8722 11.8094 13.6393C11.8334 13.6443 10.3818 14.6312 11.4825 15.9465C11.4842 15.3735 12.6301 14.1534 13.0614 13.687C13.0742 13.6741 12.4594 14.9866 14.1398 16C13.4285 15.1278 13.8078 14.5478 14.0606 14.1157C13.0089 13.6683 11.9288 13.0989 10.9129 12.4361C8.94963 11.1652 7.27425 9.53143 6.20586 8.17291C5.66302 7.49895 5.27361 6.89115 4.9997 6.47022C4.73246 6.04368 4.59912 5.78817 4.59853 5.78873C4.59909 5.78817 4.78375 6.00937 5.10903 6.39013C5.42815 6.77485 5.91236 7.29952 6.50378 7.90987C7.68709 9.13142 9.38591 10.626 11.2923 11.8539C12.2775 12.4989 13.3091 13.0791 14.3111 13.5647C14.4662 13.0796 14.6966 12.4615 15.6729 12.3083C14.0913 11.908 13.385 13.0478 13.3816 13.0618C13.4915 12.433 13.9418 10.8407 14.3719 10.4949C12.9882 10.4453 12.6931 12.0509 12.7093 12.0673Z" fill="#00923A"/>
</g>
<defs>
<clipPath id="clip0_6_1326">
<rect width="16" height="16" fill="white"/>
</clipPath>
</defs>
</svg>
