<svg width="43" height="44" viewBox="0 0 43 44" fill="none" xmlns="http://www.w3.org/2000/svg">
<path d="M21.2497 0.987061C9.53255 0.987061 0 10.4581 0 22.0996C0 33.7411 9.53255 43.2122 21.2497 43.2122C32.9668 43.2122 42.4994 33.7411 42.4994 22.0996C42.4994 10.4581 32.9668 0.987061 21.2497 0.987061Z" fill="white"/>
<path d="M32.9779 7.65142C30.3839 14.3486 23.4948 13.4804 18.6392 13.6469L17.4604 18.2145C23.4509 13.363 31.3759 18.1736 30.5295 25.4959C29.9579 30.4267 26.4186 33.6537 22.6759 34.582C18.598 35.5922 14.0777 34.0796 12.0497 29.9516C11.8354 29.5148 11.4617 28.6411 11.3188 28.1742L15.622 27.0767C15.6962 27.3224 15.8254 27.56 15.9628 27.7784C18.8426 32.3924 24.6792 30.0854 25.3359 25.2994C26.0064 20.4287 19.1284 17.835 15.993 23.5275L12.1789 21.9112L12.1129 21.8839L13.5336 16.2215C13.7589 15.214 14.4349 12.5849 14.5146 12.331C14.6355 11.9378 14.663 11.8068 14.7977 11.4491C17.2433 5.06593 22.0742 4.42161 26.3692 4.42161C26.5395 4.42161 26.7099 4.42161 26.8803 4.42707C25.1298 3.88649 23.2668 3.59436 21.3377 3.59436C11.0495 3.5889 2.70679 11.875 2.70679 22.0996C2.70679 32.3241 11.0495 40.6103 21.3377 40.6103C31.6259 40.6103 39.9686 32.3214 39.9686 22.0996C39.9686 16.2542 37.2372 11.045 32.9779 7.65142Z" fill="#E51E1E"/>
<path d="M31.2823 6.40092C30.5596 8.63149 29.3011 10.0321 27.3528 10.7856C25.3276 11.5692 22.8599 11.591 20.4747 11.6101C19.1915 11.621 17.9631 11.6292 16.8392 11.763C18.8645 6.90601 22.4972 6.4255 26.3718 6.4255C26.9104 6.4255 27.4517 6.43642 27.9738 6.44734C28.4959 6.45826 28.9906 6.46645 29.4824 6.46645C30.1886 6.46645 30.7685 6.44461 31.2823 6.39819" fill="#009138"/>
</svg>
