<svg width="30" height="30" viewBox="0 0 30 30" fill="none" xmlns="http://www.w3.org/2000/svg">
<g filter="url(#filter0_b_125_8278)">
<circle cx="15" cy="15" r="15" transform="matrix(-1 0 0 1 30 0)" fill="white" fill-opacity="0.2"/>
</g>
<path d="M14.5 19.5H15.5V14H14.5V19.5ZM15 12.577C15.1747 12.577 15.321 12.518 15.439 12.4C15.557 12.282 15.6157 12.1357 15.615 11.961C15.6143 11.7863 15.5553 11.6403 15.438 11.523C15.3207 11.4057 15.1747 11.3467 15 11.346C14.8253 11.3453 14.6793 11.4043 14.562 11.523C14.4447 11.6417 14.3857 11.788 14.385 11.962C14.3843 12.136 14.4433 12.282 14.562 12.4C14.6807 12.518 14.8267 12.577 15 12.577ZM15.003 24C13.7583 24 12.5883 23.764 11.493 23.292C10.3977 22.8193 9.44467 22.178 8.634 21.368C7.82333 20.558 7.18167 19.606 6.709 18.512C6.23633 17.418 6 16.2483 6 15.003C6 13.7577 6.23633 12.5877 6.709 11.493C7.181 10.3977 7.82133 9.44467 8.63 8.634C9.43867 7.82333 10.391 7.18167 11.487 6.709C12.583 6.23633 13.753 6 14.997 6C16.241 6 17.411 6.23633 18.507 6.709C19.6023 7.181 20.5553 7.82167 21.366 8.631C22.1767 9.44033 22.8183 10.3927 23.291 11.488C23.7637 12.5833 24 13.753 24 14.997C24 16.241 23.764 17.411 23.292 18.507C22.82 19.603 22.1787 20.556 21.368 21.366C20.5573 22.176 19.6053 22.8177 18.512 23.291C17.4187 23.7643 16.249 24.0007 15.003 24ZM15 23C17.2333 23 19.125 22.225 20.675 20.675C22.225 19.125 23 17.2333 23 15C23 12.7667 22.225 10.875 20.675 9.325C19.125 7.775 17.2333 7 15 7C12.7667 7 10.875 7.775 9.325 9.325C7.775 10.875 7 12.7667 7 15C7 17.2333 7.775 19.125 9.325 20.675C10.875 22.225 12.7667 23 15 23Z" fill="white"/>
<defs>
<filter id="filter0_b_125_8278" x="-9.1" y="-9.1" width="48.2" height="48.2" filterUnits="userSpaceOnUse" color-interpolation-filters="sRGB">
<feFlood flood-opacity="0" result="BackgroundImageFix"/>
<feGaussianBlur in="BackgroundImageFix" stdDeviation="4.55"/>
<feComposite in2="SourceAlpha" operator="in" result="effect1_backgroundBlur_125_8278"/>
<feBlend mode="normal" in="SourceGraphic" in2="effect1_backgroundBlur_125_8278" result="shape"/>
</filter>
</defs>
</svg>
