<svg width="44" height="44" viewBox="0 0 44 44" fill="none" xmlns="http://www.w3.org/2000/svg">
<circle cx="22.5" cy="22.5" r="17.5" fill="white"/>
<mask id="mask0_315_8039" style="mask-type:luminance" maskUnits="userSpaceOnUse" x="1" y="1" width="42" height="42">
<path d="M22 40.3333C24.408 40.3363 26.7928 39.8634 29.0175 38.9419C31.2422 38.0204 33.2629 36.6683 34.9635 34.9635C36.6683 33.2629 38.0204 31.2422 38.9419 29.0175C39.8634 26.7928 40.3363 24.408 40.3333 22C40.3363 19.592 39.8634 17.2071 38.9419 14.9824C38.0204 12.7577 36.6683 10.737 34.9635 9.03647C33.2629 7.33162 31.2422 5.97959 29.0175 5.05806C26.7928 4.13653 24.408 3.66367 22 3.66664C19.592 3.66367 17.2071 4.13653 14.9824 5.05806C12.7577 5.97959 10.737 7.33162 9.03647 9.03647C7.33162 10.737 5.97959 12.7577 5.05806 14.9824C4.13653 17.2071 3.66367 19.592 3.66664 22C3.66367 24.408 4.13653 26.7928 5.05806 29.0175C5.97959 31.2422 7.33162 33.2629 9.03647 34.9635C10.737 36.6683 12.7577 38.0204 14.9824 38.9419C17.2071 39.8634 19.592 40.3363 22 40.3333Z" fill="white" stroke="white" stroke-width="4" stroke-linejoin="round"/>
<path d="M14.6666 22L20.1666 27.5L31.1666 16.5" stroke="black" stroke-width="4" stroke-linecap="round" stroke-linejoin="round"/>
</mask>
<g mask="url(#mask0_315_8039)">
<path d="M0 0H44V44H0V0Z" fill="#00923A"/>
</g>
</svg>
