<svg width="44" height="44" viewBox="0 0 44 44" fill="none" xmlns="http://www.w3.org/2000/svg">
<path opacity="0.5" d="M3.66663 29.3333C3.66663 24.1486 3.66663 21.5545 5.27813 19.9448C6.88779 18.3333 9.48196 18.3333 14.6666 18.3333H29.3333C34.518 18.3333 37.1121 18.3333 38.7218 19.9448C40.3333 21.5545 40.3333 24.1486 40.3333 29.3333C40.3333 34.518 40.3333 37.1121 38.7218 38.7218C37.1121 40.3333 34.518 40.3333 29.3333 40.3333H14.6666C9.48196 40.3333 6.88779 40.3333 5.27813 38.7218C3.66663 37.1121 3.66663 34.518 3.66663 29.3333Z" fill="#00923A"/>
<path d="M12.375 14.6667C12.375 12.114 13.3891 9.66582 15.1941 7.86078C16.9991 6.05575 19.4473 5.04169 22 5.04169C24.5527 5.04169 27.0009 6.05575 28.8059 7.86078C30.6109 9.66582 31.625 12.114 31.625 14.6667V18.3407C32.6645 18.3499 33.5757 18.3737 34.375 18.4324V14.6667C34.375 11.3846 33.0712 8.237 30.7504 5.91624C28.4297 3.59548 25.2821 2.29169 22 2.29169C18.7179 2.29169 15.5703 3.59548 13.2496 5.91624C10.9288 8.237 9.625 11.3846 9.625 14.6667V18.4342C10.5405 18.3744 11.4576 18.3432 12.375 18.3407V14.6667Z" fill="#00923A"/>
</svg>
