<svg width="48" height="48" viewBox="0 0 48 48" fill="none" xmlns="http://www.w3.org/2000/svg">
<path opacity="0.12" d="M24 36C30.6274 36 36 30.6274 36 24C36 17.3726 30.6274 12 24 12C17.3726 12 12 17.3726 12 24C12 30.6274 17.3726 36 24 36Z" fill="#818C99"/>
<path d="M28.7364 19.2636C29.0879 19.6151 29.0879 20.1849 28.7364 20.5364L25.273 24L28.7364 27.4636C29.0586 27.7858 29.0854 28.2915 28.817 28.6442L28.7364 28.7364C28.3849 29.0879 27.8151 29.0879 27.4636 28.7364L24 25.273L20.5364 28.7364C20.1849 29.0879 19.6151 29.0879 19.2636 28.7364C18.9121 28.3849 18.9121 27.8151 19.2636 27.4636L22.727 24L19.2636 20.5364C18.9414 20.2142 18.9146 19.7085 19.1831 19.3558L19.2636 19.2636C19.6151 18.9121 20.1849 18.9121 20.5364 19.2636L24 22.727L27.4636 19.2636C27.8151 18.9121 28.3849 18.9121 28.7364 19.2636Z" fill="#818C99"/>
</svg>
