<svg width="14" height="15" viewBox="0 0 14 15" fill="none" xmlns="http://www.w3.org/2000/svg">
<path d="M2.80308 6.6736V13.4272C2.54328 13.2524 2.29562 13.0602 2.0618 12.8519C0.784296 11.7131 0.0583191 10.2113 0.00363159 8.60448V6.9037C0.0139033 6.8395 0.0467112 6.78107 0.0961702 6.73887C0.145629 6.69668 0.208503 6.67349 0.273514 6.67346L2.80308 6.6736Z" fill="#FFEA2C"/>
<path d="M13.9999 6.94702V8.408C13.9999 10.0885 13.2676 11.6668 11.9381 12.8519C11.7055 13.0591 11.4591 13.2504 11.2007 13.4245V6.67358H13.7264C13.7989 6.67358 13.8685 6.70239 13.9198 6.75367C13.9711 6.80495 13.9999 6.8745 13.9999 6.94702Z" fill="url(#paint0_linear_6_1000)"/>
<path d="M5.60213 6.67358V14.553C4.60115 14.3757 3.64793 13.9923 2.80295 13.4272V6.67358H5.60213Z" fill="#FFC229"/>
<path d="M8.40123 6.67358V14.5524C7.47561 14.7188 6.52774 14.719 5.60205 14.553V6.67358H8.40123Z" fill="#FFEA2C"/>
<path d="M11.2008 6.67358V13.4245C10.356 13.9905 9.40264 14.3746 8.40137 14.5524V6.67358H11.2008Z" fill="#FFC229"/>
<path opacity="0.51" d="M13.7266 6.67358H0.273514C0.208503 6.67361 0.145629 6.6968 0.0961702 6.739C0.0467112 6.78119 0.0139033 6.83962 0.00363159 6.90382V8.6046C0.0583191 10.2113 0.784296 11.713 2.0618 12.8519C2.29562 13.0602 2.54328 13.2524 2.80308 13.4272C3.64807 13.9923 4.60129 14.3757 5.60226 14.553C6.52795 14.719 7.47582 14.7188 8.40144 14.5524C9.40272 14.3746 10.3561 13.9905 11.2009 13.4245C11.4593 13.2504 11.7057 13.0591 11.9384 12.8519C13.2678 11.6668 14.0001 10.0885 14.0001 8.408V6.94702C14.0001 6.8745 13.9713 6.80495 13.92 6.75367C13.8687 6.70239 13.7992 6.67358 13.7266 6.67358Z" fill="#DB4D0F"/>
<path d="M14 6.94705C13.9999 7.30574 13.966 7.66362 13.8986 8.01592C13.8983 8.01783 13.8977 8.01974 13.8975 8.02166C13.6194 9.46431 12.7758 10.7826 11.5218 11.7333C10.261 12.6898 8.65512 13.2164 7 13.2164C5.34488 13.2164 3.73898 12.6898 2.47816 11.7333C1.22418 10.7826 0.380625 9.46431 0.102539 8.02166C0.102043 8.01977 0.101677 8.01785 0.101445 8.01592C0.0340516 7.66362 8.56799e-05 7.30574 0 6.94705C0 5.2665 0.732266 3.68822 2.06172 2.50314C3.38242 1.32599 5.13625 0.677673 7 0.677673C8.86375 0.677673 10.6176 1.32599 11.9383 2.50314C13.2677 3.68822 14 5.2665 14 6.94705Z" fill="url(#paint1_linear_6_1000)"/>
<path d="M12.6188 6.94706C12.6186 7.21706 12.5929 7.48645 12.5419 7.75159C12.5411 7.75733 12.5403 7.76195 12.5391 7.76688C12.3248 8.86268 11.6694 9.87423 10.6941 10.6141C9.67064 11.3903 8.35883 11.8177 7.00012 11.8177C5.64141 11.8177 4.32959 11.3903 3.30598 10.6143C2.33071 9.87437 1.67509 8.86254 1.46071 7.76564C1.46016 7.76346 1.45989 7.76127 1.45934 7.75911C1.4588 7.75695 1.45852 7.75419 1.45828 7.752C1.4072 7.48678 1.38156 7.21729 1.38171 6.94719C1.38171 5.67139 1.9517 4.4632 2.98616 3.54563C4.05468 2.5982 5.48021 2.07648 7.00012 2.07648C8.52002 2.07648 9.94528 2.5982 11.0138 3.54536C12.0488 4.46334 12.6188 5.67125 12.6188 6.94706Z" fill="url(#paint2_linear_6_1000)"/>
<path d="M7.00022 12.1838C5.53932 12.1838 4.12877 11.7242 3.0284 10.8898C1.97977 10.0942 1.27498 9.00643 1.04426 7.82695C1.04382 7.8246 1.04335 7.82222 1.04297 7.81984C1.04259 7.81746 1.04201 7.81487 1.0416 7.81263C0.986874 7.52735 0.959343 7.23751 0.959381 6.94703C0.959381 5.57525 1.57205 4.27637 2.6845 3.28964C3.8334 2.27114 5.36605 1.71027 7.00022 1.71027C8.63439 1.71027 10.1666 2.27114 11.3156 3.28959C12.4283 4.2767 13.0409 5.57552 13.0409 6.94703C13.0408 7.23732 13.0132 7.52694 12.9585 7.81202C12.9574 7.81823 12.9565 7.82334 12.9555 7.82843C12.725 9.00654 12.0203 10.0942 10.9717 10.8898C9.87137 11.7244 8.46092 12.1838 7.00022 12.1838ZM1.6205 7.7178C1.82424 8.75445 2.45 9.7149 3.3828 10.4226C4.38178 11.18 5.6665 11.5974 7.00022 11.5974C8.33394 11.5974 9.61835 11.1803 10.6174 10.4226C11.5507 9.71449 12.1767 8.75333 12.38 7.71613C12.381 7.71011 12.3819 7.70519 12.3829 7.70011C12.4305 7.4519 12.4545 7.19976 12.4546 6.94703C12.4546 5.74552 11.9119 4.60244 10.9265 3.72837C9.88509 2.80516 8.4907 2.29671 7.00022 2.29671C5.50974 2.29671 4.11504 2.8053 3.07365 3.72843C2.08843 4.60225 1.54582 5.74533 1.54582 6.94703C1.54577 7.20096 1.56988 7.45431 1.61785 7.70366C1.61812 7.70508 1.61839 7.7064 1.61864 7.70795C1.61932 7.71134 1.61992 7.71463 1.6205 7.7178Z" fill="url(#paint3_linear_6_1000)"/>
<defs>
<linearGradient id="paint0_linear_6_1000" x1="12.6003" y1="7.83736" x2="12.6003" y2="-0.504068" gradientUnits="userSpaceOnUse">
<stop stop-color="#F67E00"/>
<stop offset="0.186" stop-color="#F79F00"/>
<stop offset="0.39" stop-color="#F9BB00"/>
<stop offset="0.594" stop-color="#F9CF00"/>
<stop offset="0.798" stop-color="#FADB00"/>
<stop offset="1" stop-color="#FADF00"/>
</linearGradient>
<linearGradient id="paint1_linear_6_1000" x1="13.9583" y1="6.94705" x2="0.207594" y2="6.94705" gradientUnits="userSpaceOnUse">
<stop stop-color="#F67E00"/>
<stop offset="0.186" stop-color="#F79F00"/>
<stop offset="0.39" stop-color="#F9BB00"/>
<stop offset="0.594" stop-color="#F9CF00"/>
<stop offset="0.798" stop-color="#FADB00"/>
<stop offset="1" stop-color="#FADF00"/>
</linearGradient>
<linearGradient id="paint2_linear_6_1000" x1="12.3618" y1="6.94706" x2="-19.2982" y2="6.94706" gradientUnits="userSpaceOnUse">
<stop stop-color="#F67E00"/>
<stop offset="0.186" stop-color="#F79F00"/>
<stop offset="0.39" stop-color="#F9BB00"/>
<stop offset="0.594" stop-color="#F9CF00"/>
<stop offset="0.798" stop-color="#FADB00"/>
<stop offset="1" stop-color="#FADF00"/>
</linearGradient>
<linearGradient id="paint3_linear_6_1000" x1="1.48091" y1="6.94703" x2="12.4625" y2="6.94703" gradientUnits="userSpaceOnUse">
<stop stop-color="#FFF033"/>
<stop offset="1" stop-color="#FFC229"/>
</linearGradient>
</defs>
</svg>
