<svg width="27" height="27" viewBox="0 0 27 27" fill="none" xmlns="http://www.w3.org/2000/svg">
<g clip-path="url(#clip0_42_5301)">
<path d="M21.4468 20.3636C21.4083 20.0808 21.3621 19.8101 21.3094 19.5511C20.9488 17.793 20.1223 16.1614 18.9162 14.8321C19.2758 16.4156 18.292 17.4272 18.2798 17.4239C18.4539 15.5217 17.8194 13.6327 16.5315 12.2223C16.0118 11.6541 15.4818 11.0718 14.9405 10.4755C13.0547 8.40193 11.5229 6.3001 10.155 4.52739C10.188 5.4034 9.89138 6.52561 8.71918 7.89785C8.73239 7.8964 9.22098 6.94508 9.40174 5.35536C9.5204 4.31275 9.1852 3.26963 8.48291 2.4901C6.78172 0.605248 5.11062 -0.48736 2.96687 0.213641C0.735672 0.932813 0.0728506 3.32693 0.886217 6.6334C1.11217 7.55323 1.68649 8.3492 2.4877 8.85429C4.30561 9.99912 5.64814 9.87906 5.63594 9.89328C3.87828 10.3649 2.62047 9.93982 1.78068 9.26858C2.8953 11.8957 4.77263 14.7738 7.23079 17.4739C8.1233 18.4573 9.0657 19.3422 10.0307 20.1274C11.5888 21.3955 13.7062 21.7585 15.5966 21.0774C15.591 21.0655 14.9988 22.41 13.1112 22.2673C13.275 22.3628 13.4379 22.4556 13.5998 22.5455C14.6467 23.1245 15.8208 23.4521 17.0154 23.4926C17.8967 23.5228 18.8965 23.4093 19.9283 23.0163C19.9688 23.0247 17.5192 24.6902 19.3766 26.9097C19.3795 25.9428 21.3132 23.8838 22.041 23.0968C22.0627 23.0751 21.0251 25.2899 23.8609 27C22.6605 25.5281 23.3006 24.5494 23.7271 23.8203C21.9525 23.0652 20.1298 22.1045 18.4155 20.986C15.1024 18.8413 12.2752 16.0843 10.4723 13.7918C9.55629 12.6545 8.89916 11.6288 8.43693 10.9185C7.98596 10.1987 7.76096 9.76754 7.75995 9.76848C7.7609 9.76754 8.07252 10.1408 8.62142 10.7833C9.15995 11.4326 9.97705 12.3179 10.9751 13.3479C12.9719 15.4093 15.8387 17.9314 19.0556 20.0035C20.7182 21.0919 22.459 22.071 24.1499 22.8905C24.4116 22.0719 24.8005 21.0288 26.448 20.7703C23.779 20.0948 22.5871 22.0182 22.5814 22.0417C22.7669 20.9808 23.5267 18.2938 24.2525 17.7101C21.9176 17.6264 21.4196 20.3359 21.4468 20.3636Z" fill="white"/>
</g>
<defs>
<clipPath id="clip0_42_5301">
<rect width="27" height="27" fill="white"/>
</clipPath>
</defs>
</svg>
