<svg width="27" height="27" viewBox="0 0 27 27" fill="none" xmlns="http://www.w3.org/2000/svg">
<path opacity="0.4" d="M22.4999 7.92024V19.0802C22.4999 20.7902 22.3424 22.0052 21.9374 22.8715C21.9374 22.8827 21.9261 22.9052 21.9149 22.9165C21.6674 23.2315 21.3411 23.389 20.9586 23.389C20.3624 23.389 19.6424 22.9952 18.8661 22.1627C17.9437 21.1727 16.5261 21.2515 15.7161 22.3315L14.5799 23.839C14.1299 24.4465 13.5336 24.7502 12.9374 24.7502C12.3411 24.7502 11.7449 24.4465 11.2949 23.839L10.1474 22.3202C9.34865 21.2515 7.94237 21.1727 7.01987 22.1515L7.00861 22.1627C5.73736 23.524 4.6124 23.7265 3.9599 22.9165C3.94865 22.9052 3.93738 22.8827 3.93738 22.8715C3.53238 22.0052 3.37488 20.7902 3.37488 19.0802V7.92024C3.37488 6.21024 3.53238 4.99524 3.93738 4.12899C3.93738 4.11774 3.9374 4.10649 3.9599 4.09524C4.60115 3.27399 5.73736 3.47649 7.00861 4.83774L7.01987 4.84899C7.94237 5.82774 9.34865 5.74899 10.1474 4.68024L11.2949 3.16149C11.7449 2.55399 12.3411 2.25024 12.9374 2.25024C13.5336 2.25024 14.1299 2.55399 14.5799 3.16149L15.7161 4.66899C16.5261 5.74899 17.9437 5.82774 18.8661 4.83774C19.6424 4.00524 20.3624 3.61149 20.9586 3.61149C21.3411 3.61149 21.6674 3.78024 21.9149 4.09524C21.9374 4.10649 21.9374 4.11774 21.9374 4.12899C22.3424 4.99524 22.4999 6.21024 22.4999 7.92024Z" fill="white"/>
<path d="M18.0001 12.3752H9.00012C8.53887 12.3752 8.15637 11.9927 8.15637 11.5315C8.15637 11.0702 8.53887 10.6877 9.00012 10.6877H18.0001C18.4614 10.6877 18.8439 11.0702 18.8439 11.5315C18.8439 11.9927 18.4614 12.3752 18.0001 12.3752Z" fill="white"/>
<path d="M15.7501 16.3123H9.00012C8.53887 16.3123 8.15637 15.9298 8.15637 15.4685C8.15637 15.0073 8.53887 14.6248 9.00012 14.6248H15.7501C16.2114 14.6248 16.5939 15.0073 16.5939 15.4685C16.5939 15.9298 16.2114 16.3123 15.7501 16.3123Z" fill="white"/>
</svg>
