<svg width="172" height="166" viewBox="0 0 172 166" fill="none" xmlns="http://www.w3.org/2000/svg">
<path fill-rule="evenodd" clip-rule="evenodd" d="M171.452 155.339C171.084 156.117 170.563 156.727 169.885 157.182C169.207 157.637 168.392 157.933 167.44 158.064C166.488 158.195 165.424 158.111 164.252 157.784C163.498 157.573 162.741 157.365 161.984 157.16C161.921 159.479 161.858 161.798 161.794 164.117C159.811 163.805 157.822 163.505 155.828 163.218C156.146 154.119 156.464 145.02 156.782 135.922C159.414 137.297 162.01 138.755 164.567 140.294C165.707 140.98 166.725 141.839 167.63 142.826C168.535 143.814 169.31 144.867 169.96 145.968C170.609 147.071 171.111 148.185 171.466 149.316C171.82 150.449 172 151.536 172 152.61C172 153.663 171.819 154.561 171.452 155.339ZM165.829 147.704C165.435 146.98 164.874 146.428 164.14 146.07C163.532 145.774 162.922 145.481 162.31 145.192C162.257 147.137 162.204 149.082 162.151 151.027C162.771 151.257 163.389 151.491 164.006 151.728C164.75 152.013 165.332 151.969 165.751 151.609C166.17 151.248 166.385 150.707 166.399 149.965C166.413 149.177 166.223 148.428 165.829 147.704ZM145.386 138.476C145.334 139.757 145.283 141.038 145.231 142.319C147.541 143.03 149.836 143.784 152.113 144.581C152.025 146.889 151.936 149.198 151.848 151.506C149.555 150.896 147.248 150.319 144.93 149.774C144.874 151.164 144.818 152.553 144.762 153.942C147.515 154.477 150.254 155.05 152.977 155.662C152.888 158.034 152.799 160.407 152.71 162.78C147.965 162.129 143.192 161.549 138.395 161.038C138.831 150.13 139.267 139.221 139.703 128.313C144.45 130.084 149.117 132.096 153.684 134.348C153.595 136.724 153.506 139.099 153.417 141.474C150.766 140.409 148.088 139.41 145.386 138.476ZM136.382 160.828C133.985 160.583 131.584 160.356 129.177 160.145C127.4 155.246 125.612 150.185 123.805 144.999C123.643 149.889 123.48 154.779 123.318 159.669C121.279 159.515 119.237 159.374 117.192 159.245C117.55 146.848 117.909 134.451 118.268 122.054C120.36 122.503 122.444 122.996 124.518 123.533C124.361 128.261 124.204 132.989 124.047 137.718C126.222 133.368 128.404 129.195 130.583 125.235C132.844 125.92 135.092 126.657 137.323 127.448C134.72 131.857 132.097 136.614 129.476 141.657C131.797 148.316 134.092 154.731 136.382 160.828ZM107.632 158.734C107.902 145.912 108.172 133.091 108.442 120.269C110.558 120.584 112.667 120.942 114.769 121.343C114.439 133.909 114.109 146.476 113.779 159.042C111.732 158.927 109.683 158.824 107.632 158.734ZM105.924 150.404C105.522 152.035 104.958 153.451 104.232 154.654C103.505 155.858 102.634 156.791 101.616 157.456C100.598 158.121 99.451 158.439 98.1722 158.406C95.2888 158.333 92.4035 158.285 89.5175 158.261C89.5722 145.047 89.627 131.832 89.6817 118.618C91.8177 118.678 93.9526 118.781 96.0847 118.927C96.0455 122.811 96.0063 126.694 95.9671 130.578C96.8604 130.627 97.7534 130.682 98.6458 130.743C99.9362 130.832 101.081 131.275 102.078 132.059C103.075 132.843 103.916 133.88 104.599 135.161C105.282 136.442 105.793 137.927 106.133 139.613C106.473 141.301 106.623 143.102 106.585 145.022C106.546 146.981 106.324 148.773 105.924 150.404ZM99.755 141.655C99.3193 140.81 98.6955 140.364 97.8854 140.322C97.2137 140.288 96.5418 140.256 95.8697 140.227C95.8412 143.051 95.8127 145.876 95.7842 148.7C96.451 148.722 97.1177 148.746 97.7842 148.771C98.588 148.803 99.2172 148.419 99.6732 147.621C100.129 146.823 100.366 145.823 100.384 144.615C100.4 143.486 100.191 142.499 99.755 141.655ZM79.9459 158.271C79.8947 148.376 79.8434 138.482 79.7922 128.587C78.1081 128.636 76.4249 128.707 74.743 128.801C74.697 132.867 74.6519 136.932 74.6079 140.995C74.5746 144.018 74.4365 146.652 74.1959 148.895C73.9547 151.138 73.585 153.012 73.0869 154.513C72.5883 156.016 71.9302 157.139 71.1117 157.884C70.2926 158.629 69.2877 159.017 68.0939 159.056C67.7586 159.067 67.3913 159.04 66.9924 158.977C66.593 158.913 66.2554 158.79 65.9799 158.608C65.913 154.962 65.8461 151.315 65.7792 147.669C65.8861 147.74 66.0301 147.798 66.2109 147.845C66.3913 147.891 66.5663 147.91 66.7358 147.9C67.4755 147.855 68.0167 147.312 68.3607 146.262C68.7042 145.214 68.8977 143.306 68.9406 140.541C68.9543 140.073 68.9695 139.304 68.9851 138.232C69.0008 137.161 69.014 135.924 69.0248 134.522C69.0356 133.12 69.0455 131.651 69.0545 130.111C69.0635 128.573 69.0734 127.093 69.0844 125.67C69.0954 124.247 69.1033 122.98 69.1085 121.87C69.1132 120.759 69.1121 119.932 69.1039 119.386C74.756 118.804 80.4375 118.528 86.1173 118.559C86.1067 131.787 86.0961 145.015 86.0856 158.244C84.0389 158.241 81.9923 158.25 79.9459 158.271ZM63.4992 144.019C62.7931 145.307 61.9415 146.342 60.9441 147.13C59.9467 147.919 58.8275 148.361 57.5854 148.474C56.7853 148.546 55.9856 148.622 55.1866 148.701C55.2813 152.172 55.3759 155.644 55.4706 159.115C53.4245 159.236 51.3806 159.368 49.3396 159.513C48.9523 147.339 48.5651 135.165 48.1778 122.99C51.0337 122.295 53.9076 121.682 56.7953 121.15C58.0835 120.913 59.2594 121.064 60.3198 121.603C61.3799 122.144 62.3003 122.99 63.0795 124.137C63.8582 125.284 64.4679 126.697 64.9084 128.365C65.3484 130.035 65.5861 131.878 65.6227 133.885C65.6586 135.853 65.4888 137.716 65.117 139.464C64.7447 141.214 64.2052 142.732 63.4992 144.019ZM59.3789 134.578C59.3485 133.288 59.0993 132.245 58.6306 131.456C58.1619 130.667 57.5212 130.335 56.711 130.461C56.0393 130.565 55.3683 130.672 54.6979 130.784C54.7773 133.695 54.8568 136.607 54.9361 139.518C55.6026 139.429 56.2696 139.343 56.9371 139.26C57.7422 139.161 58.3574 138.663 58.7829 137.758C59.2083 136.853 59.4076 135.792 59.3789 134.578ZM39.2905 154.563C38.8353 156.055 38.3051 157.31 37.6998 158.331C37.094 159.353 36.3658 160.128 35.5151 160.666C34.6643 161.204 33.6193 161.527 32.3812 161.651C31.4937 161.741 30.8203 161.73 30.3609 161.619C30.111 161.582 29.9117 161.523 29.764 161.444C29.6571 158.794 29.5502 156.144 29.4433 153.493C29.5063 153.514 29.7144 153.549 30.0689 153.6C30.4231 153.651 30.8475 153.635 31.3419 153.551C31.8363 153.467 32.2754 153.292 32.6594 153.022C33.0429 152.752 33.4009 152.348 33.7333 151.807C30.9879 144.155 28.2529 136.984 25.5633 130.391C27.6724 129.513 29.7993 128.684 31.9417 127.903C33.5292 132.091 35.1247 136.455 36.7218 140.977C37.8328 135.83 38.9498 130.565 40.077 125.197C42.0776 124.593 44.0894 124.03 46.1108 123.508C44.2479 132.352 42.421 140.971 40.6143 149.297C40.1865 151.319 39.7452 153.072 39.2905 154.563ZM18.1708 146.015C17.0265 152.013 15.8649 157.757 14.6753 163.222C13.0167 163.461 11.3619 163.709 9.71119 163.965C8.20294 159.279 6.73724 154.905 5.32658 150.867C5.42374 155.451 5.5209 160.035 5.61813 164.619C3.78262 164.921 1.95239 165.233 0.127883 165.556C0.0852551 158.399 0.0426276 151.242 0 144.084C2.55535 142.373 5.15637 140.748 7.79839 139.209C9.30419 143.526 10.8685 148.216 12.4769 153.248C13.7156 147.375 14.9221 141.188 16.109 134.716C18.5745 133.483 21.0696 132.32 23.5912 131.228C24.0019 141.443 24.4126 151.658 24.8234 161.873C22.8121 162.119 20.8054 162.376 18.8037 162.646C18.5928 157.103 18.3818 151.559 18.1708 146.015Z" fill="white"/>
<g filter="url(#filter0_d_5_383)">
<path d="M123.851 95.6197L123.852 95.6241C124.472 98.6155 124.035 101.614 121.952 103.981C120.166 106.024 117.686 107.217 115.461 107.926C115.461 107.926 115.46 107.926 115.459 107.926L114.184 103.921C110.502 105.095 106.523 105.182 103.088 104.88L123.851 95.6197ZM123.851 95.6197C122.941 91.2518 119.741 86.6446 117.795 84.2748L117.794 84.273M123.851 95.6197L117.794 84.273M117.794 84.273C117.04 83.3558 116.286 82.4902 115.526 81.664C118.398 81.3048 121.17 79.9365 123.274 77.9034L120.352 74.8812L123.274 77.9034C126.166 75.1072 127.987 71.7141 129.158 68.2744L129.161 68.2672L129.163 68.26C130.29 64.9133 131.044 60.4748 130.056 55.7975C129.563 53.4378 128.453 50.819 127.352 48.9578L127.35 48.9551C125.43 45.7138 122.572 42.923 118.749 42.2254C114.754 41.4962 111.071 43.2845 108.151 46.3273L108.149 46.3301C107.135 47.3882 106.091 48.92 105.258 50.2802C104.394 51.6896 103.558 53.2414 103.01 54.504L103.01 54.5042C101.489 58.0068 99.94 62.4867 101.107 68.0882L101.107 68.089C101.232 68.6876 101.377 69.2974 101.544 69.9108C101.265 69.7255 101.013 69.5608 100.807 69.4287C100.758 69.3973 100.693 69.3556 100.616 69.3059C100.293 69.0978 99.7501 68.7483 99.2291 68.4182C98.9055 68.2131 98.5717 68.0037 98.2903 67.8321C98.2814 67.8267 98.2713 67.8205 98.2599 67.8136C98.091 67.7102 97.6554 67.4437 97.2769 67.2766C97.277 67.2766 97.277 67.2766 97.277 67.2766C97.2771 67.2763 97.2205 67.2484 97.0725 67.1635C96.9463 67.0911 96.864 67.0424 96.7645 66.9835C96.6687 66.9268 96.5569 66.8606 96.3746 66.7547C95.8147 66.4296 94.9819 65.9634 94.0091 65.6037L94.0086 65.6035M117.794 84.273L94.0086 65.6035M94.0086 65.6035C89.7369 64.025 84.6956 64.8955 80.6746 66.4578C76.5964 68.0423 72.4761 70.7574 70.1076 74.1818L70.1059 74.1843M94.0086 65.6035L70.1059 74.1843M70.1059 74.1843C69.7727 74.6668 69.4171 75.3298 69.0556 76.0921C68.6851 74.6164 68.1598 73.1855 67.605 71.8659M70.1059 74.1843L67.605 71.8659M61.5261 115.99L61.5245 115.987C60.3568 113.652 60.1594 110.802 60.1568 108.694C60.154 106.44 60.3902 104.249 60.5386 102.896C60.8432 100.064 62.3669 94.709 64.008 89.6508C63.4339 90.0131 62.8427 90.3382 62.2454 90.6357C57.2169 93.1419 52.2495 92.0164 48.4685 89.7763L48.4388 89.7587L48.4094 89.7406C48.352 89.7053 48.299 89.6722 48.2606 89.6482L48.2564 89.6456C48.2134 89.6186 48.1892 89.6036 48.1676 89.5903C48.156 89.5832 48.1482 89.5785 48.1433 89.5756C47.8634 89.4285 47.6531 89.2923 47.5024 89.1898C47.4729 89.1697 47.445 89.1505 47.4292 89.1396L47.4258 89.1372L47.4139 89.1291C44.6764 87.4578 42.0035 84.5866 40.3537 82.5039C38.9011 80.6764 37.8314 78.4867 37.1265 76.272L61.5261 115.99ZM61.5261 115.99C62.6309 118.195 64.343 119.488 65.8229 120.308L65.8993 120.351M61.5261 115.99L65.8993 120.351M67.605 71.8659C66.3309 68.8231 64.8481 66.5978 63.1128 64.6871C63.6282 64.9874 64.1581 65.27 64.703 65.5336L64.7111 65.5375L64.7193 65.5414C65.7115 66.0162 66.8413 66.3874 67.8897 66.6417L67.9041 66.6452L67.9186 66.6486C72.5831 67.7451 75.9594 65.239 77.8467 62.5872C79.5491 60.1952 80.4547 57.2521 80.837 54.9623C82.3428 57.3192 84.403 59.5004 87.2204 60.8317L87.2285 60.8356C89.1128 61.721 92.7884 62.6892 96.2545 61.1511L96.2577 61.1497C98.5011 60.1519 100.156 58.4074 101.356 56.626C102.57 54.8254 103.486 52.7436 104.172 50.6755C105.538 46.5568 106.173 41.9352 106.16 38.3465L106.16 38.3423C106.137 33.4812 104.684 28.1813 101.934 23.9997M67.605 71.8659L87.2077 19.1919M101.934 23.9997C101.934 24.0003 101.934 24.001 101.935 24.0016L98.4202 26.3072L101.932 23.9971C101.932 23.9979 101.933 23.9988 101.934 23.9997ZM101.934 23.9997C100.523 21.8502 98.5848 19.8981 95.9723 18.9488L95.9656 18.9463C93.1677 17.935 90.0465 18.1366 87.2077 19.1919M87.2077 19.1919L88.6708 23.1325C90.7681 22.3525 92.849 22.2894 94.5367 22.8995L87.2077 19.1919ZM75.8887 34.4325C73.5881 31.1025 70.4324 28.0862 66.3518 26.6511L75.8887 34.4325ZM75.8887 34.4325C75.8913 34.3692 75.8942 34.3059 75.8973 34.2426C76.0381 31.4054 76.7147 28.3216 78.6936 25.6156L75.8887 34.4325ZM57.03 59.6647L56.1135 59.1299L56.0342 59.0837L55.9531 59.041C53.4237 57.7096 50.0667 56.4427 46.6786 56.5499C44.9194 56.6055 43.0455 57.0372 41.321 58.1277C39.5758 59.2312 38.2366 60.8505 37.3288 62.8682L37.328 62.87C35.5714 66.7789 35.7582 71.9744 37.1263 76.2717L57.03 59.6647ZM57.03 59.6647C55.1066 57.5025 53.5138 55.0306 52.2222 52.3874L57.03 59.6647ZM65.8993 120.351L65.9775 120.39M65.8993 120.351L65.9775 120.39M65.9775 120.39L66.9825 120.894M65.9775 120.39L66.9825 120.894M66.9825 120.894C66.9855 120.895 66.9885 120.897 66.9915 120.898L66.9825 120.894ZM51.4483 31.1596C53.0705 29.1625 55.6356 27.6788 57.7779 26.8467C60.824 25.6547 63.8223 25.7612 66.3508 26.6507L51.4483 31.1596ZM51.4483 31.1596C49.8079 33.1751 49.0048 35.63 48.9173 38.384C48.7576 43.2333 50.1981 48.2483 52.2215 52.386L51.4483 31.1596ZM87.2055 19.1927C83.7267 20.4849 80.7606 22.7881 78.6944 25.6144L87.2055 19.1927Z" fill="#E52322" stroke="#E0D8D8" stroke-width="8.4069"/>
<path d="M126.058 91.7141L126.059 91.7186C126.679 94.7097 126.242 97.7085 124.16 100.075C122.373 102.118 119.893 103.311 117.668 104.02C117.667 104.02 117.667 104.02 117.666 104.021L116.391 100.015C112.709 101.19 108.73 101.276 105.295 100.975L126.058 91.7141ZM126.058 91.7141C125.148 87.3463 121.948 82.7391 120.002 80.3693L120 80.3675M126.058 91.7141L120 80.3675M120 80.3675C119.246 79.4503 118.493 78.5846 117.733 77.7584C120.605 77.3993 123.377 76.031 125.481 73.9979L125.481 73.9978C128.373 71.2016 130.193 67.8085 131.365 64.3688L131.368 64.3616L131.37 64.3544C132.497 61.0078 133.251 56.5694 132.263 51.8922C131.77 49.5324 130.66 46.9135 129.559 45.0522L129.557 45.0496C127.637 41.8082 124.779 39.0174 120.956 38.3198C116.96 37.5907 113.277 39.3789 110.358 42.4217L110.355 42.4245C109.342 43.4827 108.298 45.0145 107.464 46.3746C106.601 47.784 105.765 49.3359 105.217 50.5984L105.217 50.5986C103.696 54.1012 102.147 58.5811 103.314 64.1826L103.314 64.1835C103.439 64.782 103.583 65.3918 103.751 66.0053C103.472 65.8203 103.221 65.6558 103.014 65.5238C102.965 65.4923 102.9 65.4504 102.823 65.4003C102.499 65.1922 101.957 64.8427 101.436 64.5126C101.112 64.3076 100.778 64.0981 100.497 63.9266C100.488 63.9212 100.478 63.915 100.467 63.908C100.298 63.8047 99.8622 63.5381 99.4837 63.371C99.4838 63.3711 99.4836 63.3709 99.4831 63.3706C99.4763 63.3669 99.4178 63.3374 99.2793 63.2579C99.1531 63.1855 99.0708 63.1368 98.9713 63.0779C98.8755 63.0212 98.7637 62.955 98.5814 62.8492C98.0215 62.5241 97.1887 62.0578 96.2159 61.6982L96.2153 61.698M120 80.3675L96.2153 61.698M96.2153 61.698C91.9437 60.1194 86.9024 60.9899 82.8814 62.5522C78.8032 64.1368 74.6829 66.8518 72.3144 70.2762L72.3127 70.2787M96.2153 61.698L72.3127 70.2787M72.3127 70.2787C71.9795 70.7612 71.6239 71.4243 71.2624 72.1865C70.8918 70.7106 70.3664 69.2795 69.8116 67.9597C68.5375 64.9172 67.0548 62.6921 65.3196 60.7815M72.3127 70.2787L65.3196 60.7815M63.7329 112.085L63.7313 112.081C62.5636 109.747 62.3662 106.896 62.3636 104.788C62.3607 102.534 62.5971 100.343 62.7454 98.9901C63.0501 96.1575 64.5737 90.8031 66.2148 85.7453C65.6412 86.1072 65.0505 86.4321 64.4537 86.7294C59.4246 89.2365 54.4566 88.1111 50.6752 85.8707L50.6456 85.8531L50.6162 85.8351C50.5567 85.7985 50.5019 85.7642 50.4632 85.74C50.4378 85.7241 50.4189 85.7123 50.4033 85.7026C50.3925 85.6959 50.3832 85.6902 50.3744 85.6848C50.3628 85.6776 50.3549 85.6729 50.3501 85.67C50.0702 85.523 49.8599 85.3868 49.7092 85.2843C49.68 85.2644 49.6524 85.2453 49.6365 85.2344L49.6326 85.2317L49.6207 85.2235C46.8832 83.5522 44.2103 80.6811 42.5606 78.5984C41.1079 76.7709 40.0382 74.5811 39.3333 72.3665L63.7329 112.085ZM63.7329 112.085C64.8377 114.289 66.5498 115.582 68.0297 116.403L68.1061 116.445M63.7329 112.085L68.1061 116.445M65.3196 60.7815C65.835 61.0819 66.3649 61.3644 66.9098 61.628L66.9179 61.632L66.9261 61.6359C67.9183 62.1107 69.0481 62.4818 70.0965 62.7361L70.1109 62.7396L70.1253 62.743C74.7899 63.8395 78.1662 61.3334 80.0535 58.6816C81.7559 56.2897 82.6615 53.3465 83.0438 51.0567C84.5496 53.4136 86.6097 55.5949 89.4271 56.9262L89.4353 56.93C91.3196 57.8154 94.9952 58.7836 98.4613 57.2455L98.4645 57.2441C100.708 56.2463 102.363 54.5018 103.563 52.7205C104.777 50.9199 105.693 48.8381 106.379 46.7699C107.745 42.6512 108.38 38.0296 108.367 34.4409L108.367 34.4367C108.344 29.5764 106.891 24.2774 104.142 20.0961L65.3196 60.7815ZM59.2368 55.7591L58.3203 55.2244L58.241 55.1781L58.1599 55.1354C55.6305 53.804 52.2735 52.5372 48.8854 52.6443C47.1262 52.6999 45.2523 53.1316 43.5278 54.2221C41.7826 55.3257 40.4434 56.9449 39.5356 58.9627L39.5348 58.9644C37.7782 62.8734 37.965 68.0689 39.3331 72.3661L59.2368 55.7591ZM59.2368 55.7591C57.3134 53.5969 55.7206 51.1251 54.429 48.4819L59.2368 55.7591ZM78.0955 30.5269C78.0981 30.4636 78.101 30.4003 78.1041 30.337C78.2449 27.4994 78.9217 24.4151 80.9012 21.7089C82.9674 18.8826 85.9335 16.5793 89.4123 15.2871L78.0955 30.5269ZM78.0955 30.5269C75.7949 27.197 72.6392 24.1807 68.5586 22.7455L78.0955 30.5269ZM68.1061 116.445L68.1843 116.484M68.1061 116.445L68.1843 116.484M68.1843 116.484L69.1893 116.988M68.1843 116.484L69.1893 116.988M98.1724 15.0408L98.1791 15.0432C100.792 15.9927 102.731 17.9455 104.141 20.0954L98.1724 15.0408ZM98.1724 15.0408C95.3745 14.0294 92.2533 14.231 89.4145 15.2863L98.1724 15.0408ZM69.1893 116.988C69.1923 116.99 69.1954 116.991 69.1985 116.993M69.1893 116.988L69.1985 116.993M69.1985 116.993C69.5629 117.176 70.1393 117.425 70.3461 117.514C70.3854 117.531 70.4114 117.542 70.42 117.546L69.1985 116.993ZM53.6572 27.2514C55.2795 25.2556 57.8434 23.7729 59.9847 22.9411C63.0309 21.7491 66.0291 21.8556 68.5576 22.7452L53.6572 27.2514ZM53.6572 27.2514C52.0154 29.2674 51.2117 31.7232 51.1241 34.4782M53.6572 27.2514L51.1241 34.4782M51.1241 34.4782C50.9644 39.3276 52.4048 44.3426 54.4283 48.4804L51.1241 34.4782ZM96.0868 106.33C98.9772 104.982 101.522 104.868 104.93 105.162L70.4203 117.546C72.0161 118.272 73.6411 118.276 74.8754 118.12C76.1426 117.96 77.3596 117.584 78.3958 117.185C80.4648 116.388 82.3662 115.277 83.4255 114.624C84.2319 114.128 84.9756 113.651 85.7412 113.145C86.1526 112.875 86.5198 112.659 86.9674 112.396C87.2248 112.245 87.5089 112.078 87.8432 111.876L87.8555 111.868L87.8678 111.861C89.1808 111.056 90.4837 110.07 91.5495 109.263C91.8248 109.055 92.0842 108.858 92.324 108.68L92.3323 108.674C93.6022 107.725 94.8091 106.922 96.0786 106.334L96.0868 106.33Z" fill="#E52322" stroke="white" stroke-width="8.4069"/>
<path d="M129.559 45.0522L129.557 45.0495C127.637 41.8082 124.779 39.0174 120.956 38.3198C116.96 37.5906 113.277 39.3789 110.358 42.4217L110.355 42.4245C109.342 43.4827 108.298 45.0145 107.464 46.3746C106.601 47.784 105.765 49.3358 105.217 50.5984L105.217 50.5986C103.696 54.1012 102.147 58.5811 103.314 64.1826L103.314 64.1835C104.25 68.669 106.294 73.7854 110.697 76.3701L110.698 76.3708C115.543 79.2125 121.632 77.7182 125.48 73.9979L125.481 73.9978C128.373 71.2016 130.193 67.8085 131.365 64.3688L131.368 64.3616L131.37 64.3544C132.497 61.0072 133.251 56.5676 132.262 51.8895C131.769 49.5304 130.659 46.9128 129.559 45.0522Z" fill="#00923A" stroke="white" stroke-width="8.4069"/>
</g>
<defs>
<filter id="filter0_d_5_383" x="1.79725" y="0.437868" width="146.967" height="158.03" filterUnits="userSpaceOnUse" color-interpolation-filters="sRGB">
<feFlood flood-opacity="0" result="BackgroundImageFix"/>
<feColorMatrix in="SourceAlpha" type="matrix" values="0 0 0 0 0 0 0 0 0 0 0 0 0 0 0 0 0 0 127 0" result="hardAlpha"/>
<feOffset dx="-9.10748" dy="11.2092"/>
<feGaussianBlur stdDeviation="10.4736"/>
<feComposite in2="hardAlpha" operator="out"/>
<feColorMatrix type="matrix" values="0 0 0 0 0 0 0 0 0 0 0 0 0 0 0 0 0 0 0.35 0"/>
<feBlend mode="normal" in2="BackgroundImageFix" result="effect1_dropShadow_5_383"/>
<feBlend mode="normal" in="SourceGraphic" in2="effect1_dropShadow_5_383" result="shape"/>
</filter>
</defs>
</svg>
