<svg width="375" height="172" viewBox="0 0 375 172" fill="none" xmlns="http://www.w3.org/2000/svg">
<g style="mix-blend-mode:multiply" opacity="0.15" clip-path="url(#clip0_2_97)">
<path d="M132.687 42.9875V21.6415V21.4266L111.274 0.0134277H89.7194L132.687 42.9875Z" fill="#00923A"/>
<path d="M132.687 86.1025V64.7632V64.7565V64.5484L68.1585 0.0134277H46.5977L132.687 86.1025Z" fill="#00923A"/>
<path d="M89.6454 86.1764H111.059H111.2L46.5237 21.5005V21.5676V21.5743V43.0613L89.6454 86.1764Z" fill="#00923A"/>
<path d="M67.9368 86.1764H68.0846L46.5237 64.6155V64.6894V86.1764H67.9368Z" fill="#00923A"/>
<path d="M154.107 86.1764H175.661L132.687 43.2023V64.5484V64.7565L154.107 86.1764Z" fill="#00923A"/>
<path d="M197.222 86.1764H218.782L132.687 0.0872955V21.4266V21.6415L197.222 86.1764Z" fill="#00923A"/>
<path d="M218.85 64.6894V43.1285L175.735 0.0134277H154.174L218.85 64.6894Z" fill="#00923A"/>
<path d="M218.85 21.5676V0.0134277H197.295L218.85 21.5676Z" fill="#00923A"/>
<path d="M305.013 64.7632V64.7565V43.2023L262.045 86.1764H283.599L305.013 64.7632Z" fill="#00923A"/>
<path d="M305.013 21.6415V0.0872955L218.924 86.1764H240.478L305.013 21.6415Z" fill="#00923A"/>
<path d="M218.85 43.1285V64.6894L283.532 0.0134277H261.971L218.85 43.1285Z" fill="#00923A"/>
<path d="M240.411 0.0134277H218.85V21.5676L240.411 0.0134277Z" fill="#00923A"/>
<path d="M305.013 43.2023V64.7565L326.433 86.1764H347.987L305.013 43.2023Z" fill="#00923A"/>
<path d="M305.013 21.6415L369.548 86.1764H391.108L305.013 0.0872955V21.6415Z" fill="#00923A"/>
<path d="M391.176 64.6894V64.6155V43.1285L348.061 0.0134277H326.506L391.176 64.6894Z" fill="#00923A"/>
<path d="M391.176 21.5005V0.0134277H369.621L391.176 21.5676V21.5005Z" fill="#00923A"/>
<path d="M-39.6393 43.2023V64.5417V64.5484V64.7632L-18.2261 86.1764H3.33477L-39.6393 43.2023Z" fill="#00923A"/>
<path d="M-39.6393 0.0872955V21.4266V21.6415L24.8957 86.1764H46.4498L-39.6393 0.0872955Z" fill="#00923A"/>
<path d="M46.5238 64.6894V64.6155V43.1285L3.40868 0.0134277H-18.1522L46.5238 64.6894Z" fill="#00923A"/>
<path d="M46.5237 21.5005V0.0134277H24.9695L46.5237 21.5676V21.5005Z" fill="#00923A"/>
<path d="M391.176 129.15V107.59L369.762 86.1764H348.208L391.176 129.15Z" fill="#00923A"/>
<path d="M391.176 172.266V150.711L326.647 86.1764H305.086L391.176 172.266Z" fill="#00923A"/>
<path d="M348.134 172.339H369.622H369.689L305.013 107.663V107.737V129.224L348.134 172.339Z" fill="#00923A"/>
<path d="M326.5 172.339H326.574L305.013 150.778V150.852V172.339H326.5Z" fill="#00923A"/>
<path d="M218.85 129.365V150.705V150.711V150.926L240.27 172.339H261.824L218.85 129.365Z" fill="#00923A"/>
<path d="M218.85 86.2503V107.59V107.804L283.385 172.339H304.939L218.85 86.2503Z" fill="#00923A"/>
<path d="M305.013 150.852V150.778V129.291L261.898 86.1764H240.337L305.013 150.852Z" fill="#00923A"/>
<path d="M305.013 107.737V107.663V86.1764H283.458L305.013 107.737Z" fill="#00923A"/>
<path d="M89.4977 86.1764H68.0846H67.9368L46.5237 107.59V129.144L89.4977 86.1764Z" fill="#00923A"/>
<path d="M132.619 86.1764H111.2H111.059L46.5237 150.711V172.266L132.619 86.1764Z" fill="#00923A"/>
<path d="M132.687 129.224V129.218V107.663L68.0107 172.339H89.5716L132.687 129.224Z" fill="#00923A"/>
<path d="M132.687 150.778L111.133 172.339H132.687V150.778Z" fill="#00923A"/>
<path d="M46.5237 129.15V129.144V107.59L25.1106 86.1764H3.5564L46.5237 129.15Z" fill="#00923A"/>
<path d="M46.5237 172.266V150.711L-18.0046 86.1764H-39.5654L46.5237 172.266Z" fill="#00923A"/>
<path d="M3.47579 172.339H25.0367L-39.6393 107.663V107.737V129.224L3.47579 172.339Z" fill="#00923A"/>
<path d="M218.85 129.15V107.804V107.59L197.437 86.1764H175.882L218.85 129.15Z" fill="#00923A"/>
<path d="M218.85 172.266V150.926V150.711L154.321 86.1764H132.76L218.85 172.266Z" fill="#00923A"/>
<path d="M132.687 107.663V129.218L175.808 172.339H197.363L132.687 107.663Z" fill="#00923A"/>
<path d="M132.687 150.778V172.339H154.248L132.687 150.778Z" fill="#00923A"/>
</g>
<defs>
<clipPath id="clip0_2_97">
<rect width="970.256" height="172" fill="white" transform="translate(-298.128)"/>
</clipPath>
</defs>
</svg>
