<svg width="104" height="117" viewBox="0 0 104 117" fill="none" xmlns="http://www.w3.org/2000/svg">
<g clip-path="url(#clip0_2_538)">
<path d="M51.6187 12.345C31.3545 12.345 14.8684 28.7246 14.8684 48.8581C14.8684 68.9915 31.3545 85.3712 51.6187 85.3712C71.8829 85.3712 88.369 68.9915 88.369 48.8581C88.369 28.7246 71.8829 12.345 51.6187 12.345Z" fill="white"/>
<path d="M71.902 23.8706C67.4157 35.453 55.5015 33.9515 47.104 34.2395L45.0652 42.139C55.4254 33.7485 69.1313 42.0681 67.6676 54.7318C66.6791 63.2592 60.558 68.8403 54.0852 70.4457C47.0327 72.1928 39.215 69.5769 35.7077 62.4377C35.337 61.6822 34.6907 60.1712 34.4436 59.3638L41.8858 57.4657C42.0142 57.8906 42.2375 58.3014 42.4751 58.6792C47.4556 66.6589 57.5497 62.669 58.6856 54.3918C59.8451 45.9683 47.9499 41.4826 42.5274 51.3274L35.9311 48.5322L35.817 48.485L38.274 38.6921C38.6637 36.9498 39.8328 32.4028 39.9706 31.9636C40.1797 31.2837 40.2272 31.0571 40.4601 30.4385C44.6898 19.3991 53.0445 18.2848 60.4725 18.2848C60.7671 18.2848 61.0618 18.2848 61.3564 18.2942C58.3291 17.3593 55.107 16.8541 51.7708 16.8541C33.9778 16.8447 19.5496 31.1751 19.5496 48.858C19.5496 66.5408 33.9778 80.8713 51.7708 80.8713C69.5638 80.8713 83.9921 66.5361 83.9921 48.858C83.9921 38.7488 79.2682 29.7397 71.902 23.8706Z" fill="#E51E1E"/>
<path d="M68.9697 21.7081C67.7198 25.5657 65.5432 27.988 62.1738 29.2912C58.6712 30.6463 54.4036 30.6841 50.2785 30.7171C48.0591 30.736 45.9348 30.7502 43.9911 30.9815C47.4936 22.5816 53.7763 21.7506 60.4772 21.7506C61.4086 21.7506 62.3449 21.7694 63.2478 21.7883C64.1508 21.8072 65.0062 21.8214 65.8569 21.8214C67.0782 21.8214 68.081 21.7836 68.9697 21.7033" fill="#009138"/>
<path d="M14.9016 102.158V95.4581H18.2093C19.6493 95.4581 20.6615 96.1522 20.6615 97.1863C20.6615 97.8804 20.2861 98.3856 19.6778 98.6689C20.4429 98.9144 20.9514 99.4433 20.9514 100.241C20.9514 101.403 19.9249 102.163 18.5657 102.163H14.9016V102.158ZM16.8453 96.8888V98.0598H17.8433C18.3471 98.0598 18.675 97.8143 18.675 97.4554C18.675 97.0966 18.4279 96.8888 17.8433 96.8888H16.8453ZM16.8453 99.4149V100.728H18.157C18.675 100.728 18.9507 100.458 18.9507 100.071C18.9507 99.6841 18.6893 99.4149 18.157 99.4149H16.8453ZM22.2441 102.158V95.4581H24.1878V97.4412H25.3664C27.0392 97.4412 28.1275 98.395 28.1275 99.7738C28.1275 101.063 27.0487 102.158 25.3664 102.158H22.2393H22.2441ZM24.1878 99.0513V100.548H25.3141C25.8606 100.548 26.1838 100.213 26.1838 99.7738C26.1838 99.3347 25.8606 99.0513 25.3141 99.0513H24.1878ZM28.8974 95.4534H30.8412V102.154H28.8974V95.4534ZM34.4767 95.4534V96.2797C34.971 95.6375 35.7219 95.2598 36.6438 95.2598C38.4878 95.2598 39.8089 96.7283 39.8089 98.7775C39.8089 100.827 38.4973 102.347 36.6438 102.347C35.7219 102.347 34.971 101.974 34.4767 101.318V104.732H32.533V95.4534H34.4767ZM37.8605 98.7775C37.8605 97.7057 37.1856 96.9974 36.1734 96.9974C35.1611 96.9974 34.5005 97.5262 34.472 98.3242V99.1599C34.472 100.024 35.1468 100.605 36.1734 100.605C37.1999 100.605 37.8605 99.8682 37.8605 98.7728V98.7775ZM41.0398 95.4109H42.9835V99.0844C42.9835 100.076 43.4398 100.553 44.357 100.553C45.2742 100.553 45.835 99.9485 45.835 99.0986V95.4109H47.7787V100.992C47.7787 103.801 46.1962 104.821 43.7439 104.821C42.9408 104.821 42.1091 104.732 41.4628 104.42V102.706H41.7337C42.3325 103.041 42.9645 103.145 43.7582 103.145C45.1982 103.145 45.7684 102.593 45.8207 101.341C45.355 101.946 44.6279 102.309 43.7059 102.309C41.8905 102.309 41.0351 101.19 41.0351 99.4338V95.4109H41.0398ZM49.2757 95.4534H51.2194V97.3232C51.2194 98.0078 51.5426 98.3006 52.2982 98.3006C52.7925 98.3006 53.1157 98.225 53.5576 98.0031V95.4534H55.5014V102.154H53.5576V99.6132C53.0634 99.8588 52.5454 99.9862 51.804 99.9862C50.1026 99.9862 49.2757 99.0325 49.2757 97.5262V95.4534ZM84.2629 102.154H82.3191V98.48C82.3191 97.4885 81.958 97.0116 81.2023 97.0116C80.4467 97.0116 80.0095 97.5923 79.981 98.4045V102.154H78.0372V98.48C78.0372 97.4885 77.676 97.0116 76.9204 97.0116C76.1648 97.0116 75.7276 97.5923 75.6991 98.4045V102.154H73.7553V95.4534H75.6991V96.0956C76.103 95.5667 76.7113 95.2598 77.5002 95.2598C78.579 95.2598 79.3014 95.7509 79.6816 96.5724C80.0713 95.7603 80.7699 95.2598 81.7821 95.2598C83.4312 95.2598 84.2581 96.3788 84.2581 98.1353V102.158L84.2629 102.154ZM87.1523 102.597C86.5868 102.597 86.1496 102.191 86.1496 101.577C86.1496 100.964 86.5868 100.558 87.1523 100.558C87.7179 100.558 88.1646 100.964 88.1646 101.577C88.1646 102.191 87.7274 102.597 87.1523 102.597ZM88.2311 93.933L87.9507 99.5896H86.4632L86.1828 93.933H88.2359H88.2311ZM71.0845 99.8871L72.0967 101.332C71.4979 101.913 70.4477 102.309 69.1788 102.309C66.8168 102.309 65.3151 100.968 65.3151 98.7633C65.3151 96.7141 66.8453 95.2173 68.9221 95.2173C71.1653 95.2173 72.6195 96.9171 72.3724 99.2402H67.235C67.4156 100.067 68.0905 100.553 69.193 100.553C70.0342 100.553 70.6568 100.255 71.0892 99.8824L71.0845 99.8871ZM67.3348 97.8756H70.4762C70.2576 97.1674 69.711 96.8321 68.9174 96.8321C68.1237 96.8321 67.582 97.2193 67.3348 97.8756ZM63.9939 102.135H62.0502V101.299C61.5464 101.955 60.7908 102.328 59.8831 102.328C58.0296 102.328 56.718 100.846 56.718 98.7586C56.718 96.6716 58.0391 95.2409 59.8831 95.2409C60.7908 95.2409 61.5417 95.6139 62.0502 96.2608V95.4345H63.9939V102.135ZM62.0502 99.2072V98.3714C62.0502 97.5357 61.3611 96.9785 60.3488 96.9785C59.3365 96.9785 58.6617 97.6868 58.6617 98.7586C58.6617 99.8304 59.3365 100.591 60.3488 100.591C61.3611 100.591 62.0074 100.038 62.0502 99.2119V99.2072Z" fill="white"/>
</g>
<defs>
<clipPath id="clip0_2_538">
<rect width="73.5006" height="92.9566" fill="white" transform="translate(14.8684 12.345)"/>
</clipPath>
</defs>
</svg>
