<svg width="375" height="381" viewBox="0 0 375 381" fill="none" xmlns="http://www.w3.org/2000/svg">
<g style="mix-blend-mode:multiply" opacity="0.15" clip-path="url(#clip0_125_7791)">
<path d="M113.109 58.4829V29.4424V29.1501L83.9768 0.0182495H54.6531L113.109 58.4829Z" fill="#00923A"/>
<path d="M113.108 117.139V88.1081V88.099V87.8158L25.3201 0.0182495H-4.0127L113.108 117.139Z" fill="#00923A"/>
<path d="M54.5526 117.24H83.6845H83.8763L-4.11304 29.2506V29.342V29.3511V58.5834L54.5526 117.24Z" fill="#00923A"/>
<path d="M25.0188 117.24H25.2198L-4.11304 87.9072V88.0076V117.24H25.0188Z" fill="#00923A"/>
<path d="M142.25 117.24H171.573L113.109 58.7753V87.8158V88.099L142.25 117.24Z" fill="#00923A"/>
<path d="M200.906 117.24H230.239L113.109 0.118774V29.1502V29.4425L200.906 117.24Z" fill="#00923A"/>
<path d="M230.33 88.0076V58.6748L171.674 0.0182495H142.341L230.33 88.0076Z" fill="#00923A"/>
<path d="M230.33 29.3419V0.0182495H201.007L230.33 29.3419Z" fill="#00923A"/>
<path d="M347.552 88.1081V88.099V58.7753L289.096 117.24H318.42L347.552 88.1081Z" fill="#00923A"/>
<path d="M347.552 29.4425V0.118774L230.431 117.24H259.754L347.552 29.4425Z" fill="#00923A"/>
<path d="M230.33 58.6748V88.0076L318.329 0.0182495H288.996L230.33 58.6748Z" fill="#00923A"/>
<path d="M259.663 0.0182495H230.33V29.3419L259.663 0.0182495Z" fill="#00923A"/>
<path d="M347.552 58.7753V88.099L376.693 117.24H406.017L347.552 58.7753Z" fill="#00923A"/>
<path d="M347.552 29.4425L435.35 117.24H464.682L347.552 0.118774V29.4425Z" fill="#00923A"/>
<path d="M113.109 292.926V263.886V263.594L83.9768 234.462H54.6531L113.109 292.926Z" fill="#00923A"/>
<path d="M113.108 351.592V322.552V322.259L25.311 234.462H-4.0127L113.108 351.592Z" fill="#00923A"/>
<path d="M54.5435 351.683H54.5526H83.8763L-4.11304 263.694V263.795V293.027L54.5435 351.683Z" fill="#00923A"/>
<path d="M25.2106 351.683L-4.11304 322.36V322.451V351.683H25.2106Z" fill="#00923A"/>
<path d="M142.241 351.683H171.573L113.109 293.219V322.259V322.552L142.241 351.683Z" fill="#00923A"/>
<path d="M200.906 351.684H230.23L113.109 234.562V263.594V263.886L200.906 351.684Z" fill="#00923A"/>
<path d="M230.33 322.451V293.118L171.674 234.462H142.341L230.33 322.451Z" fill="#00923A"/>
<path d="M230.33 263.794V234.462H201.007L230.33 263.794Z" fill="#00923A"/>
<path d="M347.552 322.551V293.228L289.087 351.683H318.42L347.552 322.551Z" fill="#00923A"/>
<path d="M347.552 263.886V234.562L230.431 351.684H259.754L347.552 263.886Z" fill="#00923A"/>
<path d="M230.33 293.118V322.451L318.32 234.462H288.987L230.33 293.118Z" fill="#00923A"/>
<path d="M230.33 263.794L259.663 234.462H230.33V263.794Z" fill="#00923A"/>
<path d="M347.552 293.219V293.228V322.552L376.684 351.683H406.017L347.552 293.219Z" fill="#00923A"/>
<path d="M347.552 263.886L435.35 351.684H464.673L347.552 234.562V263.886Z" fill="#00923A"/>
<path d="M464.774 234.361V205.038L376.985 117.24H347.652L464.774 234.361Z" fill="#00923A"/>
<path d="M406.218 234.462H435.45H435.541L347.552 146.472V146.573V175.805L406.218 234.462Z" fill="#00923A"/>
<path d="M376.784 234.462H376.885L347.552 205.129V205.229V234.462H376.784Z" fill="#00923A"/>
<path d="M230.33 175.997V205.028V205.038V205.33L259.471 234.462H288.795L230.33 175.997Z" fill="#00923A"/>
<path d="M230.33 117.34V146.372V146.664L318.128 234.462H347.452L230.33 117.34Z" fill="#00923A"/>
<path d="M347.552 205.229V205.129V175.897L288.895 117.24H259.563L347.552 205.229Z" fill="#00923A"/>
<path d="M347.552 146.573V146.472V117.24H318.228L347.552 146.573Z" fill="#00923A"/>
<path d="M54.3517 117.24H25.2198H25.0188L-4.11304 146.372V175.696L54.3517 117.24Z" fill="#00923A"/>
<path d="M113.017 117.24H83.8763H83.6845L-4.11304 205.038V234.361L113.017 117.24Z" fill="#00923A"/>
<path d="M113.108 175.805V175.796V146.472L25.1191 234.462H54.452L113.108 175.805Z" fill="#00923A"/>
<path d="M113.109 205.129L83.7849 234.462H113.109V205.129Z" fill="#00923A"/>
<path d="M230.33 175.705V146.664V146.372L201.198 117.24H171.875L230.33 175.705Z" fill="#00923A"/>
<path d="M230.33 234.361V205.33V205.038L142.542 117.24H113.209L230.33 234.361Z" fill="#00923A"/>
<path d="M113.109 146.472V175.796L171.774 234.462H201.098L113.109 146.472Z" fill="#00923A"/>
<path d="M113.109 205.129V234.462H142.442L113.109 205.129Z" fill="#00923A"/>
<path d="M113.108 381.108V351.784L-4.0127 468.905H25.311L113.108 381.108Z" fill="#00923A"/>
<path d="M83.8763 351.683H54.5526L-4.11304 410.34V410.349V439.673L83.8763 351.683Z" fill="#00923A"/>
<path d="M-4.11304 381.016L25.2198 351.683H25.2106H-4.11304V381.016Z" fill="#00923A"/>
<path d="M113.109 351.784V381.108L200.906 468.905H230.23L113.109 351.784Z" fill="#00923A"/>
<path d="M230.33 410.34L171.674 351.683H142.341L230.33 439.673V439.581V410.34Z" fill="#00923A"/>
<path d="M201.007 351.683L230.33 381.016V380.916V351.683H201.007Z" fill="#00923A"/>
<path d="M318.42 351.683H289.096L347.552 410.148V381.117V381.108V380.815L318.42 351.683Z" fill="#00923A"/>
<path d="M259.754 351.683H230.431L347.552 468.814V439.773V439.481L259.754 351.683Z" fill="#00923A"/>
<path d="M230.33 380.916V381.016V410.249L288.987 468.905H318.128H318.32L230.33 380.916Z" fill="#00923A"/>
<path d="M347.552 351.784V380.815V381.108L435.35 468.905H464.673L347.552 351.784Z" fill="#00923A"/>
</g>
<defs>
<clipPath id="clip0_125_7791">
<rect width="1320" height="381" fill="white" transform="translate(-473)"/>
</clipPath>
</defs>
</svg>
