<svg width="189" height="70" viewBox="0 0 189 70" fill="none" xmlns="http://www.w3.org/2000/svg">
<path d="M94.5 67C119.134 67 141.546 64.1829 157.894 59.5647C166.048 57.2614 172.864 54.4631 177.711 51.2259C182.447 48.0632 186 43.9903 186 39C186 34.0097 182.447 29.9368 177.711 26.7741C172.864 23.5369 166.048 20.7386 157.894 18.4353C141.546 13.8171 119.134 11 94.5 11C69.8664 11 47.4541 13.8171 31.1055 18.4353C22.9519 20.7386 16.1357 23.5369 11.2886 26.7741C6.55305 29.9368 3 34.0097 3 39C3 43.9903 6.55305 48.0632 11.2886 51.2259C16.1357 54.4631 22.9519 57.2614 31.1055 59.5647C47.4541 64.1829 69.8664 67 94.5 67Z" stroke="#A9A9A9" stroke-width="6"/>
<ellipse cx="94.5" cy="39" rx="88.5" ry="25" fill="#E52322"/>
<path d="M94.5 62C119.134 62 141.546 59.1829 157.894 54.5647C166.048 52.2614 172.864 49.4631 177.711 46.2259C182.447 43.0632 186 38.9903 186 34C186 29.0097 182.447 24.9368 177.711 21.7741C172.864 18.5369 166.048 15.7386 157.894 13.4353C141.546 8.81706 119.134 6 94.5 6C69.8664 6 47.4541 8.81706 31.1055 13.4353C22.9519 15.7386 16.1357 18.5369 11.2886 21.7741C6.55305 24.9368 3 29.0097 3 34C3 38.9903 6.55305 43.0632 11.2886 46.2259C16.1357 49.4631 22.9519 52.2614 31.1055 54.5647C47.4541 59.1829 69.8664 62 94.5 62Z" stroke="white" stroke-width="6"/>
<ellipse cx="94.5" cy="34" rx="88.5" ry="25" fill="#E52322"/>
<g opacity="0.34" filter="url(#filter0_f_3_1064)">
<ellipse cx="94.5" cy="32" rx="68.5" ry="11" fill="black"/>
</g>
<defs>
<filter id="filter0_f_3_1064" x="5.9" y="0.9" width="177.2" height="62.2" filterUnits="userSpaceOnUse" color-interpolation-filters="sRGB">
<feFlood flood-opacity="0" result="BackgroundImageFix"/>
<feBlend mode="normal" in="SourceGraphic" in2="BackgroundImageFix" result="shape"/>
<feGaussianBlur stdDeviation="10.05" result="effect1_foregroundBlur_3_1064"/>
</filter>
</defs>
</svg>
