<svg width="68" height="68" viewBox="0 0 68 68" fill="none" xmlns="http://www.w3.org/2000/svg">
<path opacity="0.4" d="M56.6664 19.9465V48.0532C56.6664 52.3598 56.2698 55.4198 55.2498 57.6015C55.2498 57.6298 55.2214 57.6865 55.193 57.7148C54.5697 58.5082 53.7481 58.9048 52.7848 58.9048C51.2831 58.9048 49.4698 57.9132 47.5148 55.8165C45.1915 53.3232 41.6213 53.5215 39.5813 56.2415L36.7198 60.0382C35.5865 61.5682 34.0848 62.3332 32.5831 62.3332C31.0814 62.3332 29.5797 61.5682 28.4464 60.0382L25.5565 56.2132C23.5448 53.5215 20.0031 53.3232 17.6797 55.7882L17.6514 55.8165C14.4497 59.2448 11.6165 59.7548 9.97314 57.7148C9.94481 57.6865 9.91642 57.6298 9.91642 57.6015C8.89642 55.4198 8.49976 52.3598 8.49976 48.0532V19.9465C8.49976 15.6398 8.89642 12.5798 9.91642 10.3982C9.91642 10.3698 9.91648 10.3415 9.97314 10.3132C11.5881 8.24484 14.4497 8.75484 17.6514 12.1832L17.6797 12.2115C20.0031 14.6765 23.5448 14.4782 25.5565 11.7865L28.4464 7.9615C29.5797 6.4315 31.0814 5.6665 32.5831 5.6665C34.0848 5.6665 35.5865 6.4315 36.7198 7.9615L39.5813 11.7582C41.6213 14.4782 45.1915 14.6765 47.5148 12.1832C49.4698 10.0865 51.2831 9.09484 52.7848 9.09484C53.7481 9.09484 54.5697 9.51984 55.193 10.3132C55.2497 10.3415 55.2498 10.3698 55.2498 10.3982C56.2698 12.5798 56.6664 15.6398 56.6664 19.9465Z" fill="white"/>
<path d="M45.3333 31.1665H22.6666C21.505 31.1665 20.5416 30.2032 20.5416 29.0415C20.5416 27.8798 21.505 26.9165 22.6666 26.9165H45.3333C46.495 26.9165 47.4583 27.8798 47.4583 29.0415C47.4583 30.2032 46.495 31.1665 45.3333 31.1665Z" fill="white"/>
<path d="M39.6661 41.0836H22.6666C21.5049 41.0836 20.5416 40.1203 20.5416 38.9587C20.5416 37.797 21.5049 36.8337 22.6666 36.8337H39.6661C40.8277 36.8337 41.791 37.797 41.791 38.9587C41.791 40.1203 40.8277 41.0836 39.6661 41.0836Z" fill="white"/>
</svg>
