<svg width="338" height="242" viewBox="0 0 338 242" fill="none" xmlns="http://www.w3.org/2000/svg">
<g style="mix-blend-mode:multiply">
<path fill-rule="evenodd" clip-rule="evenodd" d="M83.0303 187.162C82.6784 185.473 81.3371 183.468 80.3959 182.322C78.7633 180.335 77.127 178.853 75.1476 177.285C74.8304 177.033 74.5203 176.817 74.2048 176.571C73.7617 176.224 72.7612 175.542 72.27 175.228C72.0007 175.055 70.9298 174.362 70.7697 174.292C70.4057 174.133 69.8623 173.725 69.2315 173.492C66.3021 172.409 61.3577 174.508 59.594 177.058C58.656 178.416 55.394 187.934 55.1032 190.65C54.9521 192.027 54.6748 194.679 55.3907 196.11C55.6924 196.712 56.1689 197.098 56.6989 197.392L57.2159 197.651C57.402 197.745 57.5702 197.809 57.7607 197.896C59.0242 198.47 61.359 197.156 62.3605 196.538C62.7489 196.3 63.1078 196.069 63.481 195.822C63.8521 195.579 64.2375 195.364 64.6187 195.134C65.3495 194.686 66.0462 194.129 66.7231 193.626C67.4151 193.109 68.1641 192.601 69.004 192.211C70.9587 191.3 72.6835 191.263 74.58 191.427C76.3236 191.58 78.343 191.536 80.2119 190.94C81.1597 190.638 82.0051 190.189 82.5514 189.563C83.0605 188.986 83.2458 188.201 83.0303 187.162ZM43.1312 176.258C43.4273 177.188 43.862 178.056 44.4077 178.743C45.1934 179.735 46.3735 180.97 47.4483 181.621C47.5409 181.677 47.5847 181.719 47.693 181.775C47.7832 181.823 47.8539 181.87 47.9428 181.925C49.4384 182.811 51.176 183.145 52.8972 182.287C53.7523 181.861 54.4106 181.382 54.8717 180.748C55.8625 179.385 55.4268 177.458 54.6014 175.494C53.8079 173.599 52.8595 172.483 51.5867 171.371C51.3444 171.158 50.5896 170.589 50.2761 170.406L49.6606 170.047C47.3804 168.847 44.3883 168.217 43.1466 170.977C42.5348 172.339 42.5409 174.404 43.1312 176.258ZM86.1803 166.95C85.9855 166.017 85.5197 164.905 85.0596 164.127C83.4487 161.409 81.0252 160.748 78.6896 163.183C77.986 163.918 76.9524 165.658 76.4972 166.706C75.7837 168.349 75.2061 170.123 75.6631 172.316C76.104 174.431 76.9705 176.257 78.4021 177.098C79.8564 177.951 81.9165 177.578 83.343 176.2C84.5067 175.075 85.2766 173.675 85.7932 172.158C86.2828 170.703 86.5823 168.849 86.1803 166.95ZM52.3558 153.805C51.4565 154.154 50.5266 154.733 50.0233 155.353C49.5314 155.957 49.2476 156.732 49.2156 157.743C49.1487 159.765 49.757 161.963 50.6773 163.844C51.9112 166.37 53.677 168.398 56.0251 169.534C56.3647 169.697 56.7915 169.841 57.2163 169.944C59.6909 170.525 60.9137 167.553 61.2031 165.596C61.5149 163.482 61.3526 161.877 60.4646 159.614C59.5084 157.18 57.7085 154.604 55.2245 153.731C54.3952 153.439 53.4005 153.396 52.3558 153.805ZM67.2617 149.932C65.894 150.44 64.7262 151.349 63.9199 152.452C62.5689 154.299 62.8147 156.894 63.2011 159.389C63.6389 162.234 64.7918 165.889 67.437 167.139C68.1069 167.454 69.2797 167.709 70.2457 167.28C72.8455 166.124 74.0174 160.872 74.0056 157.663C73.9958 155.573 73.361 153.293 72.2104 151.544C71.648 150.686 70.9896 150.087 70.2392 149.814C69.3825 149.504 68.3263 149.536 67.2617 149.932Z" fill="#00923A" fill-opacity="0.15"/>
</g>
<g style="mix-blend-mode:multiply">
<path fill-rule="evenodd" clip-rule="evenodd" d="M329.9 66.4314C329.548 64.7429 328.206 62.7377 327.265 61.5914C325.633 59.6052 323.996 58.1225 322.017 56.555C321.7 56.303 321.39 56.0872 321.074 55.8411C320.631 55.4937 319.631 54.8123 319.139 54.4978C318.87 54.3248 317.799 53.6314 317.639 53.5618C317.275 53.4031 316.732 52.9947 316.101 52.7615C313.172 51.6789 308.227 53.7779 306.463 56.3281C305.525 57.6863 302.263 67.2034 301.973 69.9197C301.821 71.2971 301.544 73.9487 302.26 75.3799C302.562 75.982 303.038 76.3679 303.568 76.6618L304.085 76.9209C304.271 77.0151 304.44 77.0792 304.63 77.1658C305.894 77.7403 308.228 76.426 309.23 75.808C309.618 75.5694 309.977 75.3392 310.35 75.0922C310.721 74.8489 311.107 74.6336 311.488 74.4035C312.219 73.9554 312.916 73.3986 313.592 72.8955C314.285 72.3784 315.033 71.8708 315.873 71.4812C317.828 70.5695 319.553 70.5327 321.449 70.6967C323.193 70.8498 325.212 70.8059 327.081 70.2097C328.029 69.9079 328.874 69.4592 329.421 68.8333C329.93 68.2563 330.115 67.4708 329.9 66.4314ZM290.001 55.528C290.297 56.4581 290.731 57.3263 291.277 58.0124C292.063 59.0046 293.243 60.2397 294.318 60.8904C294.41 60.9472 294.454 60.9891 294.562 61.0447C294.653 61.0926 294.723 61.1397 294.812 61.1944C296.308 62.0805 298.045 62.4144 299.767 61.5564C300.622 61.1305 301.28 60.6518 301.741 60.0182C302.732 58.6545 302.296 56.7275 301.471 54.7642C300.677 52.8687 299.729 51.7532 298.456 50.6405C298.214 50.4279 297.459 49.8589 297.146 49.6762L296.53 49.3171C294.25 48.1169 291.258 47.4873 290.016 50.2471C289.404 51.6085 289.41 53.6738 290.001 55.528ZM333.05 46.2203C332.855 45.287 332.389 44.1749 331.929 43.3972C330.318 40.6784 327.895 40.0182 325.559 42.4527C324.855 43.1875 323.822 44.9281 323.367 45.976C322.653 47.6191 322.076 49.3931 322.532 51.5861C322.973 53.7004 323.84 55.5272 325.271 56.3675C326.726 57.2205 328.786 56.8483 330.212 55.4693C331.376 54.3444 332.146 52.9445 332.663 51.4278C333.152 49.9733 333.452 48.1185 333.05 46.2203ZM299.225 33.0753C298.326 33.4242 297.396 34.0025 296.893 34.6226C296.401 35.2266 296.117 36.0018 296.085 37.0125C296.018 39.0346 296.626 41.2325 297.547 43.1143C298.781 45.6396 300.546 47.6678 302.894 48.8039C303.234 48.9664 303.661 49.1105 304.086 49.2135C306.56 49.7952 307.783 46.8232 308.072 44.8657C308.384 42.7514 308.222 41.1465 307.334 38.8843C306.378 36.4495 304.578 33.8742 302.094 33.0008C301.265 32.7089 300.27 32.6658 299.225 33.0753ZM314.131 29.2021C312.763 29.7099 311.596 30.6184 310.789 31.7215C309.438 33.5685 309.684 36.164 310.07 38.6586C310.508 41.5034 311.661 45.1589 314.306 46.4088C314.976 46.7236 316.149 46.9785 317.115 46.5498C319.715 45.3936 320.887 40.1417 320.875 36.9325C320.865 34.8426 320.23 32.5626 319.08 30.8136C318.517 29.9562 317.859 29.3565 317.109 29.0838C316.252 28.7741 315.196 28.8061 314.131 29.2021Z" fill="#00923A" fill-opacity="0.15"/>
</g>
<g style="mix-blend-mode:multiply">
<path fill-rule="evenodd" clip-rule="evenodd" d="M193.825 110.804C195.546 110.906 197.832 110.135 199.185 109.527C201.529 108.47 203.388 107.278 205.418 105.778C205.745 105.537 206.034 105.294 206.354 105.054C206.805 104.717 207.724 103.93 208.156 103.538C208.394 103.323 209.343 102.471 209.452 102.335C209.7 102.025 210.237 101.607 210.627 101.059C212.437 98.5147 211.704 93.1935 209.704 90.8243C208.638 89.5639 200.305 83.9271 197.759 82.9363C196.469 82.4303 193.982 81.4694 192.414 81.7862C191.754 81.9201 191.256 82.279 190.834 82.7138L190.449 83.145C190.309 83.3001 190.204 83.4456 190.07 83.6068C189.185 84.6763 189.844 87.2735 190.178 88.4017C190.307 88.839 190.435 89.2455 190.576 89.6703C190.714 90.0921 190.821 90.5204 190.943 90.9486C191.185 91.7711 191.54 92.5891 191.849 93.374C192.167 94.1772 192.461 95.0328 192.617 95.9453C192.986 98.0704 192.571 99.7448 191.917 101.533C191.313 103.175 190.828 105.136 190.914 107.096C190.958 108.09 191.17 109.023 191.631 109.714C192.055 110.356 192.765 110.74 193.825 110.804ZM214.78 75.1434C213.805 75.1859 212.853 75.3786 212.048 75.7259C210.885 76.2249 209.385 77.041 208.476 77.9083C208.397 77.9829 208.345 78.0142 208.263 78.1042C208.193 78.1787 208.129 78.2347 208.053 78.3062C206.807 79.5181 206.03 81.1079 206.408 82.9935C206.596 83.9302 206.886 84.6908 207.377 85.3016C208.434 86.6144 210.408 86.6977 212.519 86.4142C214.556 86.1439 215.88 85.5202 217.287 84.5825C217.556 84.4043 218.302 83.8245 218.56 83.5697L219.068 83.0695C220.823 81.1824 222.213 78.459 219.873 76.5389C218.719 75.5925 216.724 75.0583 214.78 75.1434ZM212.509 119.129C213.461 119.185 214.656 119.026 215.527 118.785C218.572 117.941 219.843 115.774 218.104 112.883C217.579 112.012 216.169 110.559 215.276 109.846C213.877 108.728 212.316 107.707 210.08 107.574C207.924 107.447 205.934 107.806 204.748 108.968C203.545 110.149 203.366 112.234 204.324 113.972C205.105 115.389 206.255 116.498 207.584 117.394C208.86 118.246 210.572 119.02 212.509 119.129ZM234.04 89.9172C233.939 88.958 233.623 87.9093 233.157 87.2614C232.702 86.6287 232.028 86.152 231.061 85.857C229.127 85.2637 226.846 85.2762 224.789 85.6725C222.029 86.2033 219.61 87.3773 217.899 89.3467C217.654 89.632 217.403 90.0064 217.193 90.3894C215.984 92.6258 218.533 94.5832 220.347 95.3743C222.306 96.228 223.898 96.491 226.313 96.2253C228.913 95.9389 231.87 94.8749 233.362 92.7057C233.861 91.9815 234.162 91.0327 234.04 89.9172ZM233.882 105.317C233.749 103.864 233.177 102.5 232.323 101.433C230.894 99.6462 228.324 99.2049 225.816 98.9256C222.955 98.6044 219.126 98.7615 217.228 100.988C216.749 101.552 216.196 102.618 216.357 103.662C216.793 106.474 221.556 108.978 224.657 109.806C226.677 110.343 229.043 110.326 231.032 109.673C232.007 109.354 232.758 108.875 233.217 108.222C233.74 107.476 233.985 106.448 233.882 105.317Z" fill="#00923A" fill-opacity="0.15"/>
</g>
<g style="mix-blend-mode:multiply">
<path fill-rule="evenodd" clip-rule="evenodd" d="M295.705 233.476C295.906 231.763 295.267 229.437 294.737 228.052C293.816 225.651 292.733 223.727 291.351 221.614C291.13 221.274 290.904 220.972 290.683 220.638C290.372 220.169 289.638 219.206 289.272 218.752C289.071 218.503 288.275 217.506 288.145 217.39C287.85 217.124 287.463 216.565 286.939 216.144C284.502 214.19 279.148 214.618 276.668 216.479C275.348 217.471 269.244 225.468 268.109 227.953C267.53 229.211 266.428 231.639 266.654 233.223C266.75 233.89 267.08 234.407 267.49 234.853L267.898 235.263C268.045 235.411 268.184 235.525 268.338 235.667C269.355 236.612 271.985 236.103 273.131 235.834C273.575 235.731 273.988 235.626 274.42 235.509C274.849 235.396 275.283 235.314 275.717 235.216C276.552 235.022 277.389 234.714 278.191 234.451C279.011 234.179 279.882 233.935 280.802 233.831C282.945 233.584 284.592 234.095 286.34 234.85C287.945 235.547 289.875 236.144 291.837 236.169C292.831 236.183 293.775 236.025 294.491 235.604C295.157 235.217 295.581 234.531 295.705 233.476ZM261.303 210.513C261.29 211.489 261.428 212.45 261.728 213.274C262.16 214.463 262.889 216.008 263.703 216.966C263.773 217.049 263.801 217.102 263.886 217.189C263.956 217.263 264.009 217.33 264.076 217.41C265.214 218.724 266.757 219.59 268.661 219.321C269.607 219.187 270.383 218.941 271.021 218.486C272.392 217.506 272.588 215.54 272.426 213.416C272.273 211.367 271.726 210.009 270.87 208.551C270.708 208.273 270.172 207.494 269.932 207.222L269.462 206.686C267.678 204.826 265.039 203.283 262.988 205.508C261.977 206.606 261.33 208.567 261.303 210.513ZM305.086 215.299C305.197 214.352 305.107 213.15 304.916 212.267C304.248 209.178 302.157 207.785 299.172 209.356C298.272 209.83 296.741 211.155 295.978 212.005C294.781 213.338 293.672 214.838 293.412 217.063C293.161 219.208 293.406 221.215 294.498 222.465C295.608 223.735 297.68 224.033 299.469 223.176C300.929 222.477 302.102 221.392 303.072 220.117C303.996 218.892 304.867 217.227 305.086 215.299ZM277.156 192.131C276.192 192.177 275.127 192.432 274.454 192.861C273.796 193.278 273.282 193.924 272.932 194.873C272.229 196.77 272.11 199.047 272.388 201.123C272.76 203.909 273.794 206.392 275.662 208.212C275.933 208.474 276.292 208.746 276.662 208.978C278.826 210.312 280.926 207.88 281.82 206.114C282.784 204.207 283.138 202.633 283.011 200.206C282.874 197.594 281.981 194.582 279.901 192.967C279.206 192.428 278.276 192.073 277.156 192.131ZM292.522 193.171C291.064 193.22 289.668 193.713 288.554 194.504C286.689 195.829 286.101 198.369 285.678 200.858C285.194 203.695 285.132 207.527 287.246 209.55C287.782 210.06 288.814 210.673 289.865 210.572C292.697 210.297 295.47 205.686 296.474 202.638C297.126 200.652 297.245 198.288 296.707 196.265C296.444 195.274 296.009 194.497 295.384 194.001C294.669 193.436 293.657 193.132 292.522 193.171Z" fill="#00923A" fill-opacity="0.15"/>
</g>
<g style="mix-blend-mode:multiply">
<path fill-rule="evenodd" clip-rule="evenodd" d="M44.0118 11.4896C42.2936 11.3391 39.9866 12.0446 38.6174 12.6148C36.2445 13.6046 34.3525 14.7433 32.2805 16.1859C31.9476 16.4169 31.6515 16.6515 31.3248 16.8825C30.8643 17.2065 29.923 17.9677 29.4801 18.3472C29.2368 18.5551 28.2638 19.3802 28.151 19.5134C27.8939 19.8162 27.346 20.2185 26.9407 20.7552C25.0586 23.2474 25.6411 28.5872 27.5736 31.012C28.6033 32.3021 36.7737 38.1724 39.2904 39.2349C40.5656 39.7771 43.0242 40.808 44.6012 40.5357C45.2647 40.4206 45.7718 40.0758 46.2061 39.6532L46.6035 39.233C46.7474 39.082 46.8573 38.9395 46.9952 38.7821C47.91 37.7382 47.3255 35.1234 47.0229 33.9861C46.9066 33.5454 46.7898 33.1354 46.661 32.7067C46.5352 32.2812 46.4403 31.85 46.33 31.4186C46.1119 30.5896 45.78 29.7619 45.4936 28.9686C45.1983 28.1567 44.9285 27.2931 44.798 26.3765C44.4893 24.2418 44.9519 22.5799 45.6563 20.8114C46.3062 19.1862 46.8471 17.2401 46.8158 15.2786C46.8003 14.2841 46.6147 13.3451 46.1732 12.6414C45.7677 11.9874 45.0691 11.5833 44.0118 11.4896ZM22.0556 46.5431C23.0315 46.5281 23.9882 46.3625 24.8027 46.038C25.9795 45.5721 27.5026 44.7988 28.4359 43.9576C28.517 43.8853 28.5698 43.8555 28.6542 43.7679C28.7261 43.6953 28.7916 43.6412 28.8696 43.5718C30.1497 42.3957 30.971 40.8285 30.6463 38.9329C30.4854 37.9913 30.2171 37.2228 29.7435 36.5984C28.7239 35.2562 26.7532 35.117 24.6352 35.3407C22.5913 35.5532 21.2495 36.1392 19.8168 37.0368C19.5433 37.2073 18.7806 37.7657 18.5152 38.0131L17.9937 38.4988C16.1864 40.3355 14.72 43.0185 17.0039 45.004C18.1308 45.9827 20.1099 46.5731 22.0556 46.5431ZM25.5703 2.63968C24.6204 2.55684 23.4213 2.68176 22.5438 2.89776C19.4758 3.65541 18.1441 5.78511 19.8008 8.72409C20.3012 9.60981 21.6694 11.1018 22.5413 11.8401C23.9085 12.9976 25.4403 14.0626 27.6718 14.2581C29.8234 14.4462 31.8225 14.144 33.0403 13.0159C34.2768 11.8697 34.5151 9.78981 33.6066 8.02597C32.8655 6.58706 31.7473 5.44588 30.4444 4.51345C29.1931 3.62485 27.5037 2.80278 25.5703 2.63968ZM3.22125 31.2301C3.2957 32.1919 3.58102 33.2491 4.02943 33.9099C4.46578 34.5553 5.12601 35.0508 6.08445 35.3731C8.00119 36.0208 10.2811 36.0729 12.3485 35.7349C15.1224 35.2825 17.574 34.1773 19.3396 32.2571C19.5932 31.9789 19.8543 31.6118 20.0756 31.2349C21.3468 29.0335 18.8542 27.0048 17.0636 26.1627C15.1293 25.2539 13.5458 24.946 11.1236 25.1433C8.51647 25.356 5.53121 26.3359 3.97797 28.462C3.4592 29.1718 3.13076 30.1117 3.22125 31.2301ZM3.81555 15.8407C3.90696 17.2967 4.4397 18.6771 5.26314 19.7675C6.64156 21.5941 9.19752 22.1079 11.6975 22.4581C14.5475 22.8601 18.3802 22.8114 20.3405 20.6396C20.8353 20.089 21.4178 19.0397 21.2862 17.9911C20.9296 15.1683 16.2396 12.5303 13.1635 11.6153C11.1597 11.0214 8.79363 10.971 6.78688 11.5678C5.80366 11.8588 5.03946 12.316 4.56175 12.9558C4.018 13.6866 3.74375 14.7071 3.81555 15.8407Z" fill="#00923A" fill-opacity="0.15"/>
</g>
</svg>
