<svg width="355" height="380" viewBox="0 0 355 380" fill="none" xmlns="http://www.w3.org/2000/svg">
<path d="M157.796 59.2047C159.716 53.4771 162.634 47.7483 167.041 42.5011C167.042 42.4994 167.044 42.4977 167.045 42.4959C175.003 33.0192 185.978 25.6233 198.527 21.909C208.915 18.8301 220.439 18.774 230.709 23.3219L230.724 23.3286L230.74 23.3353C240.459 27.6588 247.05 35.5079 251.454 43.3767C259.913 58.4565 263.584 76.8989 262.517 93.5064L262.516 93.5161L262.515 93.5257C262.144 99.2148 261.243 105.611 259.818 112.198C270.299 103.739 283.337 98.9279 297.247 102.48C311.658 106.16 321.288 117.439 327.109 129.058L327.113 129.064L327.116 129.071C330.457 135.751 333.645 144.991 334.801 153.391C337.11 169.924 333.415 185.058 328.807 196.188L328.794 196.221L328.78 196.253C324.025 207.624 316.98 218.956 306.225 228.039L306.225 228.039C300.86 232.57 294.416 236.027 287.539 238.002C287.817 238.387 288.094 238.774 288.37 239.164L288.377 239.172C294.179 247.355 304.089 263.788 306.232 279.459L306.233 279.47L306.235 279.48C307.734 290.532 305.443 302.077 296.628 310.84C289.382 318.081 280.001 321.723 272.21 323.633C256.75 327.43 241.205 326.521 228.962 324.588L157.796 59.2047ZM157.796 59.2047C151.625 51.8747 143.949 45.5035 134.547 41.4375C134.546 41.4368 134.544 41.4361 134.543 41.4355C125.409 37.4846 114.363 36.3488 102.915 39.955C95.3436 42.3212 85.7493 46.9312 79.1587 54.0143C72.4483 61.2148 68.9134 70.1842 67.9174 80.0472C66.2139 96.7464 69.9728 114.102 75.7667 128.419C75.7676 128.421 75.7685 128.424 75.7695 128.426C76.7169 130.769 77.7356 133.086 78.8282 135.368M157.796 59.2047L78.8282 135.368M144.103 208.262C156.29 192.953 188.259 181.865 206.187 189.958C208.549 191.024 210.676 192.489 212.48 193.732L212.481 193.733C213.626 194.521 214.64 195.219 215.501 195.669C216.378 196.126 221.664 200.083 223.893 201.753L223.985 201.821M144.103 208.262L233.11 208.983C230.24 206.616 226.611 203.778 224.516 202.219M144.103 208.262C142.455 210.335 139.635 215.666 136.296 222.743L144.103 208.262ZM223.985 201.821C224.195 201.978 224.374 202.112 224.516 202.219M223.985 201.821L229 195.122L229 195.123L223.985 201.821ZM224.516 202.219L229.178 195.957L224.516 202.219ZM227.149 179.976C227.058 175.218 227.48 170.756 228.248 166.58C226.296 167.727 224.203 168.736 221.962 169.556L221.954 169.559L221.947 169.562C218.867 170.686 215.802 171.321 212.825 171.587C213.289 171.778 213.751 171.977 214.21 172.185L214.212 172.186C218.205 173.989 221.576 176.316 223.288 177.498C223.377 177.559 223.461 177.618 223.541 177.672L223.542 177.673L227.149 179.976ZM227.149 179.976C226.525 179.555 225.679 179.01 224.823 178.542C224.806 178.531 224.785 178.518 224.762 178.502C224.649 178.429 224.497 178.327 224.285 178.183C224.07 178.036 223.839 177.877 223.545 177.675C223.544 177.675 223.544 177.674 223.543 177.674L227.149 179.976ZM78.8282 135.368C73.8788 133.664 68.5386 132.475 63.0267 132.27C56.5447 132.029 49.3463 133.142 42.465 136.871C35.4866 140.652 30.0636 146.461 26.2408 153.622L26.2367 153.63C18.8752 167.434 18.4613 185.706 22.1005 200.687L78.8282 135.368ZM100.085 258.706C83.786 262.797 68.815 257.604 57.7112 249.921L57.5789 249.829L57.4482 249.736C57.255 249.597 57.0784 249.468 56.9616 249.383L56.9464 249.372L56.9459 249.372L56.8814 249.325L56.8267 249.285L56.7955 249.263C55.5634 248.486 54.6829 247.789 54.2836 247.47C45.1157 240.898 36.8123 230.508 31.8958 223.312C27.1765 216.428 23.994 208.483 22.1009 200.688L100.085 258.706ZM100.085 258.706C95.7172 270.371 92.0416 281.509 90.7895 288.558C90.0189 292.847 88.7258 300.097 88.2129 307.669C87.7456 314.568 87.6364 324.919 91.4072 334.002L91.4104 334.01L91.4135 334.018C95.0741 342.815 101.298 348.172 106.445 351.519L106.785 351.741L107.135 351.948L110.209 353.769C110.22 353.776 110.231 353.783 110.242 353.789C111.478 354.526 112.607 355.108 113.259 355.444L113.307 355.469L113.358 355.495L113.36 355.496C113.778 355.712 114.01 355.832 114.23 355.951L100.085 258.706ZM203.629 326.047L203.609 326.055C200.006 327.439 196.388 329.483 192.272 332.147L192.251 332.16L192.231 332.174C191.311 332.766 190.373 333.381 189.347 334.053L178.658 317.743L189.347 334.053L189.053 334.246C185.715 336.434 181.422 339.248 176.854 341.642L176.794 341.673L176.735 341.704C175.848 342.161 174.974 342.599 174.202 342.987L174.201 342.987L203.629 326.047ZM203.629 326.047L203.648 326.04M203.629 326.047L203.648 326.04M203.648 326.04C211.726 322.917 218.629 322.969 228.96 324.588L203.648 326.04ZM188.167 166.162C189.089 166.677 190.143 167.211 191.312 167.737C182.783 167.811 174.405 169.463 167.176 171.722C164.505 172.556 161.803 173.532 159.114 174.644C161.594 172.655 163.75 170.459 165.554 168.255C169.102 163.918 171.85 159.036 173.926 154.242C177.754 158.805 182.424 162.937 188.131 166.141L188.149 166.152L188.167 166.162ZM128.641 181.615C134.816 183.156 140.466 182.95 145.502 181.634C140.76 184.612 136.34 188.055 132.543 191.94C132.328 191.275 132.11 190.62 131.891 189.976C130.881 186.992 129.797 184.217 128.641 181.615ZM224.529 178.385C224.534 178.387 224.538 178.39 224.542 178.392C224.538 178.39 224.533 178.387 224.529 178.385ZM174.136 343.02L174.175 343.001L114.232 355.952C120.527 359.366 126.978 359.76 131.569 359.497C136.312 359.225 140.792 358.15 144.454 357.017C151.764 354.755 158.461 351.415 162.092 349.5C164.833 348.06 167.364 346.667 169.961 345.189C171.127 344.534 172.387 343.898 174.129 343.024L174.136 343.02Z" fill="#00923A" stroke="#00923A" stroke-width="39"/>
<path d="M157.796 59.2047C159.716 53.4771 162.634 47.7483 167.041 42.5011C167.042 42.4994 167.044 42.4977 167.045 42.4959C175.003 33.0192 185.978 25.6233 198.527 21.909C208.915 18.8301 220.439 18.774 230.709 23.3219L230.724 23.3286L230.74 23.3353C240.459 27.6588 247.05 35.5079 251.454 43.3767C259.913 58.4565 263.584 76.8989 262.517 93.5064L262.516 93.5161L262.515 93.5257C262.144 99.2148 261.243 105.611 259.818 112.198C270.299 103.739 283.337 98.9279 297.247 102.48C311.658 106.16 321.288 117.439 327.109 129.058L327.113 129.064L327.116 129.071C330.457 135.751 333.645 144.991 334.801 153.391C337.11 169.924 333.415 185.058 328.807 196.188L328.794 196.221L328.78 196.253C324.025 207.624 316.98 218.956 306.225 228.039L306.225 228.039C300.86 232.57 294.416 236.027 287.539 238.002C287.817 238.387 288.094 238.774 288.37 239.164L288.377 239.172C294.179 247.355 304.089 263.788 306.232 279.459L306.233 279.47L306.235 279.48C307.734 290.532 305.443 302.077 296.628 310.84C289.382 318.081 280.001 321.723 272.21 323.633C256.75 327.43 241.205 326.521 228.962 324.588L157.796 59.2047ZM157.796 59.2047C151.625 51.8747 143.949 45.5035 134.547 41.4375C134.546 41.4368 134.544 41.4361 134.543 41.4355C125.409 37.4846 114.363 36.3488 102.915 39.955C95.3436 42.3212 85.7493 46.9312 79.1587 54.0143C72.4483 61.2148 68.9134 70.1842 67.9174 80.0472C66.2139 96.7464 69.9728 114.102 75.7667 128.419C75.7676 128.421 75.7685 128.424 75.7695 128.426C76.7169 130.769 77.7356 133.086 78.8282 135.368M157.796 59.2047L78.8282 135.368M144.103 208.262C156.29 192.953 188.259 181.865 206.187 189.958C208.549 191.024 210.676 192.489 212.48 193.732L212.481 193.733C213.626 194.521 214.64 195.219 215.501 195.669C216.378 196.126 221.664 200.083 223.893 201.753L223.985 201.821M144.103 208.262L233.11 208.983C230.24 206.616 226.611 203.778 224.516 202.219M144.103 208.262C142.455 210.335 139.635 215.666 136.296 222.743L144.103 208.262ZM223.985 201.821C224.195 201.978 224.374 202.112 224.516 202.219M223.985 201.821L229 195.122L229 195.123L223.985 201.821ZM224.516 202.219L229.178 195.957L224.516 202.219ZM227.149 179.976C227.058 175.218 227.48 170.756 228.248 166.58C226.296 167.727 224.203 168.736 221.962 169.556L221.954 169.559L221.947 169.562C218.867 170.686 215.802 171.321 212.825 171.587C213.289 171.778 213.751 171.977 214.21 172.185L214.212 172.186C218.205 173.989 221.576 176.316 223.288 177.498C223.377 177.559 223.461 177.618 223.541 177.672L223.542 177.673L227.149 179.976ZM227.149 179.976C226.525 179.555 225.679 179.01 224.823 178.542C224.806 178.531 224.785 178.518 224.762 178.502C224.649 178.429 224.497 178.327 224.285 178.183C224.07 178.036 223.839 177.877 223.545 177.675C223.544 177.675 223.544 177.674 223.543 177.674L227.149 179.976ZM78.8282 135.368C73.8788 133.664 68.5386 132.475 63.0267 132.27C56.5447 132.029 49.3463 133.142 42.465 136.871C35.4866 140.652 30.0636 146.461 26.2408 153.622L26.2367 153.63C18.8752 167.434 18.4613 185.706 22.1005 200.687L78.8282 135.368ZM100.085 258.706C83.786 262.797 68.815 257.604 57.7112 249.921L57.5789 249.829L57.4482 249.736C57.255 249.597 57.0784 249.468 56.9616 249.383L56.9464 249.372L56.9459 249.372L56.8814 249.325L56.8267 249.285L56.7955 249.263C55.5634 248.486 54.6829 247.789 54.2836 247.47C45.1157 240.898 36.8123 230.508 31.8958 223.312C27.1765 216.428 23.994 208.483 22.1009 200.688L100.085 258.706ZM100.085 258.706C95.7172 270.371 92.0416 281.509 90.7895 288.558C90.0189 292.847 88.7258 300.097 88.2129 307.669C87.7456 314.568 87.6364 324.919 91.4072 334.002L91.4104 334.01L91.4135 334.018C95.0741 342.815 101.298 348.172 106.445 351.519L106.785 351.741L107.135 351.948L110.209 353.769C110.22 353.776 110.231 353.783 110.242 353.789C111.478 354.526 112.607 355.108 113.259 355.444L113.307 355.469L113.358 355.495L113.36 355.496C113.778 355.712 114.01 355.832 114.23 355.951L100.085 258.706ZM203.629 326.047L203.609 326.055C200.006 327.439 196.388 329.483 192.272 332.147L192.251 332.16L192.231 332.174C191.311 332.766 190.373 333.381 189.347 334.053L178.658 317.743L189.347 334.053L189.053 334.246C185.715 336.434 181.422 339.248 176.854 341.642L176.794 341.673L176.735 341.704C175.848 342.161 174.974 342.599 174.202 342.987L174.201 342.987L203.629 326.047ZM203.629 326.047L203.648 326.04M203.629 326.047L203.648 326.04M203.648 326.04C211.726 322.917 218.629 322.969 228.96 324.588L203.648 326.04ZM188.167 166.162C189.089 166.677 190.143 167.211 191.312 167.737C182.783 167.811 174.405 169.463 167.176 171.722C164.505 172.556 161.803 173.532 159.114 174.644C161.594 172.655 163.75 170.459 165.554 168.255C169.102 163.918 171.85 159.036 173.926 154.242C177.754 158.805 182.424 162.937 188.131 166.141L188.149 166.152L188.167 166.162ZM128.641 181.615C134.816 183.156 140.466 182.95 145.502 181.634C140.76 184.612 136.34 188.055 132.543 191.94C132.328 191.275 132.11 190.62 131.891 189.976C130.881 186.992 129.797 184.217 128.641 181.615ZM224.529 178.385C224.534 178.387 224.538 178.39 224.542 178.392C224.538 178.39 224.533 178.387 224.529 178.385ZM174.136 343.02L174.175 343.001L114.232 355.952C120.527 359.366 126.978 359.76 131.569 359.497C136.312 359.225 140.792 358.15 144.454 357.017C151.764 354.755 158.461 351.415 162.092 349.5C164.833 348.06 167.364 346.667 169.961 345.189C171.127 344.534 172.387 343.898 174.129 343.024L174.136 343.02Z" fill="#00923A" stroke="#00923A" stroke-width="39"/>
<g style="mix-blend-mode:multiply">
<path fill-rule="evenodd" clip-rule="evenodd" d="M126.684 239.806C126.409 238.49 125.365 236.928 124.631 236.035C123.359 234.488 122.085 233.333 120.543 232.111C120.296 231.915 120.054 231.747 119.808 231.555C119.463 231.285 118.684 230.754 118.301 230.509C118.091 230.374 117.257 229.834 117.132 229.78C116.849 229.656 116.425 229.338 115.934 229.156C113.652 228.313 109.8 229.948 108.426 231.935C107.695 232.993 105.154 240.407 104.927 242.523C104.81 243.596 104.594 245.662 105.151 246.777C105.386 247.246 105.758 247.546 106.17 247.775L106.573 247.977C106.718 248.051 106.849 248.101 106.998 248.168C107.982 248.616 109.801 247.592 110.581 247.11C110.884 246.924 111.163 246.745 111.454 246.553C111.743 246.363 112.043 246.195 112.34 246.016C112.91 245.667 113.452 245.233 113.98 244.841C114.519 244.438 115.102 244.043 115.757 243.74C117.279 243.029 118.623 243.001 120.101 243.128C121.459 243.248 123.032 243.213 124.488 242.749C125.226 242.514 125.885 242.164 126.311 241.677C126.707 241.227 126.851 240.615 126.684 239.806ZM95.6008 231.311C95.8314 232.036 96.1701 232.712 96.5952 233.247C97.2073 234.02 98.1267 234.982 98.9639 235.489C99.0361 235.533 99.0702 235.566 99.1546 235.609C99.2248 235.646 99.2799 235.683 99.3492 235.726C100.514 236.416 101.868 236.676 103.209 236.008C103.875 235.676 104.388 235.303 104.747 234.809C105.519 233.747 105.18 232.246 104.536 230.716C103.918 229.24 103.18 228.371 102.188 227.504C101.999 227.338 101.411 226.895 101.167 226.753L100.687 226.473C98.9111 225.538 96.5801 225.047 95.6128 227.197C95.1362 228.258 95.1409 229.867 95.6008 231.311ZM129.138 224.06C128.986 223.333 128.623 222.467 128.265 221.861C127.01 219.743 125.122 219.229 123.302 221.125C122.754 221.698 121.949 223.054 121.594 223.87C121.038 225.15 120.588 226.532 120.944 228.241C121.288 229.888 121.963 231.311 123.078 231.965C124.211 232.63 125.816 232.34 126.927 231.266C127.834 230.389 128.434 229.299 128.836 228.117C129.217 226.984 129.451 225.539 129.138 224.06ZM102.787 213.82C102.086 214.092 101.362 214.542 100.97 215.025C100.587 215.496 100.366 216.1 100.341 216.887C100.289 218.462 100.763 220.175 101.479 221.641C102.441 223.608 103.816 225.188 105.646 226.073C105.91 226.2 106.243 226.312 106.574 226.392C108.501 226.845 109.454 224.53 109.679 223.005C109.922 221.358 109.796 220.108 109.104 218.345C108.359 216.449 106.957 214.442 105.022 213.762C104.376 213.535 103.601 213.501 102.787 213.82ZM114.399 210.803C113.334 211.198 112.424 211.906 111.796 212.765C110.743 214.204 110.935 216.226 111.236 218.17C111.577 220.386 112.475 223.234 114.536 224.207C115.058 224.452 115.971 224.651 116.724 224.317C118.749 223.416 119.662 219.325 119.653 216.825C119.645 215.197 119.151 213.421 118.255 212.058C117.816 211.39 117.304 210.923 116.719 210.71C116.052 210.469 115.229 210.494 114.399 210.803Z" fill="#00923A" fill-opacity="0.15"/>
</g>
<g style="mix-blend-mode:multiply">
<path fill-rule="evenodd" clip-rule="evenodd" d="M319.004 145.752C318.729 144.437 317.684 142.875 316.951 141.982C315.679 140.435 314.405 139.279 312.863 138.058C312.616 137.862 312.374 137.694 312.128 137.502C311.783 137.232 311.004 136.701 310.621 136.456C310.411 136.321 309.577 135.781 309.452 135.727C309.169 135.603 308.745 135.285 308.254 135.103C305.972 134.26 302.12 135.895 300.746 137.882C300.015 138.94 297.474 146.354 297.247 148.47C297.13 149.543 296.914 151.609 297.471 152.724C297.706 153.193 298.078 153.493 298.49 153.722L298.893 153.924C299.038 153.998 299.169 154.047 299.318 154.115C300.302 154.562 302.121 153.539 302.901 153.057C303.204 152.871 303.483 152.692 303.774 152.499C304.063 152.31 304.363 152.142 304.66 151.963C305.23 151.614 305.772 151.18 306.3 150.788C306.839 150.385 307.422 149.99 308.077 149.686C309.599 148.976 310.943 148.948 312.42 149.075C313.779 149.194 315.352 149.16 316.808 148.696C317.546 148.461 318.205 148.111 318.63 147.624C319.027 147.174 319.171 146.562 319.004 145.752ZM287.921 137.258C288.151 137.983 288.49 138.659 288.915 139.194C289.527 139.967 290.447 140.929 291.284 141.436C291.356 141.48 291.39 141.513 291.475 141.556C291.545 141.593 291.6 141.63 291.669 141.673C292.834 142.363 294.188 142.623 295.529 141.955C296.195 141.623 296.708 141.25 297.067 140.756C297.839 139.694 297.499 138.193 296.856 136.663C296.238 135.187 295.499 134.318 294.508 133.451C294.319 133.285 293.731 132.842 293.487 132.7L293.007 132.42C291.231 131.485 288.9 130.994 287.933 133.144C287.456 134.205 287.461 135.814 287.921 137.258ZM321.458 130.007C321.306 129.28 320.943 128.414 320.584 127.808C319.329 125.69 317.442 125.176 315.622 127.072C315.074 127.645 314.269 129.001 313.914 129.817C313.358 131.097 312.908 132.479 313.264 134.187C313.608 135.835 314.283 137.258 315.398 137.912C316.531 138.577 318.136 138.287 319.247 137.213C320.154 136.336 320.753 135.246 321.156 134.064C321.537 132.931 321.771 131.486 321.458 130.007ZM295.107 119.767C294.406 120.039 293.682 120.489 293.29 120.972C292.907 121.443 292.686 122.047 292.661 122.834C292.609 124.409 293.082 126.122 293.799 127.588C294.761 129.555 296.136 131.135 297.966 132.02C298.23 132.147 298.563 132.259 298.894 132.339C300.821 132.792 301.774 130.477 301.999 128.952C302.242 127.305 302.116 126.055 301.424 124.292C300.679 122.395 299.277 120.389 297.342 119.709C296.696 119.481 295.921 119.448 295.107 119.767ZM306.719 116.749C305.654 117.145 304.744 117.853 304.116 118.712C303.063 120.151 303.255 122.173 303.556 124.116C303.897 126.333 304.795 129.18 306.856 130.154C307.378 130.399 308.291 130.598 309.044 130.264C311.069 129.363 311.982 125.272 311.973 122.772C311.965 121.144 311.471 119.367 310.574 118.005C310.136 117.337 309.623 116.87 309.039 116.657C308.371 116.416 307.549 116.441 306.719 116.749Z" fill="#00923A" fill-opacity="0.15"/>
</g>
<g style="mix-blend-mode:multiply">
<path fill-rule="evenodd" clip-rule="evenodd" d="M212.996 180.32C214.338 180.4 216.119 179.799 217.172 179.325C218.998 178.502 220.446 177.574 222.028 176.405C222.282 176.217 222.508 176.028 222.757 175.841C223.109 175.579 223.825 174.965 224.161 174.66C224.346 174.493 225.086 173.829 225.171 173.722C225.364 173.481 225.782 173.155 226.086 172.729C227.496 170.746 226.925 166.601 225.367 164.755C224.536 163.773 218.045 159.382 216.061 158.61C215.056 158.216 213.119 157.468 211.897 157.714C211.383 157.819 210.996 158.098 210.667 158.437L210.367 158.773C210.258 158.894 210.175 159.007 210.071 159.133C209.382 159.966 209.895 161.989 210.156 162.868C210.256 163.209 210.356 163.525 210.466 163.856C210.573 164.185 210.656 164.519 210.752 164.852C210.94 165.493 211.217 166.13 211.457 166.742C211.705 167.367 211.934 168.034 212.056 168.745C212.343 170.4 212.02 171.705 211.51 173.097C211.04 174.377 210.662 175.905 210.729 177.431C210.763 178.206 210.928 178.933 211.288 179.471C211.618 179.971 212.171 180.271 212.996 180.32ZM229.321 152.539C228.562 152.573 227.82 152.723 227.193 152.993C226.287 153.382 225.118 154.018 224.41 154.693C224.348 154.751 224.308 154.776 224.244 154.846C224.19 154.904 224.14 154.948 224.081 155.003C223.11 155.947 222.505 157.186 222.799 158.655C222.945 159.385 223.171 159.977 223.554 160.453C224.377 161.476 225.915 161.541 227.56 161.32C229.146 161.109 230.178 160.623 231.274 159.893C231.484 159.754 232.065 159.302 232.266 159.104L232.662 158.714C234.029 157.244 235.111 155.122 233.289 153.627C232.39 152.889 230.836 152.473 229.321 152.539ZM227.552 186.805C228.294 186.849 229.225 186.725 229.903 186.538C232.276 185.88 233.266 184.192 231.911 181.94C231.502 181.261 230.403 180.13 229.708 179.574C228.618 178.703 227.402 177.907 225.66 177.804C223.98 177.705 222.43 177.985 221.506 178.89C220.569 179.81 220.429 181.435 221.175 182.788C221.784 183.892 222.68 184.756 223.715 185.454C224.709 186.118 226.043 186.721 227.552 186.805ZM244.326 164.049C244.247 163.301 244.001 162.484 243.637 161.98C243.283 161.487 242.758 161.115 242.005 160.886C240.498 160.423 238.721 160.433 237.119 160.742C234.969 161.155 233.084 162.07 231.751 163.604C231.56 163.827 231.365 164.118 231.201 164.417C230.259 166.159 232.245 167.684 233.658 168.3C235.184 168.965 236.424 169.17 238.306 168.963C240.332 168.74 242.635 167.911 243.797 166.221C244.186 165.657 244.421 164.918 244.326 164.049ZM244.202 176.046C244.099 174.914 243.654 173.851 242.988 173.02C241.875 171.628 239.873 171.284 237.918 171.067C235.69 170.816 232.707 170.939 231.228 172.673C230.855 173.113 230.424 173.943 230.55 174.756C230.89 176.947 234.6 178.898 237.016 179.542C238.589 179.961 240.433 179.948 241.982 179.439C242.742 179.191 243.327 178.818 243.685 178.309C244.092 177.728 244.283 176.927 244.202 176.046Z" fill="#00923A" fill-opacity="0.15"/>
</g>
<g style="mix-blend-mode:multiply">
<path fill-rule="evenodd" clip-rule="evenodd" d="M292.365 275.886C292.521 274.552 292.024 272.74 291.611 271.66C290.894 269.79 290.05 268.291 288.973 266.645C288.801 266.381 288.625 266.145 288.452 265.885C288.21 265.519 287.639 264.769 287.353 264.416C287.197 264.222 286.576 263.445 286.475 263.354C286.245 263.147 285.944 262.712 285.535 262.384C283.637 260.862 279.466 261.195 277.534 262.645C276.506 263.418 271.75 269.647 270.866 271.583C270.415 272.564 269.557 274.455 269.733 275.689C269.808 276.209 270.065 276.611 270.384 276.959L270.702 277.278C270.817 277.393 270.925 277.482 271.045 277.593C271.837 278.329 273.886 277.933 274.779 277.723C275.125 277.642 275.447 277.561 275.783 277.47C276.117 277.382 276.455 277.318 276.794 277.242C277.444 277.09 278.096 276.851 278.721 276.646C279.359 276.434 280.038 276.243 280.755 276.162C282.424 275.97 283.708 276.368 285.069 276.957C286.32 277.499 287.823 277.964 289.351 277.984C290.126 277.995 290.861 277.872 291.419 277.544C291.938 277.243 292.268 276.708 292.365 275.886ZM265.565 257.997C265.554 258.758 265.662 259.506 265.896 260.148C266.232 261.075 266.8 262.278 267.434 263.024C267.488 263.089 267.51 263.131 267.577 263.198C267.631 263.256 267.672 263.308 267.724 263.37C268.611 264.394 269.813 265.069 271.297 264.859C272.033 264.755 272.638 264.563 273.135 264.209C274.203 263.445 274.356 261.913 274.23 260.259C274.11 258.663 273.684 257.605 273.018 256.469C272.891 256.252 272.473 255.645 272.287 255.433L271.92 255.016C270.531 253.567 268.475 252.365 266.877 254.098C266.09 254.954 265.585 256.481 265.565 257.997ZM299.673 261.726C299.759 260.988 299.689 260.051 299.54 259.363C299.02 256.957 297.391 255.872 295.065 257.096C294.364 257.465 293.172 258.497 292.577 259.159C291.645 260.198 290.781 261.367 290.578 263.1C290.383 264.771 290.573 266.335 291.424 267.308C292.289 268.297 293.903 268.53 295.297 267.862C296.434 267.318 297.348 266.473 298.104 265.479C298.824 264.525 299.502 263.228 299.673 261.726ZM277.914 243.677C277.164 243.713 276.334 243.911 275.809 244.245C275.297 244.571 274.896 245.074 274.623 245.813C274.076 247.291 273.984 249.065 274.2 250.682C274.49 252.853 275.295 254.787 276.75 256.205C276.961 256.409 277.241 256.62 277.53 256.801C279.215 257.841 280.851 255.946 281.548 254.57C282.299 253.085 282.575 251.858 282.476 249.968C282.369 247.933 281.673 245.586 280.053 244.328C279.512 243.908 278.787 243.631 277.914 243.677ZM289.885 244.487C288.749 244.525 287.662 244.909 286.794 245.526C285.341 246.558 284.883 248.536 284.554 250.475C284.176 252.686 284.128 255.671 285.775 257.247C286.192 257.644 286.996 258.122 287.816 258.043C290.022 257.829 292.182 254.237 292.964 251.862C293.472 250.315 293.564 248.474 293.145 246.897C292.941 246.125 292.602 245.52 292.114 245.133C291.558 244.693 290.769 244.457 289.885 244.487Z" fill="#00923A" fill-opacity="0.15"/>
</g>
<g style="mix-blend-mode:multiply">
<path fill-rule="evenodd" clip-rule="evenodd" d="M96.2867 102.951C94.9482 102.834 93.151 103.383 92.0843 103.827C90.2358 104.598 88.7618 105.486 87.1476 106.609C86.8883 106.789 86.6577 106.972 86.4031 107.152C86.0444 107.404 85.3111 107.998 84.9661 108.293C84.7765 108.455 84.0185 109.098 83.9306 109.202C83.7303 109.438 83.3035 109.751 82.9878 110.169C81.5216 112.111 81.9754 116.27 83.4808 118.159C84.283 119.165 90.648 123.738 92.6087 124.565C93.602 124.988 95.5174 125.791 96.7459 125.579C97.2628 125.489 97.6578 125.221 97.9962 124.891L98.3058 124.564C98.4179 124.446 98.5035 124.335 98.6109 124.213C99.3236 123.399 98.8682 121.362 98.6325 120.476C98.5419 120.133 98.4509 119.814 98.3506 119.48C98.2526 119.148 98.1786 118.812 98.0927 118.476C97.9228 117.83 97.6642 117.186 97.4412 116.568C97.2111 115.935 97.0009 115.262 96.8992 114.548C96.6587 112.885 97.0191 111.591 97.5679 110.213C98.0742 108.947 98.4955 107.431 98.4712 105.903C98.4591 105.128 98.3145 104.396 97.9705 103.848C97.6547 103.339 97.1104 103.024 96.2867 102.951ZM79.1821 130.259C79.9424 130.247 80.6877 130.118 81.3222 129.865C82.2389 129.502 83.4255 128.9 84.1526 128.245C84.2158 128.188 84.2569 128.165 84.3227 128.097C84.3787 128.04 84.4297 127.998 84.4905 127.944C85.4877 127.028 86.1275 125.807 85.8746 124.33C85.7492 123.597 85.5402 122.998 85.1713 122.511C84.3769 121.466 82.8417 121.357 81.1917 121.532C79.5994 121.697 78.5541 122.154 77.438 122.853C77.225 122.986 76.6308 123.421 76.424 123.614L76.0178 123.992C74.6098 125.423 73.4674 127.513 75.2467 129.06C76.1245 129.822 77.6664 130.282 79.1821 130.259ZM81.9201 96.0564C81.1802 95.9919 80.246 96.0892 79.5624 96.2575C77.1723 96.8477 76.1349 98.5068 77.4256 100.796C77.8154 101.486 78.8812 102.649 79.5605 103.224C80.6256 104.126 81.8189 104.955 83.5573 105.108C85.2335 105.254 86.7909 105.019 87.7396 104.14C88.7028 103.247 88.8885 101.627 88.1808 100.253C87.6034 99.1316 86.7323 98.2425 85.7173 97.5161C84.7425 96.8239 83.4264 96.1835 81.9201 96.0564ZM64.5095 118.329C64.5675 119.079 64.7897 119.902 65.1391 120.417C65.479 120.92 65.9933 121.306 66.74 121.557C68.2332 122.062 70.0093 122.102 71.6199 121.839C73.7809 121.486 75.6908 120.625 77.0662 119.129C77.2638 118.913 77.4672 118.627 77.6396 118.333C78.6299 116.618 76.6881 115.038 75.2931 114.382C73.7863 113.674 72.5527 113.434 70.6657 113.588C68.6346 113.753 66.309 114.517 65.099 116.173C64.6948 116.726 64.439 117.458 64.5095 118.329ZM64.9724 106.34C65.0437 107.475 65.4587 108.55 66.1002 109.4C67.174 110.823 69.1652 111.223 71.1128 111.496C73.3331 111.809 76.3189 111.771 77.846 110.079C78.2314 109.65 78.6852 108.833 78.5827 108.016C78.3049 105.817 74.6512 103.762 72.2548 103.049C70.6938 102.586 68.8505 102.547 67.2872 103.012C66.5213 103.238 65.9259 103.595 65.5538 104.093C65.1302 104.662 64.9165 105.457 64.9724 106.34Z" fill="#00923A" fill-opacity="0.15"/>
</g>
</svg>
