<svg width="46" height="46" viewBox="0 0 46 46" fill="none" xmlns="http://www.w3.org/2000/svg">
<path opacity="0.4" d="M38.3333 13.4933V32.5066C38.3333 35.4199 38.065 37.4899 37.375 38.9658C37.375 38.9849 37.3558 39.0233 37.3366 39.0424C36.915 39.5791 36.3592 39.8474 35.7075 39.8474C34.6917 39.8474 33.465 39.1766 32.1425 37.7583C30.5709 36.0716 28.1558 36.2058 26.7758 38.0458L24.84 40.6141C24.0734 41.6491 23.0575 42.1666 22.0417 42.1666C21.0258 42.1666 20.01 41.6491 19.2433 40.6141L17.2884 38.0266C15.9275 36.2058 13.5316 36.0716 11.96 37.7391L11.9408 37.7583C9.77496 40.0774 7.85837 40.4224 6.7467 39.0424C6.72754 39.0233 6.70833 38.9849 6.70833 38.9658C6.01833 37.4899 5.75 35.4199 5.75 32.5066V13.4933C5.75 10.5799 6.01833 8.50992 6.70833 7.03409C6.70833 7.01492 6.70837 6.99575 6.7467 6.97659C7.8392 5.57742 9.77496 5.92242 11.9408 8.24159L11.96 8.26075C13.5316 9.92825 15.9275 9.79409 17.2884 7.97325L19.2433 5.38575C20.01 4.35075 21.0258 3.83325 22.0417 3.83325C23.0575 3.83325 24.0734 4.35075 24.84 5.38575L26.7758 7.95409C28.1558 9.79409 30.5709 9.92825 32.1425 8.24159C33.465 6.82325 34.6917 6.15242 35.7075 6.15242C36.3592 6.15242 36.915 6.43992 37.3366 6.97659C37.375 6.99575 37.375 7.01492 37.375 7.03409C38.065 8.50992 38.3333 10.5799 38.3333 13.4933Z" fill="white"/>
<path d="M30.6666 21.0833H15.3333C14.5475 21.0833 13.8958 20.4316 13.8958 19.6458C13.8958 18.8599 14.5475 18.2083 15.3333 18.2083H30.6666C31.4525 18.2083 32.1041 18.8599 32.1041 19.6458C32.1041 20.4316 31.4525 21.0833 30.6666 21.0833Z" fill="white"/>
<path d="M26.8333 27.7917H15.3333C14.5475 27.7917 13.8958 27.1401 13.8958 26.3542C13.8958 25.5684 14.5475 24.9167 15.3333 24.9167H26.8333C27.6191 24.9167 28.2708 25.5684 28.2708 26.3542C28.2708 27.1401 27.6191 27.7917 26.8333 27.7917Z" fill="white"/>
</svg>
