<svg width="46" height="46" viewBox="0 0 46 46" fill="none" xmlns="http://www.w3.org/2000/svg">
<path opacity="0.5" d="M3.83337 22.9999C3.83337 13.9648 3.83337 9.44717 6.63937 6.63925C9.44921 3.83325 13.9649 3.83325 23 3.83325C32.0352 3.83325 36.5528 3.83325 39.3588 6.63925C42.1667 9.44909 42.1667 13.9648 42.1667 22.9999C42.1667 32.0351 42.1667 36.5527 39.3588 39.3587C36.5547 42.1666 32.0352 42.1666 23 42.1666C13.9649 42.1666 9.44729 42.1666 6.63937 39.3587C3.83337 36.5546 3.83337 32.0351 3.83337 22.9999Z" fill="white"/>
<path fill-rule="evenodd" clip-rule="evenodd" d="M13.2519 21.5624H3.83337V24.4374H19.4791C19.1555 25.8019 18.3809 27.0173 17.2807 27.8869C16.1805 28.7565 14.8191 29.2294 13.4167 29.2291C13.0355 29.2291 12.6698 29.3805 12.4002 29.6501C12.1307 29.9197 11.9792 30.2853 11.9792 30.6666C11.9792 31.0478 12.1307 31.4135 12.4002 31.6831C12.6698 31.9526 13.0355 32.1041 13.4167 32.1041C15.108 32.1046 16.766 31.6339 18.2048 30.7449C19.6436 29.8559 20.8063 28.5837 21.5625 27.0709V42.1666H24.4375V27.0709C25.1938 28.5837 26.3565 29.8559 27.7953 30.7449C29.2341 31.6339 30.8921 32.1046 32.5834 32.1041C32.9646 32.1041 33.3303 31.9526 33.5998 31.6831C33.8694 31.4135 34.0209 31.0478 34.0209 30.6666C34.0209 30.2853 33.8694 29.9197 33.5998 29.6501C33.3303 29.3805 32.9646 29.2291 32.5834 29.2291C31.181 29.2294 29.8196 28.7565 28.7194 27.8869C27.6192 27.0173 26.8446 25.8019 26.521 24.4374H42.1667V21.5624H32.7501C33.421 20.7229 33.925 19.732 34.1991 18.6357C35.2303 14.5091 31.4909 10.7716 27.3662 11.8028C26.2972 12.0697 25.2983 12.5639 24.4375 13.2518V3.83325H21.5625V13.2518C20.7023 12.5642 19.7041 12.0699 18.6358 11.8028C14.5092 10.7716 10.7717 14.5091 11.8029 18.6357C12.077 19.732 12.5791 20.7229 13.2519 21.5624ZM21.5625 21.5624H19.161C18.1067 21.5452 17.0875 21.1807 16.2614 20.5255C15.4352 19.8702 14.8483 18.9607 14.5916 17.938C14.476 17.4755 14.4822 16.991 14.6095 16.5316C14.7369 16.0722 14.981 15.6536 15.3182 15.3166C15.6554 14.9796 16.0741 14.7357 16.5336 14.6086C16.9931 14.4815 17.4776 14.4756 17.94 14.5915C18.9628 14.8482 19.8722 15.4351 20.5275 16.2612C21.1828 17.0873 21.5473 18.1065 21.5645 19.1608L21.5625 21.5624ZM26.8391 21.5624H24.4375V19.1762C24.4514 18.1192 24.8143 17.0965 25.4699 16.2673C26.1254 15.4381 27.0367 14.8489 28.062 14.5915C28.5243 14.476 29.0086 14.4822 29.4678 14.6095C29.927 14.7367 30.3454 14.9807 30.6823 15.3176C31.0192 15.6546 31.2632 16.073 31.3905 16.5322C31.5177 16.9914 31.5239 17.4757 31.4085 17.938C31.1517 18.9607 30.5648 19.8702 29.7387 20.5255C28.9126 21.1807 27.8934 21.5452 26.8391 21.5624Z" fill="white"/>
</svg>
