<svg width="12" height="12" viewBox="0 0 12 12" fill="none" xmlns="http://www.w3.org/2000/svg">
<path d="M1.875 9.75012C1.875 10.1479 2.03304 10.5295 2.31434 10.8108C2.59564 11.0921 2.97718 11.2501 3.375 11.2501H5.53125C5.55611 11.2501 5.57996 11.2402 5.59754 11.2227C5.61512 11.2051 5.625 11.1812 5.625 11.1564V6.84387C5.625 6.81901 5.61512 6.79516 5.59754 6.77758C5.57996 6.76 5.55611 6.75012 5.53125 6.75012H2.0625C2.01277 6.75012 1.96508 6.76987 1.92992 6.80504C1.89475 6.8402 1.875 6.88789 1.875 6.93762V9.75012ZM5.625 5.90637V3.37512H6.375V5.90637C6.375 5.93123 6.38488 5.95508 6.40246 5.97266C6.42004 5.99024 6.44389 6.00012 6.46875 6.00012H9.75C9.87776 6.00011 10.0046 5.97832 10.125 5.93567C10.3441 5.85786 10.5339 5.71417 10.6681 5.5243C10.8024 5.33443 10.8747 5.10767 10.875 4.87512V4.50012C10.875 4.20175 10.7565 3.9156 10.5455 3.70462C10.3345 3.49365 10.0484 3.37512 9.75 3.37512H8.79984C8.79168 3.37499 8.78369 3.37273 8.77667 3.36856C8.76965 3.36439 8.76383 3.35846 8.75981 3.35136C8.75578 3.34426 8.75368 3.33622 8.75372 3.32806C8.75375 3.31989 8.75592 3.31188 8.76 3.30481C8.97699 2.93845 9.04747 2.50361 8.9573 2.08747C8.86713 1.67133 8.62298 1.30466 8.2738 1.06099C7.92462 0.81731 7.49624 0.714641 7.07454 0.773567C6.65284 0.832492 6.26901 1.04866 6 1.37871C5.73099 1.04866 5.34716 0.832492 4.92546 0.773567C4.50376 0.714641 4.07538 0.81731 3.7262 1.06099C3.37702 1.30466 3.13287 1.67133 3.0427 2.08747C2.95253 2.50361 3.02301 2.93845 3.24 3.30481C3.24408 3.31188 3.24625 3.31989 3.24628 3.32806C3.24632 3.33622 3.24422 3.34426 3.24019 3.35136C3.23617 3.35846 3.23035 3.36439 3.22333 3.36856C3.21631 3.37273 3.20832 3.37499 3.20016 3.37512H2.25C1.95163 3.37512 1.66548 3.49365 1.4545 3.70462C1.24353 3.9156 1.125 4.20175 1.125 4.50012V4.87512C1.12533 5.10767 1.19759 5.33443 1.33186 5.5243C1.46613 5.71417 1.65585 5.85786 1.875 5.93567C1.99543 5.97832 2.12224 6.00011 2.25 6.00012H5.53125C5.55611 6.00012 5.57996 5.99024 5.59754 5.97266C5.61512 5.95508 5.625 5.93123 5.625 5.90637ZM6.375 2.43762C6.375 2.2522 6.42998 2.07094 6.533 1.91677C6.63601 1.7626 6.78243 1.64244 6.95373 1.57148C7.12504 1.50053 7.31354 1.48196 7.4954 1.51813C7.67725 1.55431 7.8443 1.6436 7.97541 1.77471C8.10652 1.90582 8.19581 2.07287 8.23199 2.25472C8.26816 2.43658 8.24959 2.62508 8.17864 2.79638C8.10768 2.96769 7.98752 3.11411 7.83335 3.21712C7.67918 3.32014 7.49792 3.37512 7.3125 3.37512H6.375V2.43762ZM4.62047 1.50246C4.74891 1.49326 4.87786 1.51061 4.9993 1.55343C5.12073 1.59626 5.23205 1.66364 5.32629 1.75138C5.42054 1.83912 5.49571 1.94533 5.5471 2.0634C5.59849 2.18147 5.62501 2.30885 5.625 2.43762V3.37512H4.6875C4.44508 3.3745 4.21233 3.28 4.03809 3.11145C3.86386 2.94291 3.76168 2.71342 3.75301 2.47116C3.74433 2.2289 3.82984 1.9927 3.99158 1.81213C4.15332 1.63155 4.37872 1.52065 4.62047 1.5027V1.50246ZM6.46875 11.2501H8.625C9.02282 11.2501 9.40436 11.0921 9.68566 10.8108C9.96696 10.5295 10.125 10.1479 10.125 9.75012V6.93762C10.125 6.88789 10.1052 6.8402 10.0701 6.80504C10.0349 6.76987 9.98723 6.75012 9.9375 6.75012H6.46875C6.44389 6.75012 6.42004 6.76 6.40246 6.77758C6.38488 6.79516 6.375 6.81901 6.375 6.84387V11.1564C6.375 11.1812 6.38488 11.2051 6.40246 11.2227C6.42004 11.2402 6.44389 11.2501 6.46875 11.2501Z" fill="#E05400"/>
</svg>
