<svg width="44" height="28" viewBox="0 0 44 28" fill="none" xmlns="http://www.w3.org/2000/svg">
<path opacity="0.7" fill-rule="evenodd" clip-rule="evenodd" d="M42.4623 7.86816C42.1913 10.5636 42.1405 13.9274 42.3607 18.1134C40.9128 18.5078 39.4832 18.9575 38.067 19.4478C37.9095 17.1081 37.7961 14.9023 37.7422 12.877C34.4949 8.22265 31.727 5.02287 29.2865 2.81639C30.7125 2.0655 32.1765 1.43025 33.6981 0.969609C34.9628 2.26798 36.3537 3.94958 37.8643 5.99411C38.0176 3.72708 38.3024 1.8592 38.6445 0.165109C40.2194 0.13206 41.8641 0.310609 43.5949 0.750769C43.2032 3.08032 42.7227 5.14013 42.4623 7.86816ZM26.7556 14.1413C26.4765 14.3584 26.1982 14.5777 25.9203 14.7986C25.7934 16.3718 25.6664 17.945 25.5195 19.4577C24.2028 20.3707 22.8882 21.2902 21.5593 22.1665C21.8411 20.4828 22.065 18.6232 22.2664 16.6957C20.9579 16.9326 20.0597 16.3109 19.5441 14.7463C19.1166 13.4493 19.1343 12.0771 19.6283 10.7224C20.1209 9.36446 21.1145 8.172 22.5975 7.11018C24.3439 5.85685 26.1018 4.63812 27.9127 3.58033C28.9352 6.68293 30.2329 10.6202 31.8056 15.392C30.5025 16.1288 29.2247 16.9424 27.958 17.7896C27.5461 16.5398 27.1453 15.3237 26.7556 14.1413ZM25.0185 8.8706C24.6702 9.14373 24.3231 9.42035 23.9767 9.6993C23.6113 9.9935 23.372 10.3192 23.2588 10.6761C23.1453 11.0337 23.1439 11.3794 23.2534 11.7116C23.3631 12.0443 23.543 12.2401 23.7933 12.298C24.0435 12.3567 24.3497 12.2339 24.7128 11.9328C25.0571 11.6474 25.4021 11.3644 25.7483 11.0851C25.5 10.3317 25.2567 9.59357 25.0185 8.8706ZM14.2917 19.4822C14.2924 22.144 14.1699 24.4319 13.9042 26.2852C12.8841 26.672 11.8417 26.9908 10.7711 27.2241C9.42115 25.7878 7.90859 23.8581 6.26884 21.5425C7.03138 23.8561 7.69694 25.8755 8.26557 27.6008C6.88466 27.7146 5.45381 27.677 3.96205 27.4545C2.77487 23.8524 1.49833 19.9793 0.132446 15.835C2.39357 16.24 4.50752 16.1984 6.51417 15.8313C8.14553 18.2665 9.67945 20.4061 11.0883 22.1662C11.2058 19.9355 11.1985 17.3265 11.0901 14.4103C12.8822 13.6342 14.6041 12.6449 16.2913 11.5502C17.7725 16.0444 19.042 19.8961 20.0996 23.1052C18.8244 23.9021 17.5308 24.6438 16.205 25.2876C15.6723 23.6711 15.0345 21.7359 14.2917 19.4822Z" fill="white"/>
</svg>
