<svg width="49" height="35" viewBox="0 0 49 35" fill="none" xmlns="http://www.w3.org/2000/svg">
<path opacity="0.5" fill-rule="evenodd" clip-rule="evenodd" d="M45.9379 31.2102C45.3685 31.6762 44.7767 31.9549 44.1419 32.0831C43.507 32.2107 42.8467 32.1808 42.1572 31.9994C41.4678 31.8178 40.7908 31.4589 40.1384 30.902C39.423 30.2944 38.9016 29.5838 38.594 28.7349C38.285 27.8877 38.157 26.9607 38.2032 25.9665C36.8683 28.3582 35.3718 31.0395 33.7137 34.0102C32.3751 33.2493 31.0148 32.5274 29.6391 31.833C33.8393 24.3076 37.038 18.5765 39.2353 14.6396C40.6853 15.2009 42.0834 15.8551 43.4081 16.6409C43.1738 17.0607 42.9261 17.5045 42.6649 17.9724C43.3362 17.6812 44.0256 17.6023 44.7389 17.7252C45.4507 17.8499 46.1712 18.2039 46.8793 18.8245C47.5251 19.3933 48.0228 20.0732 48.3635 20.8796C48.7042 21.6861 48.8878 22.57 48.9205 23.5213C48.9533 24.4716 48.8338 25.4675 48.5827 26.4716C48.3307 27.4764 47.9621 28.414 47.4909 29.2581C47.0186 30.1044 46.5065 30.7448 45.9379 31.2102ZM45.1291 22.6443C45.0455 21.8818 44.6933 21.2267 44.056 20.7075C43.4295 20.2009 42.822 20.0275 42.2538 20.1503C41.6838 20.2754 41.2148 20.6355 40.8433 21.2362C40.7374 21.4259 40.6301 21.6182 40.5213 21.8131C40.1499 22.4785 40.0191 23.1687 40.1329 23.8769C40.2451 24.5875 40.6315 25.1821 41.272 25.6956C41.911 26.2117 42.5264 26.3952 43.1319 26.2226C43.7361 26.0516 44.2385 25.6078 44.6442 24.881C45.0484 24.1568 45.2111 23.4088 45.1291 22.6443ZM17.5847 26.268C18.8306 25.2896 20.1655 24.1519 21.5467 22.9311C21.9045 18.7888 21.9803 15.1517 22.6815 10.3943C24.3509 10.823 26.0508 11.1971 27.7535 11.566C27.4672 13.789 27.2645 15.862 27.0153 18.0185C29.0937 16.1347 31.1435 14.3023 33.0349 12.7536C34.626 13.1435 36.194 13.5748 37.7154 14.0896C33.2613 17.3311 27.2875 23.2955 21.907 28.1969C20.4675 27.5516 19.0245 26.9127 17.5847 26.268ZM13.5466 13.9614C11.5024 15.8328 9.66476 17.3339 8.05419 18.4282C7.04377 17.8936 6.06811 17.2967 5.13546 16.6227C5.30011 14.5364 5.72949 11.9758 6.35828 9.05784C5.11019 11.294 4.01647 13.2536 3.07715 14.9366C2.01152 13.9472 1.0213 12.8227 0.122159 11.535C2.07312 8.03952 4.16428 4.29281 6.39551 0.295116C7.70724 2.2929 9.23894 3.89657 10.9339 5.20771C10.2075 8.20274 9.63248 10.9267 9.25973 13.2881C11.0585 11.8078 13.0578 9.96817 15.2304 7.81796C17.0763 8.69588 19.0319 9.37709 21.0468 9.95222C18.5808 14.3705 16.5042 18.0912 14.8167 21.1146C13.3157 20.661 11.8457 20.1518 10.4268 19.5511C11.2893 18.0058 12.3293 16.1425 13.5466 13.9614Z" fill="white"/>
</svg>
